{"glyphs":{"0":{"ha":792,"x_min":21,"x_max":781,"o":"m 771 418 q 735 176 781 275 q 601 25 689 76 q 396 -26 514 -26 q 119 89 218 -26 q 21 417 21 204 q 65 640 21 549 q 192 781 108 731 q 393 838 275 831 q 595 794 514 846 q 719 646 676 743 q 771 418 763 549 m 243 417 q 278 234 243 294 q 392 182 313 174 q 485 213 451 188 q 534 288 519 239 q 549 417 549 338 q 533 542 549 489 q 485 622 518 594 q 400 643 453 650 q 308 610 343 638 q 258 535 274 583 q 243 417 243 488 z "},"1":{"ha":597,"x_min":10,"x_max":593,"o":"m 133 -14 q 40 16 69 -18 q 10 94 10 50 q 35 163 10 138 q 103 188 60 188 l 157 188 q 183 214 183 188 l 183 521 q 177 540 183 533 q 161 543 171 546 q 133 531 149 536 q 104 525 118 525 q 35 562 61 525 q 10 639 10 599 q 31 701 10 676 q 88 733 51 726 q 174 763 136 746 q 247 806 211 779 q 326 836 286 835 q 394 813 367 838 q 419 739 421 789 l 407 219 q 413 201 407 207 q 431 194 418 194 q 456 197 444 196 q 479 200 467 199 q 558 176 522 203 q 593 93 593 149 q 562 21 593 42 q 486 0 531 0 q 310 -3 392 0 q 133 -14 229 -7 z "},"2":{"ha":742,"x_min":4,"x_max":728,"o":"m 121 -14 q 40 20 69 -18 q 10 113 11 58 q 30 226 10 178 q 86 310 50 274 q 169 374 122 346 q 272 429 217 403 q 360 469 318 453 q 435 502 401 486 q 488 538 468 518 q 507 583 507 557 q 484 635 507 615 q 426 663 461 654 q 351 672 390 672 q 252 660 294 672 q 168 619 210 647 q 106 603 139 601 q 47 626 72 604 q 13 685 21 647 q 25 756 4 724 q 83 806 46 789 q 215 846 146 832 q 351 860 283 860 q 547 826 465 860 q 672 730 628 792 q 715 583 715 668 q 690 486 715 526 q 623 418 664 446 q 535 371 582 390 q 444 338 488 351 q 369 310 400 324 q 308 269 328 290 q 281 224 288 247 q 273 202 267 214 q 297 190 279 190 q 456 201 376 194 q 617 215 536 208 q 694 184 661 219 q 728 93 728 149 q 695 25 728 50 q 621 0 663 0 q 370 -1 494 0 q 121 -14 246 -3 z "},"3":{"ha":703,"x_min":7,"x_max":696,"o":"m 326 -119 q 201 -111 264 -119 q 83 -85 139 -103 q 31 -47 49 -74 q 13 24 13 -19 q 32 89 13 60 q 85 130 51 118 q 158 122 118 142 q 235 98 192 107 q 326 89 278 89 q 440 116 406 89 q 474 203 474 143 q 457 276 474 243 q 405 324 440 308 q 313 331 369 339 q 178 326 226 317 q 126 392 129 336 q 135 449 125 425 q 171 493 146 472 l 292 615 q 303 639 306 628 q 282 649 300 650 q 202 645 242 647 q 122 638 163 643 q 67 650 93 635 q 24 692 40 665 q 7 750 7 719 q 40 820 7 794 q 117 846 72 846 l 538 846 q 613 819 588 846 q 638 754 639 792 q 601 683 636 717 l 453 533 q 443 513 442 522 q 460 500 444 504 q 587 449 535 489 q 667 347 639 410 q 696 203 696 283 q 650 40 696 113 q 521 -76 604 -33 q 326 -119 438 -119 z "},"4":{"ha":803,"x_min":-3,"x_max":778,"o":"m 544 -119 q 484 -102 513 -119 q 438 -56 456 -85 q 421 4 421 -28 l 421 106 q 407 119 421 119 q 288 117 363 119 q 111 106 213 114 q 51 119 76 103 q 11 165 25 136 q -3 228 -3 194 q 6 281 -3 256 q 29 332 14 307 q 113 455 72 397 q 202 568 154 513 q 310 681 250 624 q 447 803 369 739 q 499 834 472 822 q 560 846 525 846 q 631 816 606 846 q 657 736 657 786 q 654 599 657 661 q 649 476 651 536 q 644 342 646 415 q 656 328 644 328 l 685 328 q 733 312 713 328 q 766 270 754 296 q 778 217 778 244 q 751 148 778 176 q 685 119 724 119 l 656 119 q 646 106 643 119 q 648 60 646 83 q 656 15 650 38 q 653 -50 665 -19 q 612 -100 640 -81 q 544 -119 583 -119 m 294 319 q 347 322 322 321 q 401 325 372 324 q 415 329 408 326 q 422 340 422 332 q 425 413 422 378 q 428 486 428 447 q 421 505 428 500 q 403 503 414 510 q 353 451 378 479 q 310 393 329 422 q 276 336 290 364 q 294 319 268 318 z "},"5":{"ha":767,"x_min":14,"x_max":760,"o":"m 390 -128 q 265 -119 326 -128 q 150 -93 203 -110 q 95 -51 113 -81 q 78 17 78 -21 q 98 81 78 53 q 150 119 118 108 q 221 113 182 129 q 293 88 257 96 q 390 81 329 81 q 476 99 444 81 q 523 149 508 117 q 538 224 538 182 q 499 330 538 292 q 376 368 461 368 q 289 364 328 368 q 214 351 250 360 q 119 365 156 339 q 83 439 83 392 l 83 633 q 78 651 83 644 q 64 665 74 658 q 27 701 40 676 q 14 758 14 725 q 46 826 14 799 q 138 854 78 854 q 353 858 253 854 q 567 881 454 861 q 631 873 597 886 q 688 831 664 860 q 711 758 711 803 q 695 701 711 728 q 651 659 679 675 q 585 646 622 643 q 458 650 519 650 q 332 649 396 650 q 306 625 306 647 l 306 554 q 324 535 307 532 q 349 537 336 535 q 374 539 361 539 q 577 511 490 547 q 712 402 664 475 q 760 224 760 329 q 714 40 760 119 q 585 -84 668 -40 q 390 -128 501 -128 z "},"6":{"ha":768,"x_min":14,"x_max":732,"o":"m 14 347 q 48 573 14 469 q 146 756 82 676 q 301 885 210 836 q 504 949 392 935 q 589 929 557 954 q 621 860 621 904 q 593 791 621 815 q 519 761 565 767 q 394 710 447 750 q 310 603 340 669 q 297 575 299 588 q 303 565 296 563 q 339 577 321 574 q 374 582 357 581 q 563 555 482 590 q 688 449 643 519 q 732 278 732 378 q 688 126 732 192 q 563 21 643 60 q 379 -26 483 -18 q 181 13 263 -35 q 57 148 100 61 q 14 347 14 235 m 242 283 q 282 202 253 233 q 374 175 311 171 q 477 216 444 179 q 510 303 510 253 q 476 390 510 357 q 376 424 443 424 q 322 419 349 424 q 278 406 296 414 q 250 388 260 397 q 236 342 236 369 q 242 283 236 315 z "},"7":{"ha":697,"x_min":4,"x_max":686,"o":"m 226 -119 q 144 -81 175 -119 q 119 13 114 -42 q 149 151 128 82 q 199 284 169 219 q 260 407 228 349 q 325 517 293 465 q 383 611 357 568 q 387 634 392 625 q 365 642 382 643 q 242 639 303 642 q 119 629 181 636 q 64 642 90 626 q 21 684 38 657 q 4 742 4 711 q 20 797 4 771 q 62 838 36 822 q 117 851 88 854 q 345 840 231 842 q 574 838 460 838 q 656 810 629 838 q 684 747 682 783 q 667 681 686 710 q 616 605 646 649 q 552 508 586 561 q 485 394 518 454 q 425 269 453 333 q 378 136 397 204 q 356 0 360 68 q 334 -60 353 -33 q 288 -103 315 -87 q 226 -119 260 -119 z "},"8":{"ha":736,"x_min":13,"x_max":724,"o":"m 47 694 q 88 825 47 767 q 200 918 128 883 q 368 953 272 953 q 535 918 464 953 q 647 825 607 883 q 688 694 688 767 q 664 599 688 646 q 594 519 640 553 q 583 503 583 511 q 594 485 583 494 q 688 391 651 446 q 724 269 724 336 q 678 119 724 186 q 554 13 633 51 q 368 -26 475 -26 q 182 13 263 -26 q 57 119 101 51 q 13 269 13 186 q 44 392 13 335 q 129 489 75 450 q 131 525 150 507 q 70 601 93 557 q 47 694 47 644 m 256 686 q 278 635 256 651 q 350 603 301 618 q 368 599 360 599 q 386 603 376 599 q 439 623 418 613 q 469 648 460 633 q 479 686 479 663 q 452 742 479 719 q 368 765 425 765 q 283 742 310 765 q 256 686 256 719 m 235 285 q 249 228 235 254 q 293 188 264 203 q 365 175 322 172 q 469 210 436 179 q 501 285 501 242 q 482 331 501 313 q 431 365 463 350 q 360 396 399 381 q 339 399 350 400 q 314 389 328 397 q 275 362 293 376 q 246 329 257 347 q 235 285 235 311 z "},"9":{"ha":768,"x_min":14,"x_max":732,"o":"m 732 486 q 698 260 732 365 q 599 72 664 154 q 444 -58 535 -10 q 239 -115 353 -107 q 155 -93 185 -118 q 125 -26 125 -68 q 153 49 125 15 q 229 86 181 83 q 341 108 297 90 q 413 156 385 126 q 454 222 440 185 q 457 235 461 231 q 444 238 453 240 q 412 227 431 231 q 372 222 393 224 q 183 261 264 219 q 58 379 103 303 q 14 556 14 456 q 58 710 14 642 q 183 820 103 779 q 369 860 264 861 q 565 813 485 860 q 689 682 646 765 q 732 486 732 599 m 504 550 q 463 628 493 601 q 367 658 433 654 q 268 628 300 663 q 236 542 236 593 q 269 453 236 482 q 369 424 301 424 q 426 427 400 424 q 472 436 453 431 q 496 449 490 442 q 510 488 507 465 q 504 550 514 511 z "},"A":{"ha":824,"x_min":0,"x_max":817,"o":"m 149 -21 q 82 -3 110 -21 q 43 44 54 14 q 44 113 32 75 q 49 133 46 121 q 56 154 53 144 q 53 167 57 164 q 49 169 51 168 q 44 172 47 171 q 22 188 32 179 q 6 213 13 197 q 0 258 0 229 l 0 261 q 12 312 0 290 q 42 345 24 333 q 76 357 60 357 l 100 357 q 125 383 117 357 q 165 514 146 454 q 204 629 185 574 q 247 742 224 685 q 294 865 269 799 q 425 953 328 953 q 553 865 519 953 q 648 613 603 738 q 733 365 693 489 q 803 113 772 242 q 789 17 817 54 q 706 -21 761 -21 q 617 10 653 -21 q 574 99 581 42 q 570 120 572 110 q 564 147 568 131 q 543 163 560 163 q 478 163 506 163 q 428 162 451 163 q 378 160 404 161 q 313 157 351 158 q 293 153 303 157 q 282 138 283 149 q 277 110 279 122 q 271 81 275 99 q 232 6 265 32 q 149 -21 199 -21 m 357 357 q 419 358 389 357 q 482 361 450 358 q 499 373 494 364 q 500 393 503 382 q 467 515 483 457 q 432 621 451 572 q 424 630 431 628 q 413 621 418 632 q 376 513 392 568 q 344 390 360 457 q 345 367 343 376 q 357 357 347 357 z "},"Á":{"ha":824,"x_min":0,"x_max":817,"o":"m 149 -21 q 82 -3 110 -21 q 43 44 54 14 q 44 113 32 75 q 49 133 46 121 q 56 154 53 144 q 53 167 57 164 q 49 169 51 168 q 44 172 47 171 q 22 188 32 179 q 6 213 13 197 q 0 258 0 229 l 0 261 q 12 312 0 290 q 42 345 24 333 q 76 357 60 357 l 100 357 q 125 383 117 357 q 165 514 146 454 q 204 629 185 574 q 247 742 224 685 q 294 865 269 799 q 425 953 328 953 q 553 865 519 953 q 648 613 603 738 q 733 365 693 489 q 803 113 772 242 q 789 17 817 54 q 706 -21 761 -21 q 617 10 653 -21 q 574 99 581 42 q 570 120 572 110 q 564 147 568 131 q 543 163 560 163 q 478 163 506 163 q 428 162 451 163 q 378 160 404 161 q 313 157 351 158 q 293 153 303 157 q 282 138 283 149 q 277 110 279 122 q 271 81 275 99 q 232 6 265 32 q 149 -21 199 -21 m 357 357 q 419 358 389 357 q 482 361 450 358 q 499 373 494 364 q 500 393 503 382 q 467 515 483 457 q 432 621 451 572 q 424 630 431 628 q 413 621 418 632 q 376 513 392 568 q 344 390 360 457 q 345 367 343 376 q 357 357 347 357 m 382 965 q 317 951 351 943 q 264 994 283 960 l 263 997 q 251 1058 244 1028 q 288 1108 258 1089 q 368 1161 329 1135 q 446 1222 407 1188 q 490 1243 465 1240 q 540 1235 515 1246 q 579 1201 564 1225 l 585 1193 q 599 1135 601 1169 q 579 1072 596 1100 q 533 1036 563 1044 q 449 1006 486 1025 q 382 965 411 988 z "},"Ă":{"ha":824,"x_min":0,"x_max":817,"o":"m 149 -21 q 82 -3 110 -21 q 43 44 54 14 q 44 113 32 75 q 49 133 46 121 q 56 154 53 144 q 53 167 57 164 q 49 169 51 168 q 44 172 47 171 q 22 188 32 179 q 6 213 13 197 q 0 258 0 229 l 0 261 q 12 312 0 290 q 42 345 24 333 q 76 357 60 357 l 100 357 q 125 383 117 357 q 165 514 146 454 q 204 629 185 574 q 247 742 224 685 q 294 865 269 799 q 425 953 328 953 q 553 865 519 953 q 648 613 603 738 q 733 365 693 489 q 803 113 772 242 q 789 17 817 54 q 706 -21 761 -21 q 617 10 653 -21 q 574 99 581 42 q 570 120 572 110 q 564 147 568 131 q 543 163 560 163 q 478 163 506 163 q 428 162 451 163 q 378 160 404 161 q 313 157 351 158 q 293 153 303 157 q 282 138 283 149 q 277 110 279 122 q 271 81 275 99 q 232 6 265 32 q 149 -21 199 -21 m 357 357 q 419 358 389 357 q 482 361 450 358 q 499 373 494 364 q 500 393 503 382 q 467 515 483 457 q 432 621 451 572 q 424 630 431 628 q 413 621 418 632 q 376 513 392 568 q 344 390 360 457 q 345 367 343 376 q 357 357 347 357 m 240 1229 q 294 1212 271 1229 q 328 1158 318 1194 q 361 1112 338 1129 q 417 1094 385 1094 q 459 1101 439 1094 q 492 1119 479 1107 q 506 1149 506 1131 q 532 1215 506 1186 q 594 1243 558 1243 l 596 1243 q 647 1228 624 1243 q 683 1189 669 1213 q 694 1138 697 1165 q 649 1024 689 1075 q 549 944 610 974 q 417 914 488 914 q 297 944 351 914 q 206 1023 243 974 q 154 1132 168 1072 q 172 1202 147 1175 q 239 1229 197 1229 l 240 1229 z "},"Ǎ":{"ha":824,"x_min":0,"x_max":817,"o":"m 149 -21 q 82 -3 110 -21 q 43 44 54 14 q 44 113 32 75 q 49 133 46 121 q 56 154 53 144 q 53 167 57 164 q 49 169 51 168 q 44 172 47 171 q 22 188 32 179 q 6 213 13 197 q 0 258 0 229 l 0 261 q 12 312 0 290 q 42 345 24 333 q 76 357 60 357 l 100 357 q 125 383 117 357 q 165 514 146 454 q 204 629 185 574 q 247 742 224 685 q 294 865 269 799 q 425 953 328 953 q 553 865 519 953 q 648 613 603 738 q 733 365 693 489 q 803 113 772 242 q 789 17 817 54 q 706 -21 761 -21 q 617 10 653 -21 q 574 99 581 42 q 570 120 572 110 q 564 147 568 131 q 543 163 560 163 q 478 163 506 163 q 428 162 451 163 q 378 160 404 161 q 313 157 351 158 q 293 153 303 157 q 282 138 283 149 q 277 110 279 122 q 271 81 275 99 q 232 6 265 32 q 149 -21 199 -21 m 357 357 q 419 358 389 357 q 482 361 450 358 q 499 373 494 364 q 500 393 503 382 q 467 515 483 457 q 432 621 451 572 q 424 630 431 628 q 413 621 418 632 q 376 513 392 568 q 344 390 360 457 q 345 367 343 376 q 357 357 347 357 m 683 1186 q 694 1148 694 1169 q 683 1106 693 1126 q 653 1075 672 1086 q 558 1016 597 1042 q 475 958 518 990 q 372 958 424 918 q 283 1029 326 993 q 197 1088 239 1065 q 160 1131 168 1103 q 167 1186 153 1160 l 168 1189 q 222 1236 189 1229 q 283 1224 254 1243 q 348 1182 318 1203 q 413 1139 378 1161 q 422 1135 418 1136 q 431 1139 425 1135 q 487 1188 463 1160 q 550 1238 511 1215 q 616 1242 579 1257 q 681 1189 653 1228 l 683 1186 z "},"Â":{"ha":824,"x_min":0,"x_max":817,"o":"m 149 -21 q 82 -3 110 -21 q 43 44 54 14 q 44 113 32 75 q 49 133 46 121 q 56 154 53 144 q 53 167 57 164 q 49 169 51 168 q 44 172 47 171 q 22 188 32 179 q 6 213 13 197 q 0 258 0 229 l 0 261 q 12 312 0 290 q 42 345 24 333 q 76 357 60 357 l 100 357 q 125 383 117 357 q 165 514 146 454 q 204 629 185 574 q 247 742 224 685 q 294 865 269 799 q 425 953 328 953 q 553 865 519 953 q 648 613 603 738 q 733 365 693 489 q 803 113 772 242 q 789 17 817 54 q 706 -21 761 -21 q 617 10 653 -21 q 574 99 581 42 q 570 120 572 110 q 564 147 568 131 q 543 163 560 163 q 478 163 506 163 q 428 162 451 163 q 378 160 404 161 q 313 157 351 158 q 293 153 303 157 q 282 138 283 149 q 277 110 279 122 q 271 81 275 99 q 232 6 265 32 q 149 -21 199 -21 m 357 357 q 419 358 389 357 q 482 361 450 358 q 499 373 494 364 q 500 393 503 382 q 467 515 483 457 q 432 621 451 572 q 424 630 431 628 q 413 621 418 632 q 376 513 392 568 q 344 390 360 457 q 345 367 343 376 q 357 357 347 357 m 664 1086 q 696 1037 694 1069 q 681 972 697 1004 l 679 971 q 643 933 667 944 q 594 922 619 921 q 550 936 569 924 q 492 977 515 957 q 439 1017 468 997 q 408 1017 424 1028 q 356 977 379 997 q 297 936 332 957 q 235 923 271 918 q 178 951 200 928 l 176 954 q 149 1019 149 985 q 183 1072 149 1054 q 247 1109 213 1088 q 315 1154 282 1131 q 369 1199 347 1178 q 422 1221 393 1221 q 475 1201 451 1221 q 569 1140 518 1169 q 664 1086 619 1110 z "},"Ä":{"ha":824,"x_min":0,"x_max":817,"o":"m 149 -21 q 82 -3 110 -21 q 43 44 54 14 q 44 113 32 75 q 49 133 46 121 q 56 154 53 144 q 53 167 57 164 q 49 169 51 168 q 44 172 47 171 q 22 188 32 179 q 6 213 13 197 q 0 258 0 229 l 0 261 q 12 312 0 290 q 42 345 24 333 q 76 357 60 357 l 100 357 q 125 383 117 357 q 165 514 146 454 q 204 629 185 574 q 247 742 224 685 q 294 865 269 799 q 425 953 328 953 q 553 865 519 953 q 648 613 603 738 q 733 365 693 489 q 803 113 772 242 q 789 17 817 54 q 706 -21 761 -21 q 617 10 653 -21 q 574 99 581 42 q 570 120 572 110 q 564 147 568 131 q 543 163 560 163 q 478 163 506 163 q 428 162 451 163 q 378 160 404 161 q 313 157 351 158 q 293 153 303 157 q 282 138 283 149 q 277 110 279 122 q 271 81 275 99 q 232 6 265 32 q 149 -21 199 -21 m 357 357 q 419 358 389 357 q 482 361 450 358 q 499 373 494 364 q 500 393 503 382 q 467 515 483 457 q 432 621 451 572 q 424 630 431 628 q 413 621 418 632 q 376 513 392 568 q 344 390 360 457 q 345 367 343 376 q 357 357 347 357 m 285 969 q 199 1003 233 969 q 165 1088 165 1036 q 199 1172 165 1138 q 285 1206 233 1206 q 367 1172 333 1206 q 401 1088 401 1138 q 367 1003 401 1036 q 285 969 333 969 m 564 983 q 478 1017 513 983 q 444 1101 444 1050 q 478 1185 444 1151 q 564 1219 513 1219 q 647 1185 613 1219 q 681 1101 681 1151 q 647 1017 681 1050 q 564 983 613 983 z "},"À":{"ha":824,"x_min":0,"x_max":817,"o":"m 149 -21 q 82 -3 110 -21 q 43 44 54 14 q 44 113 32 75 q 49 133 46 121 q 56 154 53 144 q 53 167 57 164 q 49 169 51 168 q 44 172 47 171 q 22 188 32 179 q 6 213 13 197 q 0 258 0 229 l 0 261 q 12 312 0 290 q 42 345 24 333 q 76 357 60 357 l 100 357 q 125 383 117 357 q 165 514 146 454 q 204 629 185 574 q 247 742 224 685 q 294 865 269 799 q 425 953 328 953 q 553 865 519 953 q 648 613 603 738 q 733 365 693 489 q 803 113 772 242 q 789 17 817 54 q 706 -21 761 -21 q 617 10 653 -21 q 574 99 581 42 q 570 120 572 110 q 564 147 568 131 q 543 163 560 163 q 478 163 506 163 q 428 162 451 163 q 378 160 404 161 q 313 157 351 158 q 293 153 303 157 q 282 138 283 149 q 277 110 279 122 q 271 81 275 99 q 232 6 265 32 q 149 -21 199 -21 m 357 357 q 419 358 389 357 q 482 361 450 358 q 499 373 494 364 q 500 393 503 382 q 467 515 483 457 q 432 621 451 572 q 424 630 431 628 q 413 621 418 632 q 376 513 392 568 q 344 390 360 457 q 345 367 343 376 q 357 357 347 357 m 551 1110 q 599 1051 583 1090 q 594 981 614 1013 l 593 978 q 536 940 575 943 q 460 958 497 938 q 383 1002 421 982 q 306 1035 344 1022 q 265 1069 278 1046 q 253 1120 253 1092 q 267 1172 254 1149 l 274 1183 q 333 1235 297 1221 q 399 1221 369 1250 q 480 1157 447 1178 q 551 1110 513 1136 z "},"Ā":{"ha":824,"x_min":0,"x_max":817,"o":"m 149 -21 q 82 -3 110 -21 q 43 44 54 14 q 44 113 32 75 q 49 133 46 121 q 56 154 53 144 q 53 167 57 164 q 49 169 51 168 q 44 172 47 171 q 22 188 32 179 q 6 213 13 197 q 0 258 0 229 l 0 261 q 12 312 0 290 q 42 345 24 333 q 76 357 60 357 l 100 357 q 125 383 117 357 q 165 514 146 454 q 204 629 185 574 q 247 742 224 685 q 294 865 269 799 q 425 953 328 953 q 553 865 519 953 q 648 613 603 738 q 733 365 693 489 q 803 113 772 242 q 789 17 817 54 q 706 -21 761 -21 q 617 10 653 -21 q 574 99 581 42 q 570 120 572 110 q 564 147 568 131 q 543 163 560 163 q 478 163 506 163 q 428 162 451 163 q 378 160 404 161 q 313 157 351 158 q 293 153 303 157 q 282 138 283 149 q 277 110 279 122 q 271 81 275 99 q 232 6 265 32 q 149 -21 199 -21 m 357 357 q 419 358 389 357 q 482 361 450 358 q 499 373 494 364 q 500 393 503 382 q 467 515 483 457 q 432 621 451 572 q 424 630 431 628 q 413 621 418 632 q 376 513 392 568 q 344 390 360 457 q 345 367 343 376 q 357 357 347 357 m 757 1100 q 742 1051 757 1075 q 703 1012 726 1026 q 654 1000 681 997 q 194 1000 424 1021 q 130 1028 156 996 q 104 1100 104 1060 l 104 1101 q 128 1164 104 1140 q 190 1188 151 1188 q 423 1190 307 1188 q 654 1201 539 1192 q 703 1190 681 1204 q 742 1151 726 1175 q 757 1101 757 1128 l 757 1100 z "},"Ą":{"ha":824,"x_min":0,"x_max":817,"o":"m 149 -21 q 82 -3 110 -21 q 43 44 54 14 q 44 113 32 75 q 49 133 46 121 q 56 154 53 144 q 53 167 57 164 q 49 169 51 168 q 44 172 47 171 q 22 188 32 179 q 6 213 13 197 q 0 258 0 229 l 0 261 q 12 312 0 290 q 42 345 24 333 q 76 357 60 357 l 100 357 q 125 383 117 357 q 165 514 146 454 q 204 629 185 574 q 247 742 224 685 q 294 865 269 799 q 425 953 328 953 q 553 865 519 953 q 648 613 603 738 q 733 365 693 489 q 803 113 772 242 q 789 17 817 54 q 706 -21 761 -21 q 617 10 653 -21 q 574 99 581 42 q 570 120 572 110 q 564 147 568 131 q 543 163 560 163 q 478 163 506 163 q 428 162 451 163 q 378 160 404 161 q 313 157 351 158 q 293 153 303 157 q 282 138 283 149 q 277 110 279 122 q 271 81 275 99 q 232 6 265 32 q 149 -21 199 -21 m 357 357 q 419 358 389 357 q 482 361 450 358 q 499 373 494 364 q 500 393 503 382 q 467 515 483 457 q 432 621 451 572 q 424 630 431 628 q 413 621 418 632 q 376 513 392 568 q 344 390 360 457 q 345 367 343 376 q 357 357 347 357 m 696 -250 q 610 -226 649 -250 q 551 -160 571 -201 q 542 -68 531 -119 q 567 -13 549 -35 q 609 22 586 8 q 651 39 632 35 l 706 50 l 729 15 q 716 8 729 15 q 690 -12 703 1 q 676 -49 676 -25 q 685 -69 676 -62 q 708 -78 694 -76 q 736 -81 722 -81 q 787 -97 764 -81 q 810 -147 810 -114 q 774 -225 810 -200 q 696 -250 738 -250 z "},"Å":{"ha":824,"x_min":0,"x_max":817,"o":"m 149 -21 q 82 -3 110 -21 q 43 44 54 14 q 44 113 32 75 q 49 133 46 121 q 56 154 53 144 q 53 167 57 164 q 49 169 51 168 q 44 172 47 171 q 22 188 32 179 q 6 213 13 197 q 0 258 0 229 l 0 261 q 12 312 0 290 q 42 345 24 333 q 76 357 60 357 l 100 357 q 125 383 117 357 q 165 514 146 454 q 204 629 185 574 q 247 742 224 685 q 294 865 269 799 q 425 953 328 953 q 553 865 519 953 q 648 613 603 738 q 733 365 693 489 q 803 113 772 242 q 789 17 817 54 q 706 -21 761 -21 q 617 10 653 -21 q 574 99 581 42 q 570 120 572 110 q 564 147 568 131 q 543 163 560 163 q 478 163 506 163 q 428 162 451 163 q 378 160 404 161 q 313 157 351 158 q 293 153 303 157 q 282 138 283 149 q 277 110 279 122 q 271 81 275 99 q 232 6 265 32 q 149 -21 199 -21 m 357 357 q 419 358 389 357 q 482 361 450 358 q 499 373 494 364 q 500 393 503 382 q 467 515 483 457 q 432 621 451 572 q 424 630 431 628 q 413 621 418 632 q 376 513 392 568 q 344 390 360 457 q 345 367 343 376 q 357 357 347 357 m 246 1057 q 270 1147 246 1107 q 335 1210 294 1186 q 424 1233 375 1233 q 513 1210 472 1233 q 576 1147 553 1186 q 600 1057 600 1107 q 581 968 600 1011 q 524 898 563 925 q 424 871 485 871 q 335 897 375 871 q 270 967 294 924 q 246 1057 246 1010 m 375 1056 q 390 1022 375 1038 q 424 1007 406 1007 q 458 1022 443 1007 q 472 1056 472 1038 q 458 1090 472 1075 q 424 1104 443 1104 q 390 1090 406 1104 q 375 1056 375 1075 z "},"Ã":{"ha":824,"x_min":0,"x_max":817,"o":"m 149 -21 q 82 -3 110 -21 q 43 44 54 14 q 44 113 32 75 q 49 133 46 121 q 56 154 53 144 q 53 167 57 164 q 49 169 51 168 q 44 172 47 171 q 22 188 32 179 q 6 213 13 197 q 0 258 0 229 l 0 261 q 12 312 0 290 q 42 345 24 333 q 76 357 60 357 l 100 357 q 125 383 117 357 q 165 514 146 454 q 204 629 185 574 q 247 742 224 685 q 294 865 269 799 q 425 953 328 953 q 553 865 519 953 q 648 613 603 738 q 733 365 693 489 q 803 113 772 242 q 789 17 817 54 q 706 -21 761 -21 q 617 10 653 -21 q 574 99 581 42 q 570 120 572 110 q 564 147 568 131 q 543 163 560 163 q 478 163 506 163 q 428 162 451 163 q 378 160 404 161 q 313 157 351 158 q 293 153 303 157 q 282 138 283 149 q 277 110 279 122 q 271 81 275 99 q 232 6 265 32 q 149 -21 199 -21 m 357 357 q 419 358 389 357 q 482 361 450 358 q 499 373 494 364 q 500 393 503 382 q 467 515 483 457 q 432 621 451 572 q 424 630 431 628 q 413 621 418 632 q 376 513 392 568 q 344 390 360 457 q 345 367 343 376 q 357 357 347 357 m 169 1017 q 150 1067 150 1039 q 171 1118 150 1096 q 211 1153 188 1135 q 265 1187 235 1172 q 329 1201 296 1201 q 397 1187 372 1201 q 438 1153 422 1172 q 472 1122 454 1135 q 515 1111 489 1108 q 540 1126 528 1113 q 565 1147 553 1139 q 622 1165 589 1165 q 676 1144 654 1165 l 683 1139 q 708 1097 701 1124 q 710 1044 714 1071 q 689 1001 706 1018 q 610 954 660 975 q 515 933 560 933 q 444 947 471 933 q 399 978 417 961 q 367 1010 381 996 q 333 1024 353 1024 q 305 1016 318 1024 q 278 999 292 1008 q 224 983 253 981 q 175 1010 196 986 l 169 1017 z "},"Æ":{"ha":1213,"x_min":-6,"x_max":1188,"o":"m 94 -21 q 32 -3 57 -21 q 1 45 7 15 q 11 110 -6 75 q 141 372 72 246 q 286 624 210 497 q 444 886 363 750 q 554 947 481 947 l 1085 947 q 1155 921 1129 947 q 1181 849 1181 894 q 1153 769 1181 803 q 1079 739 1125 735 q 981 749 1028 746 q 888 752 935 751 q 785 753 840 753 q 766 744 771 753 q 761 722 761 736 q 763 678 763 700 q 765 633 764 656 q 765 588 765 610 q 774 565 765 571 q 793 560 782 558 q 901 569 849 565 q 1015 582 953 572 q 1069 572 1047 588 q 1105 531 1092 557 q 1118 471 1118 504 q 1092 401 1118 426 q 1022 375 1067 375 q 901 372 956 375 q 800 364 846 369 q 778 356 786 363 q 768 336 769 350 q 766 271 768 306 q 760 197 764 236 q 765 178 758 182 q 785 174 771 174 q 890 174 843 174 q 984 178 938 175 q 1086 188 1031 182 q 1160 158 1132 193 q 1188 75 1188 122 q 1162 5 1188 31 q 1092 -21 1136 -21 l 644 -21 q 565 7 599 -21 q 535 81 531 35 q 538 125 536 103 q 543 169 540 147 q 529 183 546 183 l 279 183 q 264 172 268 183 q 239 112 251 142 q 214 53 226 82 q 104 -21 182 -21 l 94 -21 m 375 378 l 540 378 q 554 392 554 378 q 555 536 557 464 q 549 682 553 608 q 542 693 549 692 q 531 685 536 694 q 444 540 485 613 q 365 394 403 467 q 365 383 363 388 q 375 378 368 378 z "},"B":{"ha":825,"x_min":14,"x_max":819,"o":"m 213 -12 q 151 1 181 -12 q 103 41 121 15 q 89 100 86 67 q 94 233 92 163 q 99 376 97 304 q 101 517 100 449 q 100 643 101 585 q 96 743 99 701 q 85 756 96 753 q 62 761 75 758 q 37 776 49 764 q 19 819 25 789 q 33 885 14 854 q 103 926 53 917 q 189 937 138 933 q 300 942 240 940 q 415 944 360 944 q 690 865 590 944 q 790 643 790 786 q 776 565 790 597 q 731 511 761 533 q 717 478 717 493 q 732 444 717 463 q 788 385 769 421 q 811 296 807 349 q 772 128 819 197 q 631 24 724 60 q 415 -12 539 -12 l 213 -12 m 381 182 l 458 182 q 553 207 517 183 q 590 283 590 231 q 557 360 590 333 q 451 389 524 388 l 369 390 q 337 378 349 390 q 325 343 325 365 l 325 217 q 334 192 325 200 q 356 183 343 185 q 381 182 369 182 m 369 554 l 436 554 q 536 581 503 554 q 569 657 569 608 q 533 736 569 714 q 438 758 496 758 l 353 758 q 324 747 328 758 q 319 719 319 735 q 322 651 319 678 q 324 590 324 625 q 335 561 322 568 q 369 554 349 554 z "},"C":{"ha":671,"x_min":14,"x_max":678,"o":"m 389 -26 q 228 8 299 -26 q 111 102 158 42 q 39 241 64 163 q 14 410 14 319 l 14 482 q 38 655 14 571 q 110 806 63 739 q 228 913 158 874 q 389 953 297 953 q 589 899 506 953 q 637 828 631 869 q 607 751 643 788 q 540 716 579 724 q 464 728 500 708 q 425 749 443 739 q 389 758 407 758 q 303 721 338 758 q 253 621 269 683 q 236 482 236 558 l 236 410 q 272 240 236 299 q 389 182 308 182 q 456 194 422 182 q 526 218 490 206 q 600 211 564 229 q 658 144 636 193 q 660 66 678 101 q 601 14 643 31 q 496 -16 551 -6 q 389 -26 440 -26 z "},"Ć":{"ha":671,"x_min":14,"x_max":678,"o":"m 389 -26 q 228 8 299 -26 q 111 102 158 42 q 39 241 64 163 q 14 410 14 319 l 14 482 q 38 655 14 571 q 110 806 63 739 q 228 913 158 874 q 389 953 297 953 q 589 899 506 953 q 637 828 631 869 q 607 751 643 788 q 540 716 579 724 q 464 728 500 708 q 425 749 443 739 q 389 758 407 758 q 303 721 338 758 q 253 621 269 683 q 236 482 236 558 l 236 410 q 272 240 236 299 q 389 182 308 182 q 456 194 422 182 q 526 218 490 206 q 600 211 564 229 q 658 144 636 193 q 660 66 678 101 q 601 14 643 31 q 496 -16 551 -6 q 389 -26 440 -26 m 347 965 q 283 951 317 943 q 229 994 249 960 l 228 997 q 217 1058 210 1028 q 253 1108 224 1089 q 333 1161 294 1135 q 411 1222 372 1188 q 456 1243 431 1240 q 505 1235 481 1246 q 544 1201 529 1225 l 550 1193 q 564 1135 567 1169 q 544 1072 561 1100 q 499 1036 528 1044 q 414 1006 451 1025 q 347 965 376 988 z "},"Č":{"ha":671,"x_min":14,"x_max":678,"o":"m 389 -26 q 228 8 299 -26 q 111 102 158 42 q 39 241 64 163 q 14 410 14 319 l 14 482 q 38 655 14 571 q 110 806 63 739 q 228 913 158 874 q 389 953 297 953 q 589 899 506 953 q 637 828 631 869 q 607 751 643 788 q 540 716 579 724 q 464 728 500 708 q 425 749 443 739 q 389 758 407 758 q 303 721 338 758 q 253 621 269 683 q 236 482 236 558 l 236 410 q 272 240 236 299 q 389 182 308 182 q 456 194 422 182 q 526 218 490 206 q 600 211 564 229 q 658 144 636 193 q 660 66 678 101 q 601 14 643 31 q 496 -16 551 -6 q 389 -26 440 -26 m 649 1186 q 659 1148 660 1169 q 648 1106 658 1126 q 618 1075 638 1086 q 523 1016 563 1042 q 440 958 483 990 q 338 958 389 918 q 248 1029 292 993 q 163 1088 204 1065 q 126 1131 133 1103 q 132 1186 118 1160 l 133 1189 q 187 1236 154 1229 q 249 1224 219 1243 q 313 1182 283 1203 q 378 1139 343 1161 q 387 1135 383 1136 q 396 1139 390 1135 q 452 1188 428 1160 q 515 1238 476 1215 q 581 1242 544 1257 q 646 1189 618 1228 l 649 1186 z "},"Ç":{"ha":671,"x_min":14,"x_max":678,"o":"m 389 -26 q 228 8 299 -26 q 111 102 158 42 q 39 241 64 163 q 14 410 14 319 l 14 482 q 38 655 14 571 q 110 806 63 739 q 228 913 158 874 q 389 953 297 953 q 589 899 506 953 q 637 828 631 869 q 607 751 643 788 q 540 716 579 724 q 464 728 500 708 q 425 749 443 739 q 389 758 407 758 q 303 721 338 758 q 253 621 269 683 q 236 482 236 558 l 236 410 q 272 240 236 299 q 389 182 308 182 q 456 194 422 182 q 526 218 490 206 q 600 211 564 229 q 658 144 636 193 q 660 66 678 101 q 601 14 643 31 q 496 -16 551 -6 q 389 -26 440 -26 m 382 -294 q 348 -292 365 -294 q 314 -283 331 -289 q 275 -250 285 -271 q 268 -203 265 -229 l 268 -201 q 324 -156 272 -153 q 351 -160 339 -157 q 376 -162 363 -162 q 410 -140 410 -162 q 399 -123 410 -126 q 361 -119 388 -119 q 324 -115 342 -119 q 295 -99 306 -111 q 288 -67 285 -87 l 304 28 l 460 28 l 444 -43 q 488 -53 468 -44 q 520 -81 508 -62 q 532 -125 532 -99 q 514 -207 532 -168 q 463 -270 496 -246 q 382 -294 429 -294 z "},"Ċ":{"ha":671,"x_min":14,"x_max":678,"o":"m 389 -26 q 228 8 299 -26 q 111 102 158 42 q 39 241 64 163 q 14 410 14 319 l 14 482 q 38 655 14 571 q 110 806 63 739 q 228 913 158 874 q 389 953 297 953 q 589 899 506 953 q 637 828 631 869 q 607 751 643 788 q 540 716 579 724 q 464 728 500 708 q 425 749 443 739 q 389 758 407 758 q 303 721 338 758 q 253 621 269 683 q 236 482 236 558 l 236 410 q 272 240 236 299 q 389 182 308 182 q 456 194 422 182 q 526 218 490 206 q 600 211 564 229 q 658 144 636 193 q 660 66 678 101 q 601 14 643 31 q 496 -16 551 -6 q 389 -26 440 -26 m 272 1090 q 307 1174 272 1140 q 389 1207 342 1207 q 472 1174 439 1207 q 506 1090 506 1140 q 472 1008 506 1043 q 389 974 439 974 q 307 1008 342 974 q 272 1090 272 1043 z "},"D":{"ha":844,"x_min":13,"x_max":831,"o":"m 211 -21 q 149 -7 179 -21 q 103 33 119 7 q 88 92 86 58 q 97 314 94 210 q 99 521 100 418 q 92 738 97 624 q 81 759 90 753 q 60 769 72 765 q 36 785 47 774 q 19 822 25 797 q 30 880 13 858 q 78 915 47 901 q 142 935 110 928 q 213 945 172 942 q 313 951 254 949 q 456 953 372 953 q 733 835 635 953 q 831 482 831 717 q 778 215 831 328 q 633 40 725 101 q 421 -21 540 -21 l 211 -21 m 307 213 q 312 194 306 201 q 328 188 318 188 l 421 188 q 520 218 478 188 q 585 313 563 249 q 608 482 608 378 q 594 644 608 588 q 545 724 579 701 q 456 746 511 746 l 340 746 q 317 735 324 746 q 311 703 311 724 q 311 658 311 683 q 315 528 314 600 q 315 375 315 456 q 307 213 314 294 z "},"Ď":{"ha":844,"x_min":13,"x_max":831,"o":"m 211 -21 q 149 -7 179 -21 q 103 33 119 7 q 88 92 86 58 q 97 314 94 210 q 99 521 100 418 q 92 738 97 624 q 81 759 90 753 q 60 769 72 765 q 36 785 47 774 q 19 822 25 797 q 30 880 13 858 q 78 915 47 901 q 142 935 110 928 q 213 945 172 942 q 313 951 254 949 q 456 953 372 953 q 733 835 635 953 q 831 482 831 717 q 778 215 831 328 q 633 40 725 101 q 421 -21 540 -21 l 211 -21 m 307 213 q 312 194 306 201 q 328 188 318 188 l 421 188 q 520 218 478 188 q 585 313 563 249 q 608 482 608 378 q 594 644 608 588 q 545 724 579 701 q 456 746 511 746 l 340 746 q 317 735 324 746 q 311 703 311 724 q 311 658 311 683 q 315 528 314 600 q 315 375 315 456 q 307 213 314 294 m 675 1186 q 685 1148 686 1169 q 674 1106 685 1126 q 644 1075 664 1086 q 549 1016 589 1042 q 467 958 510 990 q 364 958 415 918 q 274 1029 318 993 q 189 1088 231 1065 q 152 1131 160 1103 q 158 1186 144 1160 l 160 1189 q 213 1236 181 1229 q 275 1224 246 1243 q 340 1182 310 1203 q 404 1139 369 1161 q 413 1135 410 1136 q 422 1139 417 1135 q 478 1188 454 1160 q 542 1238 503 1215 q 608 1242 571 1257 q 672 1189 644 1228 l 675 1186 z "},"Đ":{"ha":790,"x_min":-65,"x_max":776,"o":"m -65 474 q -40 544 -65 518 q 31 569 -14 569 q 172 571 103 569 q 311 582 242 572 q 368 572 342 588 q 411 531 394 557 q 428 474 428 504 l 428 471 q 411 417 428 440 q 368 383 394 394 q 311 376 342 371 q 174 379 243 386 q 38 363 106 372 q -16 372 7 357 q -52 414 -39 388 q -65 471 -65 440 l -65 474 m 157 -21 q 94 -7 124 -21 q 48 33 65 7 q 33 92 31 58 q 42 314 40 210 q 43 521 44 418 q 36 738 42 624 q 27 759 36 753 q 6 769 18 765 q -19 785 -7 774 q -36 822 -31 797 q -25 880 -42 858 q 23 915 -8 901 q 88 935 54 928 q 158 945 117 942 q 258 951 200 949 q 401 953 317 953 q 678 835 579 953 q 776 482 776 717 q 724 215 776 328 q 578 40 671 101 q 367 -21 486 -21 l 157 -21 m 253 213 q 257 194 251 201 q 274 188 263 188 l 367 188 q 465 218 422 188 q 531 313 507 249 q 554 482 554 378 q 539 644 554 588 q 490 724 524 701 q 401 746 457 746 l 286 746 q 262 735 268 746 q 256 703 256 724 q 257 658 257 683 q 260 528 260 600 q 260 375 261 456 q 253 213 258 294 z "},"Ð":{"ha":790,"x_min":-65,"x_max":776,"o":"m -65 474 q -40 544 -65 518 q 31 569 -14 569 q 172 571 103 569 q 311 582 242 572 q 368 572 342 588 q 411 531 394 557 q 428 474 428 504 l 428 471 q 411 417 428 440 q 368 383 394 394 q 311 376 342 371 q 174 379 243 386 q 38 363 106 372 q -16 372 7 357 q -52 414 -39 388 q -65 471 -65 440 l -65 474 m 157 -21 q 94 -7 124 -21 q 48 33 65 7 q 33 92 31 58 q 42 314 40 210 q 43 521 44 418 q 36 738 42 624 q 27 759 36 753 q 6 769 18 765 q -19 785 -7 774 q -36 822 -31 797 q -25 880 -42 858 q 23 915 -8 901 q 88 935 54 928 q 158 945 117 942 q 258 951 200 949 q 401 953 317 953 q 678 835 579 953 q 776 482 776 717 q 724 215 776 328 q 578 40 671 101 q 367 -21 486 -21 l 157 -21 m 253 213 q 257 194 251 201 q 274 188 263 188 l 367 188 q 465 218 422 188 q 531 313 507 249 q 554 482 554 378 q 539 644 554 588 q 490 724 524 701 q 401 746 457 746 l 286 746 q 262 735 268 746 q 256 703 256 724 q 257 658 257 683 q 260 528 260 600 q 260 375 261 456 q 253 213 258 294 z "},"E":{"ha":726,"x_min":44,"x_max":701,"o":"m 694 849 q 667 769 694 803 q 593 739 639 735 q 495 749 542 746 q 401 752 449 751 q 299 753 354 753 q 280 744 285 753 q 275 722 275 736 q 278 651 278 685 q 279 588 279 617 q 288 565 279 571 q 307 560 296 558 q 415 569 363 565 q 529 582 467 572 q 583 572 561 588 q 619 531 606 557 q 632 471 632 504 q 606 401 632 426 q 536 375 581 375 q 415 372 469 375 q 314 364 360 369 q 292 356 300 363 q 282 336 283 350 q 280 271 282 306 q 274 197 278 236 q 281 178 272 183 q 303 174 289 174 q 407 174 361 174 q 499 178 453 175 q 600 188 544 182 q 674 158 646 193 q 701 75 701 122 q 676 5 701 31 q 606 -21 650 -21 l 158 -21 q 78 7 113 -21 q 49 81 44 35 q 67 340 63 215 q 67 588 72 464 q 49 846 63 711 q 78 919 44 892 q 158 947 113 947 l 599 947 q 669 921 643 947 q 694 849 694 894 z "},"É":{"ha":726,"x_min":44,"x_max":701,"o":"m 694 849 q 667 769 694 803 q 593 739 639 735 q 495 749 542 746 q 401 752 449 751 q 299 753 354 753 q 280 744 285 753 q 275 722 275 736 q 278 651 278 685 q 279 588 279 617 q 288 565 279 571 q 307 560 296 558 q 415 569 363 565 q 529 582 467 572 q 583 572 561 588 q 619 531 606 557 q 632 471 632 504 q 606 401 632 426 q 536 375 581 375 q 415 372 469 375 q 314 364 360 369 q 292 356 300 363 q 282 336 283 350 q 280 271 282 306 q 274 197 278 236 q 281 178 272 183 q 303 174 289 174 q 407 174 361 174 q 499 178 453 175 q 600 188 544 182 q 674 158 646 193 q 701 75 701 122 q 676 5 701 31 q 606 -21 650 -21 l 158 -21 q 78 7 113 -21 q 49 81 44 35 q 67 340 63 215 q 67 588 72 464 q 49 846 63 711 q 78 919 44 892 q 158 947 113 947 l 599 947 q 669 921 643 947 q 694 849 694 894 m 319 965 q 255 951 289 943 q 201 994 221 960 l 200 997 q 189 1058 182 1028 q 225 1108 196 1089 q 306 1161 267 1135 q 383 1222 344 1188 q 428 1243 403 1240 q 477 1235 453 1246 q 517 1201 501 1225 l 522 1193 q 536 1135 539 1169 q 517 1072 533 1100 q 471 1036 500 1044 q 386 1006 424 1025 q 319 965 349 988 z "},"Ě":{"ha":726,"x_min":44,"x_max":701,"o":"m 694 849 q 667 769 694 803 q 593 739 639 735 q 495 749 542 746 q 401 752 449 751 q 299 753 354 753 q 280 744 285 753 q 275 722 275 736 q 278 651 278 685 q 279 588 279 617 q 288 565 279 571 q 307 560 296 558 q 415 569 363 565 q 529 582 467 572 q 583 572 561 588 q 619 531 606 557 q 632 471 632 504 q 606 401 632 426 q 536 375 581 375 q 415 372 469 375 q 314 364 360 369 q 292 356 300 363 q 282 336 283 350 q 280 271 282 306 q 274 197 278 236 q 281 178 272 183 q 303 174 289 174 q 407 174 361 174 q 499 178 453 175 q 600 188 544 182 q 674 158 646 193 q 701 75 701 122 q 676 5 701 31 q 606 -21 650 -21 l 158 -21 q 78 7 113 -21 q 49 81 44 35 q 67 340 63 215 q 67 588 72 464 q 49 846 63 711 q 78 919 44 892 q 158 947 113 947 l 599 947 q 669 921 643 947 q 694 849 694 894 m 621 1186 q 631 1148 632 1169 q 620 1106 631 1126 q 590 1075 610 1086 q 495 1016 535 1042 q 413 958 456 990 q 310 958 361 918 q 220 1029 264 993 q 135 1088 176 1065 q 98 1131 106 1103 q 104 1186 90 1160 l 106 1189 q 159 1236 126 1229 q 221 1224 192 1243 q 285 1182 256 1203 q 350 1139 315 1161 q 359 1135 356 1136 q 368 1139 363 1135 q 424 1188 400 1160 q 488 1238 449 1215 q 553 1242 517 1257 q 618 1189 590 1228 l 621 1186 z "},"Ê":{"ha":726,"x_min":44,"x_max":701,"o":"m 694 849 q 667 769 694 803 q 593 739 639 735 q 495 749 542 746 q 401 752 449 751 q 299 753 354 753 q 280 744 285 753 q 275 722 275 736 q 278 651 278 685 q 279 588 279 617 q 288 565 279 571 q 307 560 296 558 q 415 569 363 565 q 529 582 467 572 q 583 572 561 588 q 619 531 606 557 q 632 471 632 504 q 606 401 632 426 q 536 375 581 375 q 415 372 469 375 q 314 364 360 369 q 292 356 300 363 q 282 336 283 350 q 280 271 282 306 q 274 197 278 236 q 281 178 272 183 q 303 174 289 174 q 407 174 361 174 q 499 178 453 175 q 600 188 544 182 q 674 158 646 193 q 701 75 701 122 q 676 5 701 31 q 606 -21 650 -21 l 158 -21 q 78 7 113 -21 q 49 81 44 35 q 67 340 63 215 q 67 588 72 464 q 49 846 63 711 q 78 919 44 892 q 158 947 113 947 l 599 947 q 669 921 643 947 q 694 849 694 894 m 601 1086 q 633 1037 632 1069 q 618 972 635 1004 l 617 971 q 581 933 604 944 q 532 922 557 921 q 488 936 507 924 q 429 977 453 957 q 376 1017 406 997 q 346 1017 361 1028 q 293 977 317 997 q 235 936 269 957 q 173 923 208 918 q 115 951 138 928 l 114 954 q 86 1019 86 985 q 121 1072 86 1054 q 185 1109 150 1088 q 252 1154 219 1131 q 307 1199 285 1178 q 360 1221 331 1221 q 413 1201 389 1221 q 506 1140 456 1169 q 601 1086 557 1110 z "},"Ë":{"ha":726,"x_min":44,"x_max":701,"o":"m 694 849 q 667 769 694 803 q 593 739 639 735 q 495 749 542 746 q 401 752 449 751 q 299 753 354 753 q 280 744 285 753 q 275 722 275 736 q 278 651 278 685 q 279 588 279 617 q 288 565 279 571 q 307 560 296 558 q 415 569 363 565 q 529 582 467 572 q 583 572 561 588 q 619 531 606 557 q 632 471 632 504 q 606 401 632 426 q 536 375 581 375 q 415 372 469 375 q 314 364 360 369 q 292 356 300 363 q 282 336 283 350 q 280 271 282 306 q 274 197 278 236 q 281 178 272 183 q 303 174 289 174 q 407 174 361 174 q 499 178 453 175 q 600 188 544 182 q 674 158 646 193 q 701 75 701 122 q 676 5 701 31 q 606 -21 650 -21 l 158 -21 q 78 7 113 -21 q 49 81 44 35 q 67 340 63 215 q 67 588 72 464 q 49 846 63 711 q 78 919 44 892 q 158 947 113 947 l 599 947 q 669 921 643 947 q 694 849 694 894 m 222 969 q 137 1003 171 969 q 103 1088 103 1036 q 137 1172 103 1138 q 222 1206 171 1206 q 305 1172 271 1206 q 339 1088 339 1138 q 305 1003 339 1036 q 222 969 271 969 m 501 983 q 416 1017 450 983 q 382 1101 382 1050 q 416 1185 382 1151 q 501 1219 450 1219 q 584 1185 550 1219 q 618 1101 618 1151 q 584 1017 618 1050 q 501 983 550 983 z "},"Ė":{"ha":726,"x_min":44,"x_max":701,"o":"m 694 849 q 667 769 694 803 q 593 739 639 735 q 495 749 542 746 q 401 752 449 751 q 299 753 354 753 q 280 744 285 753 q 275 722 275 736 q 278 651 278 685 q 279 588 279 617 q 288 565 279 571 q 307 560 296 558 q 415 569 363 565 q 529 582 467 572 q 583 572 561 588 q 619 531 606 557 q 632 471 632 504 q 606 401 632 426 q 536 375 581 375 q 415 372 469 375 q 314 364 360 369 q 292 356 300 363 q 282 336 283 350 q 280 271 282 306 q 274 197 278 236 q 281 178 272 183 q 303 174 289 174 q 407 174 361 174 q 499 178 453 175 q 600 188 544 182 q 674 158 646 193 q 701 75 701 122 q 676 5 701 31 q 606 -21 650 -21 l 158 -21 q 78 7 113 -21 q 49 81 44 35 q 67 340 63 215 q 67 588 72 464 q 49 846 63 711 q 78 919 44 892 q 158 947 113 947 l 599 947 q 669 921 643 947 q 694 849 694 894 m 244 1090 q 279 1174 244 1140 q 361 1207 314 1207 q 444 1174 411 1207 q 478 1090 478 1140 q 444 1008 478 1043 q 361 974 411 974 q 279 1008 314 974 q 244 1090 244 1043 z "},"È":{"ha":726,"x_min":44,"x_max":701,"o":"m 694 849 q 667 769 694 803 q 593 739 639 735 q 495 749 542 746 q 401 752 449 751 q 299 753 354 753 q 280 744 285 753 q 275 722 275 736 q 278 651 278 685 q 279 588 279 617 q 288 565 279 571 q 307 560 296 558 q 415 569 363 565 q 529 582 467 572 q 583 572 561 588 q 619 531 606 557 q 632 471 632 504 q 606 401 632 426 q 536 375 581 375 q 415 372 469 375 q 314 364 360 369 q 292 356 300 363 q 282 336 283 350 q 280 271 282 306 q 274 197 278 236 q 281 178 272 183 q 303 174 289 174 q 407 174 361 174 q 499 178 453 175 q 600 188 544 182 q 674 158 646 193 q 701 75 701 122 q 676 5 701 31 q 606 -21 650 -21 l 158 -21 q 78 7 113 -21 q 49 81 44 35 q 67 340 63 215 q 67 588 72 464 q 49 846 63 711 q 78 919 44 892 q 158 947 113 947 l 599 947 q 669 921 643 947 q 694 849 694 894 m 489 1110 q 536 1051 521 1090 q 532 981 551 1013 l 531 978 q 474 940 513 943 q 397 958 435 938 q 320 1002 358 982 q 243 1035 282 1022 q 203 1069 215 1046 q 191 1120 190 1092 q 204 1172 192 1149 l 211 1183 q 271 1235 235 1221 q 336 1221 307 1250 q 417 1157 385 1178 q 489 1110 450 1136 z "},"Ē":{"ha":726,"x_min":42,"x_max":701,"o":"m 694 849 q 667 769 694 803 q 593 739 639 735 q 495 749 542 746 q 401 752 449 751 q 299 753 354 753 q 280 744 285 753 q 275 722 275 736 q 278 651 278 685 q 279 588 279 617 q 288 565 279 571 q 307 560 296 558 q 415 569 363 565 q 529 582 467 572 q 583 572 561 588 q 619 531 606 557 q 632 471 632 504 q 606 401 632 426 q 536 375 581 375 q 415 372 469 375 q 314 364 360 369 q 292 356 300 363 q 282 336 283 350 q 280 271 282 306 q 274 197 278 236 q 281 178 272 183 q 303 174 289 174 q 407 174 361 174 q 499 178 453 175 q 600 188 544 182 q 674 158 646 193 q 701 75 701 122 q 676 5 701 31 q 606 -21 650 -21 l 158 -21 q 78 7 113 -21 q 49 81 44 35 q 67 340 63 215 q 67 588 72 464 q 49 846 63 711 q 78 919 44 892 q 158 947 113 947 l 599 947 q 669 921 643 947 q 694 849 694 894 m 694 1100 q 679 1051 694 1075 q 641 1012 664 1026 q 592 1000 618 997 q 132 1000 361 1021 q 67 1028 93 996 q 42 1100 42 1060 l 42 1101 q 65 1164 42 1140 q 128 1188 89 1188 q 360 1190 244 1188 q 592 1201 476 1192 q 641 1190 618 1204 q 679 1151 664 1175 q 694 1101 694 1128 l 694 1100 z "},"Ę":{"ha":726,"x_min":44,"x_max":714,"o":"m 694 849 q 667 769 694 803 q 593 739 639 735 q 495 749 542 746 q 401 752 449 751 q 299 753 354 753 q 280 744 285 753 q 275 722 275 736 q 278 651 278 685 q 279 588 279 617 q 288 565 279 571 q 307 560 296 558 q 415 569 363 565 q 529 582 467 572 q 583 572 561 588 q 619 531 606 557 q 632 471 632 504 q 606 401 632 426 q 536 375 581 375 q 415 372 469 375 q 314 364 360 369 q 292 356 300 363 q 282 336 283 350 q 280 271 282 306 q 274 197 278 236 q 281 178 272 183 q 303 174 289 174 q 407 174 361 174 q 499 178 453 175 q 600 188 544 182 q 674 158 646 193 q 701 75 701 122 q 676 5 701 31 q 606 -21 650 -21 l 158 -21 q 78 7 113 -21 q 49 81 44 35 q 67 340 63 215 q 67 588 72 464 q 49 846 63 711 q 78 919 44 892 q 158 947 113 947 l 599 947 q 669 921 643 947 q 694 849 694 894 m 600 -250 q 514 -226 553 -250 q 455 -160 475 -201 q 446 -68 435 -119 q 472 -13 453 -35 q 513 22 490 8 q 556 39 536 35 l 610 50 l 633 15 q 620 8 633 15 q 594 -12 607 1 q 581 -49 581 -25 q 590 -69 581 -62 q 613 -78 599 -76 q 640 -81 626 -81 q 691 -97 668 -81 q 714 -147 714 -114 q 678 -225 714 -200 q 600 -250 642 -250 z "},"Ẽ":{"ha":726,"x_min":44,"x_max":701,"o":"m 694 849 q 667 769 694 803 q 593 739 639 735 q 495 749 542 746 q 401 752 449 751 q 299 753 354 753 q 280 744 285 753 q 275 722 275 736 q 278 651 278 685 q 279 588 279 617 q 288 565 279 571 q 307 560 296 558 q 415 569 363 565 q 529 582 467 572 q 583 572 561 588 q 619 531 606 557 q 632 471 632 504 q 606 401 632 426 q 536 375 581 375 q 415 372 469 375 q 314 364 360 369 q 292 356 300 363 q 282 336 283 350 q 280 271 282 306 q 274 197 278 236 q 281 178 272 183 q 303 174 289 174 q 407 174 361 174 q 499 178 453 175 q 600 188 544 182 q 674 158 646 193 q 701 75 701 122 q 676 5 701 31 q 606 -21 650 -21 l 158 -21 q 78 7 113 -21 q 49 81 44 35 q 67 340 63 215 q 67 588 72 464 q 49 846 63 711 q 78 919 44 892 q 158 947 113 947 l 599 947 q 669 921 643 947 q 694 849 694 894 m 107 1017 q 88 1067 88 1039 q 108 1118 88 1096 q 149 1153 125 1135 q 203 1187 172 1172 q 267 1201 233 1201 q 335 1187 310 1201 q 376 1153 360 1172 q 409 1122 392 1135 q 453 1111 426 1108 q 478 1126 465 1113 q 503 1147 490 1139 q 559 1165 526 1165 q 614 1144 592 1165 l 621 1139 q 645 1097 639 1124 q 647 1044 651 1071 q 626 1001 643 1018 q 547 954 597 975 q 453 933 497 933 q 381 947 408 933 q 336 978 354 961 q 304 1010 318 996 q 271 1024 290 1024 q 242 1016 256 1024 q 215 999 229 1008 q 162 983 190 981 q 113 1010 133 986 l 107 1017 z "},"Ə":{"ha":771,"x_min":14,"x_max":757,"o":"m 382 -56 q 288 -46 339 -56 q 190 -7 238 -36 q 101 79 142 22 q 38 229 61 136 q 14 460 14 322 q 51 540 14 510 q 138 569 88 569 l 514 569 q 526 585 529 569 q 499 691 518 646 q 451 762 481 736 q 382 788 421 788 q 346 778 364 788 q 307 757 328 768 q 233 745 272 738 q 164 781 193 753 l 161 783 q 134 858 126 818 q 182 928 142 899 q 382 982 265 982 q 543 942 474 982 q 660 832 613 901 q 733 672 708 763 q 757 482 757 582 l 757 410 q 713 170 757 275 q 586 5 669 65 q 382 -56 503 -56 m 203 358 q 225 236 203 281 q 288 172 247 192 q 382 153 329 153 q 488 203 450 153 q 532 351 525 254 q 518 365 533 365 q 444 367 483 367 q 368 369 406 368 q 299 372 331 371 q 245 372 267 372 q 218 372 224 372 q 203 358 203 374 z "},"F":{"ha":719,"x_min":47,"x_max":694,"o":"m 694 849 q 667 769 694 803 q 593 739 639 735 q 494 749 539 746 q 405 752 450 751 q 303 753 360 753 q 276 741 282 753 q 272 715 271 729 q 277 671 276 690 q 278 633 278 651 q 279 592 278 615 q 284 576 279 583 q 299 569 289 569 q 403 571 343 569 q 529 582 463 572 q 583 572 561 588 q 619 531 606 557 q 632 471 632 504 q 606 401 632 426 q 536 375 581 375 q 410 373 467 375 q 303 364 353 371 q 290 358 294 363 q 285 340 285 353 q 285 256 285 293 q 289 178 286 218 q 299 81 292 138 q 265 7 304 35 q 158 -21 226 -21 q 81 6 114 -21 q 49 76 47 33 q 58 338 56 213 q 58 589 60 464 q 49 850 56 714 q 81 921 47 894 q 158 947 114 947 l 599 947 q 669 921 643 947 q 694 849 694 894 z "},"G":{"ha":774,"x_min":14,"x_max":767,"o":"m 389 -26 q 228 8 299 -26 q 111 102 158 42 q 39 241 64 163 q 14 410 14 319 l 14 482 q 38 655 14 571 q 110 806 63 739 q 228 913 158 874 q 389 953 297 953 q 589 899 506 953 q 638 829 631 869 q 610 754 644 789 l 607 751 q 540 716 579 724 q 464 728 500 708 q 425 749 443 739 q 389 758 407 758 q 303 727 338 758 q 253 634 269 696 q 236 482 236 572 l 236 410 q 272 240 236 299 q 389 182 308 182 q 451 188 424 182 q 504 207 478 194 q 528 228 522 215 q 532 265 533 240 q 529 329 531 289 q 525 360 528 347 q 507 372 522 372 q 465 369 486 372 q 417 363 444 367 q 368 372 386 357 q 342 414 350 388 q 333 471 333 440 q 366 543 333 517 q 443 569 399 569 l 633 569 q 704 552 672 569 q 751 507 736 535 q 756 446 767 479 l 742 406 q 733 348 735 382 q 733 270 731 314 q 743 171 736 226 q 728 97 747 128 q 671 47 710 65 l 614 19 q 608 17 611 18 q 601 14 606 17 q 496 -16 551 -6 q 389 -26 440 -26 z "},"Ğ":{"ha":774,"x_min":14,"x_max":767,"o":"m 389 -26 q 228 8 299 -26 q 111 102 158 42 q 39 241 64 163 q 14 410 14 319 l 14 482 q 38 655 14 571 q 110 806 63 739 q 228 913 158 874 q 389 953 297 953 q 589 899 506 953 q 638 829 631 869 q 610 754 644 789 l 607 751 q 540 716 579 724 q 464 728 500 708 q 425 749 443 739 q 389 758 407 758 q 303 727 338 758 q 253 634 269 696 q 236 482 236 572 l 236 410 q 272 240 236 299 q 389 182 308 182 q 451 188 424 182 q 504 207 478 194 q 528 228 522 215 q 532 265 533 240 q 529 329 531 289 q 525 360 528 347 q 507 372 522 372 q 465 369 486 372 q 417 363 444 367 q 368 372 386 357 q 342 414 350 388 q 333 471 333 440 q 366 543 333 517 q 443 569 399 569 l 633 569 q 704 552 672 569 q 751 507 736 535 q 756 446 767 479 l 742 406 q 733 348 735 382 q 733 270 731 314 q 743 171 736 226 q 728 97 747 128 q 671 47 710 65 l 614 19 q 608 17 611 18 q 601 14 606 17 q 496 -16 551 -6 q 389 -26 440 -26 m 204 1264 q 258 1247 235 1264 q 292 1193 282 1229 q 325 1147 301 1164 q 381 1129 349 1129 q 423 1135 403 1129 q 456 1153 443 1142 q 469 1183 469 1165 q 496 1249 469 1221 q 558 1278 522 1278 l 560 1278 q 610 1263 588 1278 q 647 1224 633 1247 q 658 1172 661 1200 q 613 1059 653 1110 q 513 978 574 1008 q 381 949 451 949 q 261 978 315 949 q 169 1058 207 1008 q 118 1167 132 1107 q 136 1237 111 1210 q 203 1264 161 1264 l 204 1264 z "},"Ģ":{"ha":774,"x_min":14,"x_max":767,"o":"m 389 -26 q 228 8 299 -26 q 111 102 158 42 q 39 241 64 163 q 14 410 14 319 l 14 482 q 38 655 14 571 q 110 806 63 739 q 228 913 158 874 q 389 953 297 953 q 589 899 506 953 q 638 829 631 869 q 610 754 644 789 l 607 751 q 540 716 579 724 q 464 728 500 708 q 425 749 443 739 q 389 758 407 758 q 303 727 338 758 q 253 634 269 696 q 236 482 236 572 l 236 410 q 272 240 236 299 q 389 182 308 182 q 451 188 424 182 q 504 207 478 194 q 528 228 522 215 q 532 265 533 240 q 529 329 531 289 q 525 360 528 347 q 507 372 522 372 q 465 369 486 372 q 417 363 444 367 q 368 372 386 357 q 342 414 350 388 q 333 471 333 440 q 366 543 333 517 q 443 569 399 569 l 633 569 q 704 552 672 569 q 751 507 736 535 q 756 446 767 479 l 742 406 q 733 348 735 382 q 733 270 731 314 q 743 171 736 226 q 728 97 747 128 q 671 47 710 65 l 614 19 q 608 17 611 18 q 601 14 606 17 q 496 -16 551 -6 q 389 -26 440 -26 m 401 -344 q 367 -375 392 -362 q 315 -387 343 -387 l 310 -387 q 266 -376 288 -387 q 236 -344 244 -365 q 242 -294 228 -324 q 285 -203 269 -240 q 317 -114 301 -165 q 341 -85 321 -96 q 390 -68 361 -74 q 446 -62 418 -62 l 456 -62 q 501 -76 483 -62 q 522 -112 518 -90 q 511 -158 525 -135 q 457 -253 481 -212 q 401 -344 433 -293 z "},"Ġ":{"ha":774,"x_min":14,"x_max":767,"o":"m 389 -26 q 228 8 299 -26 q 111 102 158 42 q 39 241 64 163 q 14 410 14 319 l 14 482 q 38 655 14 571 q 110 806 63 739 q 228 913 158 874 q 389 953 297 953 q 589 899 506 953 q 638 829 631 869 q 610 754 644 789 l 607 751 q 540 716 579 724 q 464 728 500 708 q 425 749 443 739 q 389 758 407 758 q 303 727 338 758 q 253 634 269 696 q 236 482 236 572 l 236 410 q 272 240 236 299 q 389 182 308 182 q 451 188 424 182 q 504 207 478 194 q 528 228 522 215 q 532 265 533 240 q 529 329 531 289 q 525 360 528 347 q 507 372 522 372 q 465 369 486 372 q 417 363 444 367 q 368 372 386 357 q 342 414 350 388 q 333 471 333 440 q 366 543 333 517 q 443 569 399 569 l 633 569 q 704 552 672 569 q 751 507 736 535 q 756 446 767 479 l 742 406 q 733 348 735 382 q 733 270 731 314 q 743 171 736 226 q 728 97 747 128 q 671 47 710 65 l 614 19 q 608 17 611 18 q 601 14 606 17 q 496 -16 551 -6 q 389 -26 440 -26 m 271 1125 q 306 1208 271 1175 q 388 1242 340 1242 q 471 1208 438 1242 q 504 1125 504 1175 q 471 1043 504 1078 q 388 1008 438 1008 q 306 1043 340 1008 q 271 1125 271 1078 z "},"Ḡ":{"ha":774,"x_min":14,"x_max":767,"o":"m 389 -26 q 228 8 299 -26 q 111 102 158 42 q 39 241 64 163 q 14 410 14 319 l 14 482 q 38 655 14 571 q 110 806 63 739 q 228 913 158 874 q 389 953 297 953 q 589 899 506 953 q 638 829 631 869 q 610 754 644 789 l 607 751 q 540 716 579 724 q 464 728 500 708 q 425 749 443 739 q 389 758 407 758 q 303 727 338 758 q 253 634 269 696 q 236 482 236 572 l 236 410 q 272 240 236 299 q 389 182 308 182 q 451 188 424 182 q 504 207 478 194 q 528 228 522 215 q 532 265 533 240 q 529 329 531 289 q 525 360 528 347 q 507 372 522 372 q 465 369 486 372 q 417 363 444 367 q 368 372 386 357 q 342 414 350 388 q 333 471 333 440 q 366 543 333 517 q 443 569 399 569 l 633 569 q 704 552 672 569 q 751 507 736 535 q 756 446 767 479 l 742 406 q 733 348 735 382 q 733 270 731 314 q 743 171 736 226 q 728 97 747 128 q 671 47 710 65 l 614 19 q 608 17 611 18 q 601 14 606 17 q 496 -16 551 -6 q 389 -26 440 -26 m 721 1135 q 706 1085 721 1110 q 667 1047 690 1061 q 618 1035 644 1032 q 158 1035 388 1056 q 94 1063 119 1031 q 68 1135 68 1094 l 68 1136 q 92 1199 68 1175 q 154 1222 115 1222 q 387 1224 271 1222 q 618 1236 503 1226 q 667 1224 644 1239 q 706 1186 690 1210 q 721 1136 721 1163 l 721 1135 z "},"H":{"ha":872,"x_min":18,"x_max":826,"o":"m 211 -21 q 131 9 161 -21 q 101 89 101 39 q 101 208 101 154 q 101 326 101 263 q 92 358 101 346 q 68 382 83 371 q 31 416 43 393 q 18 471 18 439 l 18 474 q 64 547 18 526 q 88 572 78 560 q 97 606 97 585 q 93 720 96 668 q 88 835 90 772 q 102 894 85 869 q 149 933 119 919 q 211 947 179 947 q 278 933 247 947 q 325 892 308 918 q 338 832 342 867 q 334 782 336 814 q 331 707 332 750 q 329 611 329 664 q 340 579 328 588 q 376 571 353 571 q 459 573 418 572 q 540 576 500 574 q 576 585 564 578 q 588 617 588 593 q 588 703 588 663 q 588 776 588 743 q 588 838 588 810 q 617 917 588 888 q 700 947 647 947 q 763 933 733 947 q 809 894 792 919 q 824 835 826 869 q 815 584 817 704 q 815 343 813 464 q 824 92 817 222 q 809 33 826 58 q 763 -7 792 7 q 700 -21 733 -21 q 634 -6 664 -21 q 587 35 604 8 q 574 94 569 61 q 578 152 576 115 q 582 238 581 189 q 583 343 583 288 q 572 368 585 361 q 536 375 560 375 q 456 374 496 375 q 375 372 415 374 q 340 357 351 372 q 329 318 329 342 q 332 226 331 271 q 335 147 333 181 q 338 94 336 113 q 325 35 342 61 q 278 -6 308 8 q 211 -21 247 -21 z "},"Ħ":{"ha":925,"x_min":15,"x_max":901,"o":"m 22 740 q 41 792 22 774 q 93 811 60 811 q 172 811 117 811 q 301 812 228 811 q 453 813 374 813 q 606 815 533 814 q 735 819 679 817 q 814 825 790 822 q 856 817 836 829 q 889 785 876 806 q 901 740 901 764 l 901 738 q 874 683 901 704 q 814 667 847 663 q 735 672 790 671 q 608 672 681 672 q 456 670 535 672 q 303 665 376 668 q 174 660 229 663 q 96 653 119 657 q 42 676 63 647 q 22 738 22 704 l 22 740 m 208 -21 q 128 9 158 -21 q 99 89 99 39 q 99 208 99 154 q 97 326 99 263 q 88 358 97 346 q 65 382 79 371 q 28 416 40 393 q 15 471 15 439 l 15 474 q 61 547 15 526 q 85 572 75 560 q 93 606 94 585 q 90 720 92 668 q 85 835 88 772 q 99 894 82 869 q 146 933 117 919 q 208 947 175 947 q 275 933 244 947 q 322 892 306 918 q 335 832 339 867 q 330 782 332 814 q 327 707 328 750 q 325 611 326 664 q 338 579 325 588 q 372 571 350 571 q 455 573 414 572 q 538 576 496 574 q 572 585 560 578 q 583 617 583 593 q 585 703 585 663 q 585 776 585 743 q 585 838 585 810 q 615 917 585 888 q 697 947 644 947 q 759 933 731 947 q 805 894 788 919 q 821 835 822 869 q 812 584 814 704 q 812 343 810 464 q 821 92 814 222 q 805 33 822 58 q 759 -7 788 7 q 697 -21 731 -21 q 631 -6 661 -21 q 583 35 600 8 q 571 94 565 61 q 575 152 574 115 q 578 238 576 189 q 581 343 579 288 q 569 368 582 361 q 533 375 557 375 q 453 374 493 375 q 372 372 413 374 q 337 357 349 372 q 326 318 325 342 q 328 226 328 271 q 331 147 329 181 q 335 94 332 113 q 322 35 339 61 q 275 -6 306 8 q 208 -21 244 -21 z "},"I":{"ha":486,"x_min":14,"x_max":472,"o":"m 110 -24 q 40 9 65 -24 q 14 86 14 42 q 27 161 14 136 q 65 185 40 186 q 87 183 76 185 q 108 181 97 182 q 122 190 119 181 q 125 210 125 200 l 125 713 q 104 740 125 742 q 85 738 94 739 q 65 735 75 738 q 33 746 44 731 q 17 788 21 761 q 14 846 14 815 q 40 915 14 890 q 107 943 65 940 q 365 943 236 954 q 433 915 407 940 q 458 844 458 890 q 440 772 458 800 q 394 749 422 743 q 379 751 388 750 q 360 753 371 753 q 350 743 353 753 q 347 724 347 733 l 347 221 q 364 190 347 190 q 384 195 372 192 q 407 199 396 199 q 453 172 435 200 q 472 86 472 143 q 444 23 472 47 q 369 -8 417 -1 q 238 -22 303 -19 q 110 -24 174 -24 z "},"Ĳ":{"ha":1251,"x_min":14,"x_max":1238,"o":"m 110 -24 q 40 9 65 -24 q 14 86 14 42 q 27 161 14 136 q 65 185 40 186 q 87 183 76 185 q 108 181 97 182 q 122 190 119 181 q 125 210 125 200 l 125 713 q 104 740 125 742 q 85 738 94 739 q 65 735 75 738 q 33 746 44 731 q 17 788 21 761 q 14 846 14 815 q 40 915 14 890 q 107 943 65 940 q 365 943 236 954 q 433 915 407 940 q 458 844 458 890 q 440 772 458 800 q 394 749 422 743 q 379 751 388 750 q 360 753 371 753 q 350 743 353 753 q 347 724 347 733 l 347 221 q 364 190 347 190 q 384 195 372 192 q 407 199 396 199 q 453 172 435 200 q 472 86 472 143 q 444 23 472 47 q 369 -8 417 -1 q 238 -22 303 -19 q 110 -24 174 -24 m 758 -26 q 661 -22 713 -26 q 561 -3 610 -17 q 513 29 531 7 q 491 81 494 51 q 501 139 488 111 q 555 197 518 172 q 636 210 592 222 q 698 192 667 201 q 758 182 729 182 q 849 201 815 182 q 897 269 882 221 q 911 404 911 317 l 911 694 q 909 718 911 706 q 897 731 907 731 q 852 728 878 731 q 801 722 826 725 q 745 730 771 717 q 704 767 719 743 q 689 822 689 792 q 719 897 689 868 q 792 926 749 926 l 1140 926 q 1210 899 1182 926 q 1238 826 1238 871 q 1221 758 1238 786 q 1174 731 1204 731 l 1156 731 q 1138 718 1142 731 q 1133 696 1133 706 l 1133 404 q 1036 88 1133 201 q 758 -26 939 -26 z "},"Í":{"ha":486,"x_min":14,"x_max":472,"o":"m 110 -24 q 40 9 65 -24 q 14 86 14 42 q 27 161 14 136 q 65 185 40 186 q 87 183 76 185 q 108 181 97 182 q 122 190 119 181 q 125 210 125 200 l 125 713 q 104 740 125 742 q 85 738 94 739 q 65 735 75 738 q 33 746 44 731 q 17 788 21 761 q 14 846 14 815 q 40 915 14 890 q 107 943 65 940 q 365 943 236 954 q 433 915 407 940 q 458 844 458 890 q 440 772 458 800 q 394 749 422 743 q 379 751 388 750 q 360 753 371 753 q 350 743 353 753 q 347 724 347 733 l 347 221 q 364 190 347 190 q 384 195 372 192 q 407 199 396 199 q 453 172 435 200 q 472 86 472 143 q 444 23 472 47 q 369 -8 417 -1 q 238 -22 303 -19 q 110 -24 174 -24 m 183 965 q 119 951 153 943 q 65 994 85 960 l 64 997 q 53 1058 46 1028 q 89 1108 60 1089 q 169 1161 131 1135 q 247 1222 208 1188 q 292 1243 267 1240 q 341 1235 317 1246 q 381 1201 365 1225 l 386 1193 q 400 1135 403 1169 q 381 1072 397 1100 q 335 1036 364 1044 q 250 1006 288 1025 q 183 965 213 988 z "},"Î":{"ha":486,"x_min":-50,"x_max":499,"o":"m 110 -24 q 40 9 65 -24 q 14 86 14 42 q 27 161 14 136 q 65 185 40 186 q 87 183 76 185 q 108 181 97 182 q 122 190 119 181 q 125 210 125 200 l 125 713 q 104 740 125 742 q 85 738 94 739 q 65 735 75 738 q 33 746 44 731 q 17 788 21 761 q 14 846 14 815 q 40 915 14 890 q 107 943 65 940 q 365 943 236 954 q 433 915 407 940 q 458 844 458 890 q 440 772 458 800 q 394 749 422 743 q 379 751 388 750 q 360 753 371 753 q 350 743 353 753 q 347 724 347 733 l 347 221 q 364 190 347 190 q 384 195 372 192 q 407 199 396 199 q 453 172 435 200 q 472 86 472 143 q 444 23 472 47 q 369 -8 417 -1 q 238 -22 303 -19 q 110 -24 174 -24 m 465 1086 q 497 1037 496 1069 q 482 972 499 1004 l 481 971 q 444 933 468 944 q 396 922 421 921 q 351 936 371 924 q 293 977 317 957 q 240 1017 269 997 q 210 1017 225 1028 q 157 977 181 997 q 99 936 133 957 q 37 923 72 918 q -21 951 1 928 l -22 954 q -50 1019 -50 985 q -15 1072 -50 1054 q 49 1109 14 1088 q 116 1154 83 1131 q 171 1199 149 1178 q 224 1221 194 1221 q 276 1201 253 1221 q 370 1140 319 1169 q 465 1086 421 1110 z "},"Ï":{"ha":486,"x_min":-33,"x_max":482,"o":"m 110 -24 q 40 9 65 -24 q 14 86 14 42 q 27 161 14 136 q 65 185 40 186 q 87 183 76 185 q 108 181 97 182 q 122 190 119 181 q 125 210 125 200 l 125 713 q 104 740 125 742 q 85 738 94 739 q 65 735 75 738 q 33 746 44 731 q 17 788 21 761 q 14 846 14 815 q 40 915 14 890 q 107 943 65 940 q 365 943 236 954 q 433 915 407 940 q 458 844 458 890 q 440 772 458 800 q 394 749 422 743 q 379 751 388 750 q 360 753 371 753 q 350 743 353 753 q 347 724 347 733 l 347 221 q 364 190 347 190 q 384 195 372 192 q 407 199 396 199 q 453 172 435 200 q 472 86 472 143 q 444 23 472 47 q 369 -8 417 -1 q 238 -22 303 -19 q 110 -24 174 -24 m 86 969 q 1 1003 35 969 q -33 1088 -33 1036 q 1 1172 -33 1138 q 86 1206 35 1206 q 169 1172 135 1206 q 203 1088 203 1138 q 169 1003 203 1036 q 86 969 135 969 m 365 983 q 280 1017 314 983 q 246 1101 246 1050 q 280 1185 246 1151 q 365 1219 314 1219 q 448 1185 414 1219 q 482 1101 482 1151 q 448 1017 482 1050 q 365 983 414 983 z "},"İ":{"ha":486,"x_min":14,"x_max":472,"o":"m 110 -24 q 40 9 65 -24 q 14 86 14 42 q 27 161 14 136 q 65 185 40 186 q 87 183 76 185 q 108 181 97 182 q 122 190 119 181 q 125 210 125 200 l 125 713 q 104 740 125 742 q 85 738 94 739 q 65 735 75 738 q 33 746 44 731 q 17 788 21 761 q 14 846 14 815 q 40 915 14 890 q 107 943 65 940 q 365 943 236 954 q 433 915 407 940 q 458 844 458 890 q 440 772 458 800 q 394 749 422 743 q 379 751 388 750 q 360 753 371 753 q 350 743 353 753 q 347 724 347 733 l 347 221 q 364 190 347 190 q 384 195 372 192 q 407 199 396 199 q 453 172 435 200 q 472 86 472 143 q 444 23 472 47 q 369 -8 417 -1 q 238 -22 303 -19 q 110 -24 174 -24 m 108 1090 q 143 1174 108 1140 q 225 1207 178 1207 q 308 1174 275 1207 q 342 1090 342 1140 q 308 1008 342 1043 q 225 974 275 974 q 143 1008 178 974 q 108 1090 108 1043 z "},"Ì":{"ha":486,"x_min":14,"x_max":472,"o":"m 110 -24 q 40 9 65 -24 q 14 86 14 42 q 27 161 14 136 q 65 185 40 186 q 87 183 76 185 q 108 181 97 182 q 122 190 119 181 q 125 210 125 200 l 125 713 q 104 740 125 742 q 85 738 94 739 q 65 735 75 738 q 33 746 44 731 q 17 788 21 761 q 14 846 14 815 q 40 915 14 890 q 107 943 65 940 q 365 943 236 954 q 433 915 407 940 q 458 844 458 890 q 440 772 458 800 q 394 749 422 743 q 379 751 388 750 q 360 753 371 753 q 350 743 353 753 q 347 724 347 733 l 347 221 q 364 190 347 190 q 384 195 372 192 q 407 199 396 199 q 453 172 435 200 q 472 86 472 143 q 444 23 472 47 q 369 -8 417 -1 q 238 -22 303 -19 q 110 -24 174 -24 m 353 1110 q 400 1051 385 1090 q 396 981 415 1013 l 394 978 q 338 940 376 943 q 261 958 299 938 q 184 1002 222 982 q 107 1035 146 1022 q 67 1069 79 1046 q 55 1120 54 1092 q 68 1172 56 1149 l 75 1183 q 135 1235 99 1221 q 200 1221 171 1250 q 281 1157 249 1178 q 353 1110 314 1136 z "},"Ī":{"ha":486,"x_min":-94,"x_max":558,"o":"m 110 -24 q 40 9 65 -24 q 14 86 14 42 q 27 161 14 136 q 65 185 40 186 q 87 183 76 185 q 108 181 97 182 q 122 190 119 181 q 125 210 125 200 l 125 713 q 104 740 125 742 q 85 738 94 739 q 65 735 75 738 q 33 746 44 731 q 17 788 21 761 q 14 846 14 815 q 40 915 14 890 q 107 943 65 940 q 365 943 236 954 q 433 915 407 940 q 458 844 458 890 q 440 772 458 800 q 394 749 422 743 q 379 751 388 750 q 360 753 371 753 q 350 743 353 753 q 347 724 347 733 l 347 221 q 364 190 347 190 q 384 195 372 192 q 407 199 396 199 q 453 172 435 200 q 472 86 472 143 q 444 23 472 47 q 369 -8 417 -1 q 238 -22 303 -19 q 110 -24 174 -24 m 558 1100 q 543 1051 558 1075 q 505 1012 528 1026 q 456 1000 482 997 q -4 1000 225 1021 q -69 1028 -43 996 q -94 1100 -94 1060 l -94 1101 q -71 1164 -94 1140 q -8 1188 -47 1188 q 224 1190 108 1188 q 456 1201 340 1192 q 505 1190 482 1204 q 543 1151 528 1175 q 558 1101 558 1128 l 558 1100 z "},"Į":{"ha":486,"x_min":14,"x_max":472,"o":"m 110 -24 q 40 9 65 -24 q 14 86 14 42 q 27 161 14 136 q 65 185 40 186 q 87 183 76 185 q 108 181 97 182 q 122 190 119 181 q 125 210 125 200 l 125 713 q 104 740 125 742 q 85 738 94 739 q 65 735 75 738 q 33 746 44 731 q 17 788 21 761 q 14 846 14 815 q 40 915 14 890 q 107 943 65 940 q 365 943 236 954 q 433 915 407 940 q 458 844 458 890 q 440 772 458 800 q 394 749 422 743 q 379 751 388 750 q 360 753 371 753 q 350 743 353 753 q 347 724 347 733 l 347 221 q 364 190 347 190 q 384 195 372 192 q 407 199 396 199 q 453 172 435 200 q 472 86 472 143 q 444 23 472 47 q 369 -8 417 -1 q 238 -22 303 -19 q 110 -24 174 -24 m 314 -250 q 228 -226 267 -250 q 169 -160 189 -201 q 160 -68 149 -119 q 185 -13 167 -35 q 227 22 204 8 q 269 39 250 35 l 324 50 l 347 15 q 334 8 347 15 q 308 -12 321 1 q 294 -49 294 -25 q 303 -69 294 -62 q 326 -78 313 -76 q 354 -81 340 -81 q 405 -97 382 -81 q 428 -147 428 -114 q 392 -225 428 -200 q 314 -250 356 -250 z "},"Ĩ":{"ha":486,"x_min":-49,"x_max":515,"o":"m 110 -24 q 40 9 65 -24 q 14 86 14 42 q 27 161 14 136 q 65 185 40 186 q 87 183 76 185 q 108 181 97 182 q 122 190 119 181 q 125 210 125 200 l 125 713 q 104 740 125 742 q 85 738 94 739 q 65 735 75 738 q 33 746 44 731 q 17 788 21 761 q 14 846 14 815 q 40 915 14 890 q 107 943 65 940 q 365 943 236 954 q 433 915 407 940 q 458 844 458 890 q 440 772 458 800 q 394 749 422 743 q 379 751 388 750 q 360 753 371 753 q 350 743 353 753 q 347 724 347 733 l 347 221 q 364 190 347 190 q 384 195 372 192 q 407 199 396 199 q 453 172 435 200 q 472 86 472 143 q 444 23 472 47 q 369 -8 417 -1 q 238 -22 303 -19 q 110 -24 174 -24 m -29 1017 q -49 1067 -49 1039 q -28 1118 -49 1096 q 13 1153 -11 1135 q 67 1187 36 1172 q 131 1201 97 1201 q 199 1187 174 1201 q 240 1153 224 1172 q 273 1122 256 1135 q 317 1111 290 1108 q 342 1126 329 1113 q 367 1147 354 1139 q 423 1165 390 1165 q 478 1144 456 1165 l 485 1139 q 509 1097 503 1124 q 511 1044 515 1071 q 490 1001 507 1018 q 411 954 461 975 q 317 933 361 933 q 245 947 272 933 q 200 978 218 961 q 168 1010 182 996 q 135 1024 154 1024 q 106 1016 119 1024 q 79 999 93 1008 q 26 983 54 981 q -24 1010 -3 986 l -29 1017 z "},"J":{"ha":765,"x_min":1,"x_max":751,"o":"m 272 -26 q 175 -22 226 -26 q 75 -3 124 -17 q 26 29 44 7 q 5 81 8 51 q 15 139 1 111 q 69 197 32 172 q 150 210 106 222 q 212 192 181 201 q 272 182 243 182 q 363 201 329 182 q 410 269 396 221 q 425 404 425 317 l 425 694 q 423 718 425 706 q 411 731 421 731 q 366 728 392 731 q 315 722 340 725 q 259 730 285 717 q 218 767 233 743 q 203 822 203 792 q 233 897 203 868 q 306 926 263 926 l 654 926 q 724 899 696 926 q 751 826 751 871 q 735 758 751 786 q 688 731 718 731 l 669 731 q 651 718 656 731 q 647 696 647 706 l 647 404 q 550 88 647 201 q 272 -26 453 -26 z "},"K":{"ha":753,"x_min":17,"x_max":747,"o":"m 142 -21 q 82 -6 111 -21 q 35 34 53 8 q 18 90 17 60 q 27 343 25 222 q 27 584 29 464 q 18 836 25 704 q 35 893 17 868 q 82 933 53 918 q 144 947 111 947 q 224 917 192 947 q 256 838 256 886 l 256 650 q 260 636 256 640 q 274 640 265 632 q 328 708 299 672 q 392 788 357 743 q 472 893 428 833 q 555 953 510 944 q 638 938 600 963 q 674 894 661 921 q 684 835 688 867 q 656 775 681 804 q 575 685 611 722 q 508 617 539 649 q 449 546 478 585 q 444 527 440 535 q 456 515 449 519 q 514 475 476 503 q 594 401 551 447 q 675 284 636 354 q 738 117 714 214 q 731 49 747 81 q 683 -2 714 17 q 615 -21 653 -21 q 538 1 574 -21 q 496 69 501 22 q 465 188 486 138 q 419 272 444 238 q 371 327 393 306 q 335 358 349 349 q 313 369 321 368 q 300 365 306 371 q 280 341 289 354 q 263 314 271 328 q 259 296 260 306 q 258 286 258 286 q 261 217 260 246 q 265 160 263 188 q 268 92 267 132 q 253 33 271 60 q 205 -7 235 7 q 142 -21 175 -21 z "},"Ķ":{"ha":753,"x_min":17,"x_max":747,"o":"m 142 -21 q 82 -6 111 -21 q 35 34 53 8 q 18 90 17 60 q 27 343 25 222 q 27 584 29 464 q 18 836 25 704 q 35 893 17 868 q 82 933 53 918 q 144 947 111 947 q 224 917 192 947 q 256 838 256 886 l 256 650 q 260 636 256 640 q 274 640 265 632 q 328 708 299 672 q 392 788 357 743 q 472 893 428 833 q 555 953 510 944 q 638 938 600 963 q 674 894 661 921 q 684 835 688 867 q 656 775 681 804 q 575 685 611 722 q 508 617 539 649 q 449 546 478 585 q 444 527 440 535 q 456 515 449 519 q 514 475 476 503 q 594 401 551 447 q 675 284 636 354 q 738 117 714 214 q 731 49 747 81 q 683 -2 714 17 q 615 -21 653 -21 q 538 1 574 -21 q 496 69 501 22 q 465 188 486 138 q 419 272 444 238 q 371 327 393 306 q 335 358 349 349 q 313 369 321 368 q 300 365 306 371 q 280 341 289 354 q 263 314 271 328 q 259 296 260 306 q 258 286 258 286 q 261 217 260 246 q 265 160 263 188 q 268 92 267 132 q 253 33 271 60 q 205 -7 235 7 q 142 -21 175 -21 m 382 -344 q 348 -375 372 -362 q 296 -387 324 -387 l 290 -387 q 247 -376 268 -387 q 217 -344 225 -365 q 222 -294 208 -324 q 266 -203 250 -240 q 297 -114 282 -165 q 322 -85 301 -96 q 370 -68 342 -74 q 426 -62 399 -62 l 436 -62 q 481 -76 464 -62 q 502 -112 499 -90 q 492 -158 506 -135 q 438 -253 461 -212 q 382 -344 414 -293 z "},"L":{"ha":640,"x_min":46,"x_max":646,"o":"m 172 -21 q 110 -8 140 -22 q 63 32 81 6 q 49 92 46 58 q 58 343 56 222 q 58 584 60 464 q 49 835 56 704 q 63 894 46 869 q 110 933 81 919 q 174 947 140 947 q 257 916 225 947 q 285 835 289 885 q 276 631 279 726 q 272 442 274 536 q 271 246 271 349 q 280 210 271 222 q 311 200 289 197 q 415 210 361 203 q 517 222 468 217 q 583 209 554 226 q 629 163 613 192 q 646 103 646 135 q 630 49 646 74 q 586 7 614 24 q 522 -11 558 -10 l 172 -21 z "},"Ĺ":{"ha":640,"x_min":46,"x_max":646,"o":"m 172 -21 q 110 -8 140 -22 q 63 32 81 6 q 49 92 46 58 q 58 343 56 222 q 58 584 60 464 q 49 835 56 704 q 63 894 46 869 q 110 933 81 919 q 174 947 140 947 q 257 916 225 947 q 285 835 289 885 q 276 631 279 726 q 272 442 274 536 q 271 246 271 349 q 280 210 271 222 q 311 200 289 197 q 415 210 361 203 q 517 222 468 217 q 583 209 554 226 q 629 163 613 192 q 646 103 646 135 q 630 49 646 74 q 586 7 614 24 q 522 -11 558 -10 l 172 -21 m 279 1024 q 215 1010 249 1001 q 161 1053 181 1018 l 160 1056 q 149 1117 142 1086 q 185 1167 156 1147 q 265 1219 226 1193 q 343 1281 304 1246 q 388 1301 363 1299 q 437 1294 413 1304 q 476 1260 461 1283 l 482 1251 q 496 1193 499 1228 q 476 1131 493 1158 q 431 1094 460 1103 q 346 1065 383 1083 q 279 1024 308 1046 z "},"Ľ":{"ha":640,"x_min":46,"x_max":828,"o":"m 172 -21 q 110 -8 140 -22 q 63 32 81 6 q 49 92 46 58 q 58 343 56 222 q 58 584 60 464 q 49 835 56 704 q 63 894 46 869 q 110 933 81 919 q 174 947 140 947 q 257 916 225 947 q 285 835 289 885 q 276 631 279 726 q 272 442 274 536 q 271 246 271 349 q 280 210 271 222 q 311 200 289 197 q 415 210 361 203 q 517 222 468 217 q 583 209 554 226 q 629 163 613 192 q 646 103 646 135 q 630 49 646 74 q 586 7 614 24 q 522 -11 558 -10 l 172 -21 m 619 867 q 633 924 618 900 q 672 960 647 947 q 721 974 696 974 l 724 974 q 774 960 750 974 q 813 924 797 947 q 825 867 828 900 l 814 700 q 783 633 810 657 q 724 610 757 610 l 721 610 q 659 633 683 610 q 631 700 635 657 l 619 867 z "},"Ļ":{"ha":640,"x_min":46,"x_max":646,"o":"m 172 -21 q 110 -8 140 -22 q 63 32 81 6 q 49 92 46 58 q 58 343 56 222 q 58 584 60 464 q 49 835 56 704 q 63 894 46 869 q 110 933 81 919 q 174 947 140 947 q 257 916 225 947 q 285 835 289 885 q 276 631 279 726 q 272 442 274 536 q 271 246 271 349 q 280 210 271 222 q 311 200 289 197 q 415 210 361 203 q 517 222 468 217 q 583 209 554 226 q 629 163 613 192 q 646 103 646 135 q 630 49 646 74 q 586 7 614 24 q 522 -11 558 -10 l 172 -21 m 335 -344 q 301 -375 325 -362 q 249 -387 276 -387 l 243 -387 q 199 -376 221 -387 q 169 -344 178 -365 q 175 -294 161 -324 q 219 -203 203 -240 q 250 -114 235 -165 q 274 -85 254 -96 q 323 -68 294 -74 q 379 -62 351 -62 l 389 -62 q 434 -76 417 -62 q 455 -112 451 -90 q 444 -158 458 -135 q 390 -253 414 -212 q 335 -344 367 -293 z "},"Ŀ":{"ha":640,"x_min":46,"x_max":646,"o":"m 482 313 q 392 349 429 313 q 356 439 356 385 q 392 528 356 492 q 482 565 429 565 q 572 528 535 565 q 608 439 608 492 q 572 349 608 385 q 482 313 535 313 m 172 -21 q 110 -8 140 -22 q 63 32 81 6 q 49 92 46 58 q 58 343 56 222 q 58 584 60 464 q 49 835 56 704 q 63 894 46 869 q 110 933 81 919 q 174 947 140 947 q 257 916 225 947 q 285 835 289 885 q 276 631 279 726 q 272 442 274 536 q 271 246 271 349 q 280 210 271 222 q 311 200 289 197 q 415 210 361 203 q 517 222 468 217 q 583 209 554 226 q 629 163 613 192 q 646 103 646 135 q 630 49 646 74 q 586 7 614 24 q 522 -11 558 -10 l 172 -21 z "},"Ł":{"ha":682,"x_min":-19,"x_max":688,"o":"m 306 668 q 365 692 329 692 q 425 668 400 693 l 428 667 q 453 610 454 639 q 426 558 451 581 q 260 409 342 483 q 114 260 179 335 q 63 235 92 236 q 8 258 35 233 l 6 260 q -19 324 -19 288 q 7 382 -18 360 q 162 525 93 457 q 306 668 231 593 m 214 -21 q 152 -8 182 -22 q 105 32 122 6 q 90 92 88 58 q 99 343 97 222 q 99 584 101 464 q 90 835 97 704 q 105 894 88 869 q 152 933 122 919 q 215 947 182 947 q 299 916 267 947 q 326 835 331 885 q 318 631 321 726 q 314 442 315 536 q 313 246 313 349 q 322 210 313 222 q 353 200 331 197 q 456 210 403 203 q 558 222 510 217 q 625 209 596 226 q 671 163 654 192 q 688 103 688 135 q 672 49 688 74 q 628 7 656 24 q 564 -11 600 -10 l 214 -21 z "},"M":{"ha":1015,"x_min":-19,"x_max":1035,"o":"m 278 521 q 269 532 275 532 q 261 522 263 532 q 247 404 253 469 q 237 260 240 339 q 232 88 233 182 q 194 8 232 38 q 106 -21 156 -21 q 17 12 53 -21 q -12 99 -19 44 q 31 404 7 264 q 81 658 56 544 q 129 854 107 771 q 179 922 142 897 q 260 947 217 947 q 345 921 306 947 q 393 851 385 894 q 429 692 413 767 q 464 551 446 618 q 501 422 482 485 q 508 417 503 417 q 515 422 514 417 q 552 551 535 485 q 587 692 569 618 q 622 851 604 767 q 672 921 632 894 q 757 947 711 947 q 838 922 800 947 q 886 854 875 897 q 934 658 908 771 q 985 404 960 544 q 1029 99 1010 264 q 999 12 1035 44 q 913 -21 963 -21 q 820 10 860 -21 q 781 93 781 40 q 778 214 781 156 q 773 326 776 272 q 765 426 769 379 q 754 510 760 472 q 747 522 753 521 q 736 510 740 522 q 685 328 706 410 q 651 185 664 247 q 629 79 638 124 q 587 7 621 35 q 507 -21 553 -21 q 428 7 461 -21 q 388 81 396 35 q 368 176 381 118 q 335 319 356 235 q 278 521 314 403 z "},"N":{"ha":833,"x_min":46,"x_max":788,"o":"m 632 -21 q 563 1 593 -21 q 515 60 532 22 q 455 203 482 140 q 407 314 428 265 q 368 401 386 363 q 334 469 350 439 q 300 528 318 500 q 292 534 297 535 q 286 524 286 533 q 289 310 286 415 q 299 92 292 204 q 283 34 301 60 q 235 -6 265 8 q 172 -21 206 -21 q 112 -6 142 -21 q 64 34 82 8 q 49 92 46 60 q 58 335 56 218 q 58 567 60 451 q 49 810 56 683 q 66 881 47 850 q 116 929 85 911 q 181 947 147 947 q 249 931 215 947 q 313 875 282 915 q 362 806 335 847 q 419 715 389 765 q 478 608 449 664 q 532 496 507 553 q 541 488 535 488 q 547 499 547 488 q 546 615 547 558 q 542 728 544 671 q 535 849 539 786 q 550 906 532 881 q 598 947 568 932 q 658 961 628 961 q 722 947 692 961 q 769 906 751 932 q 785 849 788 881 q 775 602 778 722 q 772 362 772 482 q 771 114 771 242 q 733 17 771 56 q 632 -21 694 -21 z "},"Ń":{"ha":833,"x_min":46,"x_max":788,"o":"m 632 -21 q 563 1 593 -21 q 515 60 532 22 q 455 203 482 140 q 407 314 428 265 q 368 401 386 363 q 334 469 350 439 q 300 528 318 500 q 292 534 297 535 q 286 524 286 533 q 289 310 286 415 q 299 92 292 204 q 283 34 301 60 q 235 -6 265 8 q 172 -21 206 -21 q 112 -6 142 -21 q 64 34 82 8 q 49 92 46 60 q 58 335 56 218 q 58 567 60 451 q 49 810 56 683 q 66 881 47 850 q 116 929 85 911 q 181 947 147 947 q 249 931 215 947 q 313 875 282 915 q 362 806 335 847 q 419 715 389 765 q 478 608 449 664 q 532 496 507 553 q 541 488 535 488 q 547 499 547 488 q 546 615 547 558 q 542 728 544 671 q 535 849 539 786 q 550 906 532 881 q 598 947 568 932 q 658 961 628 961 q 722 947 692 961 q 769 906 751 932 q 785 849 788 881 q 775 602 778 722 q 772 362 772 482 q 771 114 771 242 q 733 17 771 56 q 632 -21 694 -21 m 382 1000 q 317 986 351 978 q 264 1029 283 994 l 263 1032 q 251 1093 244 1063 q 288 1143 258 1124 q 368 1196 329 1169 q 446 1257 407 1222 q 490 1278 465 1275 q 540 1270 515 1281 q 579 1236 564 1260 l 585 1228 q 599 1169 601 1204 q 579 1107 596 1135 q 533 1071 563 1079 q 449 1041 486 1060 q 382 1000 411 1022 z "},"Ň":{"ha":833,"x_min":46,"x_max":788,"o":"m 632 -21 q 563 1 593 -21 q 515 60 532 22 q 455 203 482 140 q 407 314 428 265 q 368 401 386 363 q 334 469 350 439 q 300 528 318 500 q 292 534 297 535 q 286 524 286 533 q 289 310 286 415 q 299 92 292 204 q 283 34 301 60 q 235 -6 265 8 q 172 -21 206 -21 q 112 -6 142 -21 q 64 34 82 8 q 49 92 46 60 q 58 335 56 218 q 58 567 60 451 q 49 810 56 683 q 66 881 47 850 q 116 929 85 911 q 181 947 147 947 q 249 931 215 947 q 313 875 282 915 q 362 806 335 847 q 419 715 389 765 q 478 608 449 664 q 532 496 507 553 q 541 488 535 488 q 547 499 547 488 q 546 615 547 558 q 542 728 544 671 q 535 849 539 786 q 550 906 532 881 q 598 947 568 932 q 658 961 628 961 q 722 947 692 961 q 769 906 751 932 q 785 849 788 881 q 775 602 778 722 q 772 362 772 482 q 771 114 771 242 q 733 17 771 56 q 632 -21 694 -21 m 683 1221 q 694 1183 694 1204 q 683 1141 693 1161 q 653 1110 672 1121 q 558 1051 597 1076 q 475 993 518 1025 q 372 993 424 953 q 283 1064 326 1028 q 197 1122 239 1100 q 160 1166 168 1138 q 167 1221 153 1194 l 168 1224 q 222 1271 189 1264 q 283 1258 254 1278 q 348 1217 318 1238 q 413 1174 378 1196 q 422 1170 418 1171 q 431 1174 425 1169 q 487 1222 463 1194 q 550 1272 511 1250 q 616 1277 579 1292 q 681 1224 653 1263 l 683 1221 z "},"Ņ":{"ha":833,"x_min":46,"x_max":788,"o":"m 632 -21 q 563 1 593 -21 q 515 60 532 22 q 455 203 482 140 q 407 314 428 265 q 368 401 386 363 q 334 469 350 439 q 300 528 318 500 q 292 534 297 535 q 286 524 286 533 q 289 310 286 415 q 299 92 292 204 q 283 34 301 60 q 235 -6 265 8 q 172 -21 206 -21 q 112 -6 142 -21 q 64 34 82 8 q 49 92 46 60 q 58 335 56 218 q 58 567 60 451 q 49 810 56 683 q 66 881 47 850 q 116 929 85 911 q 181 947 147 947 q 249 931 215 947 q 313 875 282 915 q 362 806 335 847 q 419 715 389 765 q 478 608 449 664 q 532 496 507 553 q 541 488 535 488 q 547 499 547 488 q 546 615 547 558 q 542 728 544 671 q 535 849 539 786 q 550 906 532 881 q 598 947 568 932 q 658 961 628 961 q 722 947 692 961 q 769 906 751 932 q 785 849 788 881 q 775 602 778 722 q 772 362 772 482 q 771 114 771 242 q 733 17 771 56 q 632 -21 694 -21 m 438 -344 q 403 -375 428 -362 q 351 -387 379 -387 l 346 -387 q 302 -376 324 -387 q 272 -344 281 -365 q 278 -294 264 -324 q 322 -203 306 -240 q 353 -114 338 -165 q 377 -85 357 -96 q 426 -68 397 -74 q 482 -62 454 -62 l 492 -62 q 537 -76 519 -62 q 558 -112 554 -90 q 547 -158 561 -135 q 493 -253 517 -212 q 438 -344 469 -293 z "},"Ñ":{"ha":833,"x_min":46,"x_max":788,"o":"m 632 -21 q 563 1 593 -21 q 515 60 532 22 q 455 203 482 140 q 407 314 428 265 q 368 401 386 363 q 334 469 350 439 q 300 528 318 500 q 292 534 297 535 q 286 524 286 533 q 289 310 286 415 q 299 92 292 204 q 283 34 301 60 q 235 -6 265 8 q 172 -21 206 -21 q 112 -6 142 -21 q 64 34 82 8 q 49 92 46 60 q 58 335 56 218 q 58 567 60 451 q 49 810 56 683 q 66 881 47 850 q 116 929 85 911 q 181 947 147 947 q 249 931 215 947 q 313 875 282 915 q 362 806 335 847 q 419 715 389 765 q 478 608 449 664 q 532 496 507 553 q 541 488 535 488 q 547 499 547 488 q 546 615 547 558 q 542 728 544 671 q 535 849 539 786 q 550 906 532 881 q 598 947 568 932 q 658 961 628 961 q 722 947 692 961 q 769 906 751 932 q 785 849 788 881 q 775 602 778 722 q 772 362 772 482 q 771 114 771 242 q 733 17 771 56 q 632 -21 694 -21 m 169 1051 q 150 1102 150 1074 q 171 1153 150 1131 q 211 1188 188 1169 q 265 1222 235 1207 q 329 1236 296 1236 q 397 1222 372 1236 q 438 1188 422 1207 q 472 1156 454 1169 q 515 1146 489 1143 q 540 1160 528 1147 q 565 1182 553 1174 q 622 1200 589 1200 q 676 1179 654 1200 l 683 1174 q 708 1132 701 1158 q 710 1079 714 1106 q 689 1036 706 1053 q 610 989 660 1010 q 515 968 560 968 q 444 982 471 968 q 399 1013 417 996 q 367 1044 381 1031 q 333 1058 353 1058 q 305 1051 318 1058 q 278 1033 292 1043 q 224 1018 253 1015 q 175 1044 196 1021 l 169 1051 z "},"O":{"ha":792,"x_min":14,"x_max":778,"o":"m 778 482 q 690 115 778 244 q 413 -26 603 -14 q 182 26 269 -35 q 54 206 94 88 q 14 482 14 324 q 40 665 14 579 q 115 815 65 750 q 237 917 165 879 q 399 953 308 954 q 558 913 488 951 q 678 808 629 875 q 752 657 726 742 q 778 482 778 572 m 236 444 q 275 242 236 311 q 392 182 314 174 q 516 251 476 190 q 556 444 556 313 l 556 482 q 538 621 556 558 q 484 721 519 683 q 396 758 449 758 q 308 721 344 758 q 254 621 272 683 q 236 482 236 558 l 236 444 z "},"Ó":{"ha":792,"x_min":14,"x_max":778,"o":"m 778 482 q 690 115 778 244 q 413 -26 603 -14 q 182 26 269 -35 q 54 206 94 88 q 14 482 14 324 q 40 665 14 579 q 115 815 65 750 q 237 917 165 879 q 399 953 308 954 q 558 913 488 951 q 678 808 629 875 q 752 657 726 742 q 778 482 778 572 m 236 444 q 275 242 236 311 q 392 182 314 174 q 516 251 476 190 q 556 444 556 313 l 556 482 q 538 621 556 558 q 484 721 519 683 q 396 758 449 758 q 308 721 344 758 q 254 621 272 683 q 236 482 236 558 l 236 444 m 354 965 q 290 951 324 943 q 236 994 256 960 l 235 997 q 224 1058 217 1028 q 260 1108 231 1089 q 340 1161 301 1135 q 418 1222 379 1188 q 463 1243 438 1240 q 512 1235 488 1246 q 551 1201 536 1225 l 557 1193 q 571 1135 574 1169 q 551 1072 568 1100 q 506 1036 535 1044 q 421 1006 458 1025 q 354 965 383 988 z "},"Ô":{"ha":792,"x_min":14,"x_max":778,"o":"m 778 482 q 690 115 778 244 q 413 -26 603 -14 q 182 26 269 -35 q 54 206 94 88 q 14 482 14 324 q 40 665 14 579 q 115 815 65 750 q 237 917 165 879 q 399 953 308 954 q 558 913 488 951 q 678 808 629 875 q 752 657 726 742 q 778 482 778 572 m 236 444 q 275 242 236 311 q 392 182 314 174 q 516 251 476 190 q 556 444 556 313 l 556 482 q 538 621 556 558 q 484 721 519 683 q 396 758 449 758 q 308 721 344 758 q 254 621 272 683 q 236 482 236 558 l 236 444 m 636 1086 q 668 1037 667 1069 q 653 972 669 1004 l 651 971 q 615 933 639 944 q 567 922 592 921 q 522 936 542 924 q 464 977 488 957 q 411 1017 440 997 q 381 1017 396 1028 q 328 977 351 997 q 269 936 304 957 q 208 923 243 918 q 150 951 172 928 l 149 954 q 121 1019 121 985 q 156 1072 121 1054 q 219 1109 185 1088 q 287 1154 254 1131 q 342 1199 319 1178 q 394 1221 365 1221 q 447 1201 424 1221 q 541 1140 490 1169 q 636 1086 592 1110 z "},"Ö":{"ha":792,"x_min":14,"x_max":778,"o":"m 778 482 q 690 115 778 244 q 413 -26 603 -14 q 182 26 269 -35 q 54 206 94 88 q 14 482 14 324 q 40 665 14 579 q 115 815 65 750 q 237 917 165 879 q 399 953 308 954 q 558 913 488 951 q 678 808 629 875 q 752 657 726 742 q 778 482 778 572 m 236 444 q 275 242 236 311 q 392 182 314 174 q 516 251 476 190 q 556 444 556 313 l 556 482 q 538 621 556 558 q 484 721 519 683 q 396 758 449 758 q 308 721 344 758 q 254 621 272 683 q 236 482 236 558 l 236 444 m 257 969 q 172 1003 206 969 q 138 1088 138 1036 q 172 1172 138 1138 q 257 1206 206 1206 q 340 1172 306 1206 q 374 1088 374 1138 q 340 1003 374 1036 q 257 969 306 969 m 536 983 q 451 1017 485 983 q 417 1101 417 1050 q 451 1185 417 1151 q 536 1219 485 1219 q 619 1185 585 1219 q 653 1101 653 1151 q 619 1017 653 1050 q 536 983 585 983 z "},"Ò":{"ha":792,"x_min":14,"x_max":778,"o":"m 778 482 q 690 115 778 244 q 413 -26 603 -14 q 182 26 269 -35 q 54 206 94 88 q 14 482 14 324 q 40 665 14 579 q 115 815 65 750 q 237 917 165 879 q 399 953 308 954 q 558 913 488 951 q 678 808 629 875 q 752 657 726 742 q 778 482 778 572 m 236 444 q 275 242 236 311 q 392 182 314 174 q 516 251 476 190 q 556 444 556 313 l 556 482 q 538 621 556 558 q 484 721 519 683 q 396 758 449 758 q 308 721 344 758 q 254 621 272 683 q 236 482 236 558 l 236 444 m 524 1110 q 571 1051 556 1090 q 567 981 586 1013 l 565 978 q 508 940 547 943 q 432 958 469 938 q 355 1002 393 982 q 278 1035 317 1022 q 238 1069 250 1046 q 226 1120 225 1092 q 239 1172 226 1149 l 246 1183 q 306 1235 269 1221 q 371 1221 342 1250 q 452 1157 419 1178 q 524 1110 485 1136 z "},"Ő":{"ha":792,"x_min":14,"x_max":778,"o":"m 778 482 q 690 115 778 244 q 413 -26 603 -14 q 182 26 269 -35 q 54 206 94 88 q 14 482 14 324 q 40 665 14 579 q 115 815 65 750 q 237 917 165 879 q 399 953 308 954 q 558 913 488 951 q 678 808 629 875 q 752 657 726 742 q 778 482 778 572 m 236 444 q 275 242 236 311 q 392 182 314 174 q 516 251 476 190 q 556 444 556 313 l 556 482 q 538 621 556 558 q 484 721 519 683 q 396 758 449 758 q 308 721 344 758 q 254 621 272 683 q 236 482 236 558 l 236 444 m 340 963 q 304 929 331 942 q 250 917 278 917 l 244 917 q 186 944 207 917 q 186 1015 165 972 q 237 1121 214 1069 q 275 1224 260 1172 q 299 1255 282 1243 q 342 1272 317 1267 q 394 1278 367 1278 l 404 1278 q 452 1263 433 1278 q 475 1224 471 1247 q 464 1176 479 1200 q 403 1069 433 1124 q 340 963 372 1015 m 581 963 q 544 929 571 942 q 490 917 518 917 l 485 917 q 426 944 447 917 q 426 1015 406 972 q 481 1123 454 1069 q 533 1231 507 1176 q 569 1265 543 1251 q 635 1278 596 1278 l 644 1278 q 699 1260 676 1278 q 727 1219 721 1243 q 715 1171 733 1194 q 644 1067 675 1119 q 581 963 613 1015 z "},"Ō":{"ha":792,"x_min":14,"x_max":778,"o":"m 778 482 q 690 115 778 244 q 413 -26 603 -14 q 182 26 269 -35 q 54 206 94 88 q 14 482 14 324 q 40 665 14 579 q 115 815 65 750 q 237 917 165 879 q 399 953 308 954 q 558 913 488 951 q 678 808 629 875 q 752 657 726 742 q 778 482 778 572 m 236 444 q 275 242 236 311 q 392 182 314 174 q 516 251 476 190 q 556 444 556 313 l 556 482 q 538 621 556 558 q 484 721 519 683 q 396 758 449 758 q 308 721 344 758 q 254 621 272 683 q 236 482 236 558 l 236 444 m 729 1100 q 714 1051 729 1075 q 676 1012 699 1026 q 626 1000 653 997 q 167 1000 396 1021 q 102 1028 128 996 q 76 1100 76 1060 l 76 1101 q 100 1164 76 1140 q 163 1188 124 1188 q 395 1190 279 1188 q 626 1201 511 1192 q 676 1190 653 1204 q 714 1151 699 1175 q 729 1101 729 1128 l 729 1100 z "},"Ø":{"ha":792,"x_min":14,"x_max":778,"o":"m 150 -74 l 146 -72 q 101 -37 121 -61 q 77 15 82 -14 q 88 67 72 43 q 318 503 214 285 q 508 940 422 722 q 557 991 524 979 q 628 986 590 1003 l 632 985 q 694 931 675 965 q 690 860 713 896 q 463 424 567 642 q 285 -11 360 207 q 253 -56 276 -37 q 203 -79 231 -74 q 150 -74 175 -85 m 778 482 q 690 115 778 244 q 413 -26 603 -14 q 182 26 269 -35 q 54 206 94 88 q 14 482 14 324 q 40 665 14 579 q 115 815 65 750 q 237 917 165 879 q 399 953 308 954 q 558 913 488 951 q 678 808 629 875 q 752 657 726 742 q 778 482 778 572 m 236 444 q 275 242 236 311 q 392 182 314 174 q 516 251 476 190 q 556 444 556 313 l 556 482 q 538 621 556 558 q 484 721 519 683 q 396 758 449 758 q 308 721 344 758 q 254 621 272 683 q 236 482 236 558 l 236 444 z "},"Õ":{"ha":792,"x_min":14,"x_max":778,"o":"m 778 482 q 690 115 778 244 q 413 -26 603 -14 q 182 26 269 -35 q 54 206 94 88 q 14 482 14 324 q 40 665 14 579 q 115 815 65 750 q 237 917 165 879 q 399 953 308 954 q 558 913 488 951 q 678 808 629 875 q 752 657 726 742 q 778 482 778 572 m 236 444 q 275 242 236 311 q 392 182 314 174 q 516 251 476 190 q 556 444 556 313 l 556 482 q 538 621 556 558 q 484 721 519 683 q 396 758 449 758 q 308 721 344 758 q 254 621 272 683 q 236 482 236 558 l 236 444 m 142 1017 q 122 1067 122 1039 q 143 1118 122 1096 q 183 1153 160 1135 q 238 1187 207 1172 q 301 1201 268 1201 q 369 1187 344 1201 q 410 1153 394 1172 q 444 1122 426 1135 q 488 1111 461 1108 q 513 1126 500 1113 q 538 1147 525 1139 q 594 1165 561 1165 q 649 1144 626 1165 l 656 1139 q 680 1097 674 1124 q 682 1044 686 1071 q 661 1001 678 1018 q 582 954 632 975 q 488 933 532 933 q 416 947 443 933 q 371 978 389 961 q 339 1010 353 996 q 306 1024 325 1024 q 277 1016 290 1024 q 250 999 264 1008 q 197 983 225 981 q 147 1010 168 986 l 142 1017 z "},"Œ":{"ha":1233,"x_min":14,"x_max":1208,"o":"m 413 -26 q 182 26 269 -35 q 54 206 94 88 q 14 482 14 324 q 40 665 14 579 q 115 815 65 750 q 237 917 165 879 q 399 953 308 954 q 548 913 488 951 q 643 808 608 875 q 693 657 678 742 q 708 482 708 572 q 697 271 708 363 q 656 115 686 179 q 566 15 625 50 q 413 -26 507 -19 m 236 444 q 275 242 236 311 q 392 182 314 174 q 516 251 476 190 q 556 444 556 313 l 556 482 q 538 621 556 558 q 484 721 519 683 q 396 758 449 758 q 308 721 344 758 q 254 621 272 683 q 236 482 236 558 l 236 444 m 1201 849 q 1174 769 1201 803 q 1100 739 1146 735 q 1002 749 1049 746 q 908 752 956 751 q 806 753 861 753 q 787 744 792 753 q 782 722 782 736 q 785 651 785 685 q 786 588 786 617 q 794 565 786 571 q 814 560 803 558 q 922 569 869 565 q 1036 582 974 572 q 1090 572 1068 588 q 1126 531 1113 557 q 1139 471 1139 504 q 1113 401 1139 426 q 1043 375 1088 375 q 922 372 976 375 q 821 364 867 369 q 799 356 807 363 q 789 336 790 350 q 787 271 789 306 q 781 197 785 236 q 788 178 779 183 q 810 174 796 174 q 914 174 868 174 q 1006 178 960 175 q 1107 188 1051 182 q 1181 158 1153 193 q 1208 75 1208 122 q 1183 5 1208 31 q 1113 -21 1157 -21 l 665 -21 q 585 7 619 -21 q 556 81 551 35 q 574 340 569 215 q 574 588 579 464 q 556 846 569 711 q 585 919 551 892 q 665 947 619 947 l 1106 947 q 1176 921 1150 947 q 1201 849 1201 894 z "},"P":{"ha":783,"x_min":46,"x_max":771,"o":"m 174 -21 q 113 -6 142 -21 q 65 34 83 8 q 49 92 47 60 q 58 341 56 224 q 58 576 60 458 q 49 825 56 694 q 63 881 46 858 q 109 919 81 904 q 165 938 138 933 q 247 949 199 944 q 375 953 294 953 q 588 920 499 953 q 724 820 676 888 q 771 649 771 753 q 720 493 771 563 q 577 383 669 424 q 361 343 485 343 q 338 344 350 343 q 317 347 325 346 q 295 340 304 349 q 288 319 286 332 q 290 210 288 263 q 300 96 292 157 q 286 37 304 64 q 238 -6 268 10 q 174 -21 207 -21 m 300 754 q 283 744 290 753 q 278 724 276 736 q 283 647 282 685 q 285 569 283 608 q 307 543 285 546 q 336 540 318 542 q 376 538 354 538 q 479 552 442 538 q 533 592 517 567 q 550 649 550 618 q 533 702 550 676 q 479 743 517 728 q 376 758 442 758 q 338 758 357 758 q 300 754 319 757 z "},"Þ":{"ha":779,"x_min":46,"x_max":768,"o":"m 171 -26 q 83 4 119 -26 q 49 85 46 35 q 58 340 56 215 q 62 588 61 464 q 63 844 63 713 q 99 923 63 893 q 185 953 136 953 l 188 953 q 235 942 214 953 q 269 908 256 932 q 282 844 282 885 l 282 756 l 374 756 q 587 720 499 756 q 722 622 675 685 q 768 472 768 558 q 741 351 768 408 q 663 250 714 293 q 538 187 611 207 q 369 175 464 167 l 283 185 l 283 82 q 253 3 283 33 q 175 -26 224 -26 l 171 -26 m 282 564 l 283 378 l 378 374 q 510 398 469 368 q 550 472 550 428 q 509 540 550 517 q 375 564 468 564 l 282 564 z "},"Q":{"ha":792,"x_min":14,"x_max":778,"o":"m 778 482 q 714 149 778 276 q 513 -12 650 22 q 501 -29 500 -17 q 525 -101 504 -75 q 585 -135 546 -126 q 647 -165 622 -143 q 672 -228 672 -187 q 647 -295 672 -268 q 579 -318 621 -322 q 378 -224 456 -303 q 292 -25 300 -146 q 281 -10 292 -12 q 76 156 139 29 q 14 482 14 282 q 40 665 14 579 q 115 815 65 750 q 237 917 165 879 q 399 953 308 954 q 558 913 488 951 q 678 808 629 875 q 752 657 726 742 q 778 482 778 572 m 236 444 q 275 243 236 311 q 392 182 314 175 q 516 251 476 190 q 556 444 556 313 l 556 482 q 538 621 556 558 q 484 721 519 683 q 396 758 449 758 q 308 721 344 758 q 254 621 272 683 q 236 482 236 558 l 236 444 z "},"R":{"ha":794,"x_min":47,"x_max":776,"o":"m 172 -21 q 113 -6 142 -21 q 65 34 83 8 q 49 90 47 60 q 57 279 54 189 q 60 457 60 369 q 57 635 60 544 q 49 824 54 725 q 83 896 47 869 q 161 933 119 922 q 242 948 186 940 q 375 956 297 956 q 577 916 493 956 q 706 808 661 876 q 750 656 750 740 q 717 524 750 582 q 619 428 683 465 q 609 411 610 421 q 615 393 608 401 q 669 333 640 369 q 724 244 697 296 q 767 121 750 192 q 760 51 776 83 q 713 -1 744 19 q 644 -21 682 -21 q 570 3 606 -21 q 526 68 535 28 q 487 190 511 138 q 433 283 463 243 q 371 356 404 324 q 366 360 369 358 q 356 363 363 361 q 326 363 343 363 q 299 363 310 364 q 286 338 285 357 q 288 217 286 275 q 299 94 290 160 q 284 36 303 63 q 235 -6 265 10 q 172 -21 206 -21 m 376 556 q 496 582 463 556 q 529 656 529 608 q 496 728 529 703 q 376 754 463 754 q 335 753 356 754 q 303 749 315 751 q 285 739 292 747 q 279 719 279 731 q 285 653 285 686 q 286 586 285 619 q 292 569 286 576 q 308 561 299 561 q 337 557 319 558 q 376 556 354 556 z "},"Ŕ":{"ha":794,"x_min":47,"x_max":776,"o":"m 172 -21 q 113 -6 142 -21 q 65 34 83 8 q 49 90 47 60 q 57 279 54 189 q 60 457 60 369 q 57 635 60 544 q 49 824 54 725 q 83 896 47 869 q 161 933 119 922 q 242 948 186 940 q 375 956 297 956 q 577 916 493 956 q 706 808 661 876 q 750 656 750 740 q 717 524 750 582 q 619 428 683 465 q 609 411 610 421 q 615 393 608 401 q 669 333 640 369 q 724 244 697 296 q 767 121 750 192 q 760 51 776 83 q 713 -1 744 19 q 644 -21 682 -21 q 570 3 606 -21 q 526 68 535 28 q 487 190 511 138 q 433 283 463 243 q 371 356 404 324 q 366 360 369 358 q 356 363 363 361 q 326 363 343 363 q 299 363 310 364 q 286 338 285 357 q 288 217 286 275 q 299 94 290 160 q 284 36 303 63 q 235 -6 265 10 q 172 -21 206 -21 m 376 556 q 496 582 463 556 q 529 656 529 608 q 496 728 529 703 q 376 754 463 754 q 335 753 356 754 q 303 749 315 751 q 285 739 292 747 q 279 719 279 731 q 285 653 285 686 q 286 586 285 619 q 292 569 286 576 q 308 561 299 561 q 337 557 319 558 q 376 556 354 556 m 363 965 q 298 951 332 943 q 244 994 264 960 l 243 997 q 232 1058 225 1028 q 268 1108 239 1089 q 349 1161 310 1135 q 426 1222 388 1188 q 471 1243 446 1240 q 520 1235 496 1246 q 560 1201 544 1225 l 565 1193 q 579 1135 582 1169 q 560 1072 576 1100 q 514 1036 543 1044 q 429 1006 467 1025 q 363 965 392 988 z "},"Ř":{"ha":794,"x_min":47,"x_max":776,"o":"m 172 -21 q 113 -6 142 -21 q 65 34 83 8 q 49 90 47 60 q 57 279 54 189 q 60 457 60 369 q 57 635 60 544 q 49 824 54 725 q 83 896 47 869 q 161 933 119 922 q 242 948 186 940 q 375 956 297 956 q 577 916 493 956 q 706 808 661 876 q 750 656 750 740 q 717 524 750 582 q 619 428 683 465 q 609 411 610 421 q 615 393 608 401 q 669 333 640 369 q 724 244 697 296 q 767 121 750 192 q 760 51 776 83 q 713 -1 744 19 q 644 -21 682 -21 q 570 3 606 -21 q 526 68 535 28 q 487 190 511 138 q 433 283 463 243 q 371 356 404 324 q 366 360 369 358 q 356 363 363 361 q 326 363 343 363 q 299 363 310 364 q 286 338 285 357 q 288 217 286 275 q 299 94 290 160 q 284 36 303 63 q 235 -6 265 10 q 172 -21 206 -21 m 376 556 q 496 582 463 556 q 529 656 529 608 q 496 728 529 703 q 376 754 463 754 q 335 753 356 754 q 303 749 315 751 q 285 739 292 747 q 279 719 279 731 q 285 653 285 686 q 286 586 285 619 q 292 569 286 576 q 308 561 299 561 q 337 557 319 558 q 376 556 354 556 m 664 1186 q 674 1148 675 1169 q 663 1106 674 1126 q 633 1075 653 1086 q 538 1016 578 1042 q 456 958 499 990 q 353 958 404 918 q 263 1029 307 993 q 178 1088 219 1065 q 141 1131 149 1103 q 147 1186 133 1160 l 149 1189 q 202 1236 169 1229 q 264 1224 235 1243 q 328 1182 299 1203 q 393 1139 358 1161 q 402 1135 399 1136 q 411 1139 406 1135 q 467 1188 443 1160 q 531 1238 492 1215 q 597 1242 560 1257 q 661 1189 633 1228 l 664 1186 z "},"Ŗ":{"ha":794,"x_min":47,"x_max":776,"o":"m 172 -21 q 113 -6 142 -21 q 65 34 83 8 q 49 90 47 60 q 57 279 54 189 q 60 457 60 369 q 57 635 60 544 q 49 824 54 725 q 83 896 47 869 q 161 933 119 922 q 242 948 186 940 q 375 956 297 956 q 577 916 493 956 q 706 808 661 876 q 750 656 750 740 q 717 524 750 582 q 619 428 683 465 q 609 411 610 421 q 615 393 608 401 q 669 333 640 369 q 724 244 697 296 q 767 121 750 192 q 760 51 776 83 q 713 -1 744 19 q 644 -21 682 -21 q 570 3 606 -21 q 526 68 535 28 q 487 190 511 138 q 433 283 463 243 q 371 356 404 324 q 366 360 369 358 q 356 363 363 361 q 326 363 343 363 q 299 363 310 364 q 286 338 285 357 q 288 217 286 275 q 299 94 290 160 q 284 36 303 63 q 235 -6 265 10 q 172 -21 206 -21 m 376 556 q 496 582 463 556 q 529 656 529 608 q 496 728 529 703 q 376 754 463 754 q 335 753 356 754 q 303 749 315 751 q 285 739 292 747 q 279 719 279 731 q 285 653 285 686 q 286 586 285 619 q 292 569 286 576 q 308 561 299 561 q 337 557 319 558 q 376 556 354 556 m 418 -344 q 384 -375 408 -362 q 332 -387 360 -387 l 326 -387 q 283 -376 304 -387 q 253 -344 261 -365 q 258 -294 244 -324 q 302 -203 286 -240 q 333 -114 318 -165 q 358 -85 338 -96 q 406 -68 378 -74 q 463 -62 435 -62 l 472 -62 q 517 -76 500 -62 q 538 -112 535 -90 q 528 -158 542 -135 q 474 -253 497 -212 q 418 -344 450 -293 z "},"S":{"ha":656,"x_min":7,"x_max":649,"o":"m 649 278 q 602 110 649 178 q 474 8 556 43 q 283 -26 392 -26 q 176 -17 231 -26 q 72 13 122 -7 q 21 58 35 29 q 7 122 7 86 q 22 175 7 150 q 60 216 38 200 q 109 235 83 232 q 157 225 135 239 q 222 194 189 206 q 296 182 254 182 q 394 204 361 182 q 426 278 426 226 q 390 341 426 314 q 271 390 353 368 q 78 506 146 426 q 10 693 10 585 q 88 888 10 822 q 297 953 167 953 q 499 897 411 953 q 546 830 539 869 q 521 757 553 790 l 514 750 q 446 715 485 722 q 372 728 407 707 q 334 749 351 740 q 297 758 317 758 q 238 740 258 758 q 218 686 218 721 q 246 631 219 651 q 333 596 272 610 q 565 478 482 561 q 649 278 649 396 z "},"Ś":{"ha":656,"x_min":7,"x_max":649,"o":"m 649 278 q 602 110 649 178 q 474 8 556 43 q 283 -26 392 -26 q 176 -17 231 -26 q 72 13 122 -7 q 21 58 35 29 q 7 122 7 86 q 22 175 7 150 q 60 216 38 200 q 109 235 83 232 q 157 225 135 239 q 222 194 189 206 q 296 182 254 182 q 394 204 361 182 q 426 278 426 226 q 390 341 426 314 q 271 390 353 368 q 78 506 146 426 q 10 693 10 585 q 88 888 10 822 q 297 953 167 953 q 499 897 411 953 q 546 830 539 869 q 521 757 553 790 l 514 750 q 446 715 485 722 q 372 728 407 707 q 334 749 351 740 q 297 758 317 758 q 238 740 258 758 q 218 686 218 721 q 246 631 219 651 q 333 596 272 610 q 565 478 482 561 q 649 278 649 396 m 254 965 q 190 951 224 943 q 136 994 156 960 l 135 997 q 124 1058 117 1028 q 160 1108 131 1089 q 240 1161 201 1135 q 318 1222 279 1188 q 363 1243 338 1240 q 412 1235 388 1246 q 451 1201 436 1225 l 457 1193 q 471 1135 474 1169 q 451 1072 468 1100 q 406 1036 435 1044 q 321 1006 358 1025 q 254 965 283 988 z "},"Š":{"ha":656,"x_min":7,"x_max":649,"o":"m 649 278 q 602 110 649 178 q 474 8 556 43 q 283 -26 392 -26 q 176 -17 231 -26 q 72 13 122 -7 q 21 58 35 29 q 7 122 7 86 q 22 175 7 150 q 60 216 38 200 q 109 235 83 232 q 157 225 135 239 q 222 194 189 206 q 296 182 254 182 q 394 204 361 182 q 426 278 426 226 q 390 341 426 314 q 271 390 353 368 q 78 506 146 426 q 10 693 10 585 q 88 888 10 822 q 297 953 167 953 q 499 897 411 953 q 546 830 539 869 q 521 757 553 790 l 514 750 q 446 715 485 722 q 372 728 407 707 q 334 749 351 740 q 297 758 317 758 q 238 740 258 758 q 218 686 218 721 q 246 631 219 651 q 333 596 272 610 q 565 478 482 561 q 649 278 649 396 m 556 1186 q 566 1148 567 1169 q 555 1106 565 1126 q 525 1075 544 1086 q 430 1016 469 1042 q 347 958 390 990 q 244 958 296 918 q 155 1029 199 993 q 69 1088 111 1065 q 33 1131 40 1103 q 39 1186 25 1160 l 40 1189 q 94 1236 61 1229 q 156 1224 126 1243 q 220 1182 190 1203 q 285 1139 250 1161 q 294 1135 290 1136 q 303 1139 297 1135 q 359 1188 335 1160 q 422 1238 383 1215 q 488 1242 451 1257 q 553 1189 525 1228 l 556 1186 z "},"Ş":{"ha":656,"x_min":7,"x_max":649,"o":"m 649 278 q 602 110 649 178 q 474 8 556 43 q 283 -26 392 -26 q 176 -17 231 -26 q 72 13 122 -7 q 21 58 35 29 q 7 122 7 86 q 22 175 7 150 q 60 216 38 200 q 109 235 83 232 q 157 225 135 239 q 222 194 189 206 q 296 182 254 182 q 394 204 361 182 q 426 278 426 226 q 390 341 426 314 q 271 390 353 368 q 78 506 146 426 q 10 693 10 585 q 88 888 10 822 q 297 953 167 953 q 499 897 411 953 q 546 830 539 869 q 521 757 553 790 l 514 750 q 446 715 485 722 q 372 728 407 707 q 334 749 351 740 q 297 758 317 758 q 238 740 258 758 q 218 686 218 721 q 246 631 219 651 q 333 596 272 610 q 565 478 482 561 q 649 278 649 396 m 275 -294 q 241 -292 258 -294 q 207 -283 224 -289 q 168 -250 178 -271 q 161 -203 158 -229 l 161 -201 q 217 -156 165 -153 q 244 -160 232 -157 q 269 -162 256 -162 q 303 -140 303 -162 q 292 -123 303 -126 q 254 -119 281 -119 q 217 -115 235 -119 q 188 -99 199 -111 q 181 -67 178 -87 l 197 28 l 353 28 l 338 -43 q 381 -53 361 -44 q 413 -81 401 -62 q 425 -125 425 -99 q 407 -207 425 -168 q 356 -270 389 -246 q 275 -294 322 -294 z "},"Ș":{"ha":656,"x_min":7,"x_max":649,"o":"m 649 278 q 602 110 649 178 q 474 8 556 43 q 283 -26 392 -26 q 176 -17 231 -26 q 72 13 122 -7 q 21 58 35 29 q 7 122 7 86 q 22 175 7 150 q 60 216 38 200 q 109 235 83 232 q 157 225 135 239 q 222 194 189 206 q 296 182 254 182 q 394 204 361 182 q 426 278 426 226 q 390 341 426 314 q 271 390 353 368 q 78 506 146 426 q 10 693 10 585 q 88 888 10 822 q 297 953 167 953 q 499 897 411 953 q 546 830 539 869 q 521 757 553 790 l 514 750 q 446 715 485 722 q 372 728 407 707 q 334 749 351 740 q 297 758 317 758 q 238 740 258 758 q 218 686 218 721 q 246 631 219 651 q 333 596 272 610 q 565 478 482 561 q 649 278 649 396 m 297 -344 q 263 -375 288 -362 q 211 -387 239 -387 l 206 -387 q 162 -376 183 -387 q 132 -344 140 -365 q 138 -294 124 -324 q 181 -203 165 -240 q 213 -114 197 -165 q 237 -85 217 -96 q 285 -68 257 -74 q 342 -62 314 -62 l 351 -62 q 397 -76 379 -62 q 417 -112 414 -90 q 407 -158 421 -135 q 353 -253 376 -212 q 297 -344 329 -293 z "},"ẞ":{"ha":978,"x_min":46,"x_max":971,"o":"m 299 108 q 284 47 301 75 q 238 0 267 18 q 175 -18 208 -18 l 172 -18 q 110 0 139 -18 q 63 47 81 18 q 49 108 46 75 q 57 296 54 207 q 60 472 60 385 q 57 648 60 558 q 49 835 54 738 q 83 916 46 885 q 172 947 121 947 l 788 947 q 842 924 824 947 q 862 871 861 901 q 839 813 863 840 l 681 614 q 674 594 671 604 q 692 579 678 583 q 851 519 789 550 q 942 442 913 489 q 971 321 971 396 q 925 144 971 222 q 797 19 879 65 q 606 -26 715 -26 q 494 -8 550 -26 q 392 29 439 10 q 340 81 351 46 q 347 154 328 117 l 351 161 q 408 220 371 196 q 482 232 444 244 q 551 201 521 218 q 622 181 581 183 q 715 208 682 179 q 749 288 749 238 q 711 353 749 324 q 594 403 674 382 l 464 436 q 405 469 426 446 q 383 522 383 492 q 407 581 383 551 l 518 721 q 524 743 529 733 q 503 753 519 753 l 311 753 q 285 726 285 753 q 285 518 285 617 q 290 320 286 419 q 299 108 293 221 z "},"T":{"ha":722,"x_min":7,"x_max":715,"o":"m 485 85 q 450 4 488 35 q 363 -26 413 -26 q 272 4 310 -26 q 236 85 235 35 q 244 296 242 199 q 248 489 247 393 q 249 690 249 585 q 210 738 249 739 q 158 735 183 736 q 106 731 132 733 q 34 762 61 728 q 7 840 7 796 q 34 915 7 886 q 106 939 61 943 q 360 936 233 929 q 615 953 486 943 q 688 922 660 957 q 715 840 715 888 q 688 762 715 796 q 615 731 660 728 q 568 735 592 733 q 521 738 544 736 q 472 690 472 739 q 474 488 472 585 q 478 293 475 390 q 485 85 481 196 z "},"Ť":{"ha":722,"x_min":7,"x_max":715,"o":"m 485 85 q 450 4 488 35 q 363 -26 413 -26 q 272 4 310 -26 q 236 85 235 35 q 244 296 242 199 q 248 489 247 393 q 249 690 249 585 q 210 738 249 739 q 158 735 183 736 q 106 731 132 733 q 34 762 61 728 q 7 840 7 796 q 34 915 7 886 q 106 939 61 943 q 360 936 233 929 q 615 953 486 943 q 688 922 660 957 q 715 840 715 888 q 688 762 715 796 q 615 731 660 728 q 568 735 592 733 q 521 738 544 736 q 472 690 472 739 q 474 488 472 585 q 478 293 475 390 q 485 85 481 196 m 621 1186 q 631 1148 632 1169 q 620 1106 631 1126 q 590 1075 610 1086 q 495 1016 535 1042 q 413 958 456 990 q 310 958 361 918 q 220 1029 264 993 q 135 1088 176 1065 q 98 1131 106 1103 q 104 1186 90 1160 l 106 1189 q 159 1236 126 1229 q 221 1224 192 1243 q 285 1182 256 1203 q 350 1139 315 1161 q 359 1135 356 1136 q 368 1139 363 1135 q 424 1188 400 1160 q 488 1238 449 1215 q 553 1242 517 1257 q 618 1189 590 1228 l 621 1186 z "},"Ţ":{"ha":722,"x_min":7,"x_max":715,"o":"m 485 85 q 450 4 488 35 q 363 -26 413 -26 q 272 4 310 -26 q 236 85 235 35 q 244 296 242 199 q 248 489 247 393 q 249 690 249 585 q 210 738 249 739 q 158 735 183 736 q 106 731 132 733 q 34 762 61 728 q 7 840 7 796 q 34 915 7 886 q 106 939 61 943 q 360 936 233 929 q 615 953 486 943 q 688 922 660 957 q 715 840 715 888 q 688 762 715 796 q 615 731 660 728 q 568 735 592 733 q 521 738 544 736 q 472 690 472 739 q 474 488 472 585 q 478 293 475 390 q 485 85 481 196 m 354 -294 q 320 -292 338 -294 q 286 -283 303 -289 q 247 -250 257 -271 q 240 -203 238 -229 l 240 -201 q 296 -156 244 -153 q 323 -160 311 -157 q 349 -162 335 -162 q 382 -140 382 -162 q 371 -123 382 -126 q 333 -119 360 -119 q 296 -115 314 -119 q 267 -99 278 -111 q 260 -67 257 -87 l 276 28 l 432 28 l 417 -43 q 460 -53 440 -44 q 492 -81 481 -62 q 504 -125 504 -99 q 486 -207 504 -168 q 435 -270 468 -246 q 354 -294 401 -294 z "},"Ț":{"ha":722,"x_min":7,"x_max":715,"o":"m 485 85 q 450 4 488 35 q 363 -26 413 -26 q 272 4 310 -26 q 236 85 235 35 q 244 296 242 199 q 248 489 247 393 q 249 690 249 585 q 210 738 249 739 q 158 735 183 736 q 106 731 132 733 q 34 762 61 728 q 7 840 7 796 q 34 915 7 886 q 106 939 61 943 q 360 936 233 929 q 615 953 486 943 q 688 922 660 957 q 715 840 715 888 q 688 762 715 796 q 615 731 660 728 q 568 735 592 733 q 521 738 544 736 q 472 690 472 739 q 474 488 472 585 q 478 293 475 390 q 485 85 481 196 m 375 -344 q 341 -375 365 -362 q 289 -387 317 -387 l 283 -387 q 240 -376 261 -387 q 210 -344 218 -365 q 215 -294 201 -324 q 259 -203 243 -240 q 290 -114 275 -165 q 315 -85 294 -96 q 363 -68 335 -74 q 419 -62 392 -62 l 429 -62 q 474 -76 457 -62 q 495 -112 492 -90 q 485 -158 499 -135 q 431 -253 454 -212 q 375 -344 407 -293 z "},"U":{"ha":803,"x_min":15,"x_max":757,"o":"m 143 947 q 223 916 192 947 q 254 836 254 885 q 254 688 254 756 q 254 552 254 619 q 254 404 254 485 q 283 237 254 292 q 386 182 313 182 q 489 237 460 182 q 518 404 518 292 q 517 556 518 485 q 514 697 517 626 q 504 847 511 767 q 519 906 501 881 q 567 947 538 932 q 629 961 597 961 q 691 947 661 961 q 739 906 721 932 q 754 847 757 881 q 744 697 747 767 q 741 556 742 626 q 740 404 740 485 q 701 169 740 269 q 584 17 663 69 q 383 -26 506 -35 q 124 93 215 -15 q 32 404 32 201 q 31 551 32 485 q 28 685 31 618 q 18 833 25 753 q 33 892 15 867 q 81 933 51 918 q 143 947 111 947 z "},"Ú":{"ha":803,"x_min":15,"x_max":757,"o":"m 143 947 q 223 916 192 947 q 254 836 254 885 q 254 688 254 756 q 254 552 254 619 q 254 404 254 485 q 283 237 254 292 q 386 182 313 182 q 489 237 460 182 q 518 404 518 292 q 517 556 518 485 q 514 697 517 626 q 504 847 511 767 q 519 906 501 881 q 567 947 538 932 q 629 961 597 961 q 691 947 661 961 q 739 906 721 932 q 754 847 757 881 q 744 697 747 767 q 741 556 742 626 q 740 404 740 485 q 701 169 740 269 q 584 17 663 69 q 383 -26 506 -35 q 124 93 215 -15 q 32 404 32 201 q 31 551 32 485 q 28 685 31 618 q 18 833 25 753 q 33 892 15 867 q 81 933 51 918 q 143 947 111 947 m 344 965 q 280 951 314 943 q 226 994 246 960 l 225 997 q 214 1058 207 1028 q 250 1108 221 1089 q 331 1161 292 1135 q 408 1222 369 1188 q 453 1243 428 1240 q 502 1235 478 1246 q 542 1201 526 1225 l 547 1193 q 561 1135 564 1169 q 542 1072 558 1100 q 496 1036 525 1044 q 411 1006 449 1025 q 344 965 374 988 z "},"Û":{"ha":803,"x_min":15,"x_max":757,"o":"m 143 947 q 223 916 192 947 q 254 836 254 885 q 254 688 254 756 q 254 552 254 619 q 254 404 254 485 q 283 237 254 292 q 386 182 313 182 q 489 237 460 182 q 518 404 518 292 q 517 556 518 485 q 514 697 517 626 q 504 847 511 767 q 519 906 501 881 q 567 947 538 932 q 629 961 597 961 q 691 947 661 961 q 739 906 721 932 q 754 847 757 881 q 744 697 747 767 q 741 556 742 626 q 740 404 740 485 q 701 169 740 269 q 584 17 663 69 q 383 -26 506 -35 q 124 93 215 -15 q 32 404 32 201 q 31 551 32 485 q 28 685 31 618 q 18 833 25 753 q 33 892 15 867 q 81 933 51 918 q 143 947 111 947 m 626 1086 q 658 1037 657 1069 q 643 972 660 1004 l 642 971 q 606 933 629 944 q 557 922 582 921 q 513 936 532 924 q 454 977 478 957 q 401 1017 431 997 q 371 1017 386 1028 q 318 977 342 997 q 260 936 294 957 q 198 923 233 918 q 140 951 163 928 l 139 954 q 111 1019 111 985 q 146 1072 111 1054 q 210 1109 175 1088 q 277 1154 244 1131 q 332 1199 310 1178 q 385 1221 356 1221 q 438 1201 414 1221 q 531 1140 481 1169 q 626 1086 582 1110 z "},"Ü":{"ha":803,"x_min":15,"x_max":757,"o":"m 143 947 q 223 916 192 947 q 254 836 254 885 q 254 688 254 756 q 254 552 254 619 q 254 404 254 485 q 283 237 254 292 q 386 182 313 182 q 489 237 460 182 q 518 404 518 292 q 517 556 518 485 q 514 697 517 626 q 504 847 511 767 q 519 906 501 881 q 567 947 538 932 q 629 961 597 961 q 691 947 661 961 q 739 906 721 932 q 754 847 757 881 q 744 697 747 767 q 741 556 742 626 q 740 404 740 485 q 701 169 740 269 q 584 17 663 69 q 383 -26 506 -35 q 124 93 215 -15 q 32 404 32 201 q 31 551 32 485 q 28 685 31 618 q 18 833 25 753 q 33 892 15 867 q 81 933 51 918 q 143 947 111 947 m 247 969 q 162 1003 196 969 q 128 1088 128 1036 q 162 1172 128 1138 q 247 1206 196 1206 q 330 1172 296 1206 q 364 1088 364 1138 q 330 1003 364 1036 q 247 969 296 969 m 526 983 q 441 1017 475 983 q 407 1101 407 1050 q 441 1185 407 1151 q 526 1219 475 1219 q 609 1185 575 1219 q 643 1101 643 1151 q 609 1017 643 1050 q 526 983 575 983 z "},"Ù":{"ha":803,"x_min":15,"x_max":757,"o":"m 143 947 q 223 916 192 947 q 254 836 254 885 q 254 688 254 756 q 254 552 254 619 q 254 404 254 485 q 283 237 254 292 q 386 182 313 182 q 489 237 460 182 q 518 404 518 292 q 517 556 518 485 q 514 697 517 626 q 504 847 511 767 q 519 906 501 881 q 567 947 538 932 q 629 961 597 961 q 691 947 661 961 q 739 906 721 932 q 754 847 757 881 q 744 697 747 767 q 741 556 742 626 q 740 404 740 485 q 701 169 740 269 q 584 17 663 69 q 383 -26 506 -35 q 124 93 215 -15 q 32 404 32 201 q 31 551 32 485 q 28 685 31 618 q 18 833 25 753 q 33 892 15 867 q 81 933 51 918 q 143 947 111 947 m 514 1110 q 561 1051 546 1090 q 557 981 576 1013 l 556 978 q 499 940 538 943 q 422 958 460 938 q 345 1002 383 982 q 268 1035 307 1022 q 228 1069 240 1046 q 216 1120 215 1092 q 229 1172 217 1149 l 236 1183 q 296 1235 260 1221 q 361 1221 332 1250 q 442 1157 410 1178 q 514 1110 475 1136 z "},"Ű":{"ha":803,"x_min":15,"x_max":757,"o":"m 143 947 q 223 916 192 947 q 254 836 254 885 q 254 688 254 756 q 254 552 254 619 q 254 404 254 485 q 283 237 254 292 q 386 182 313 182 q 489 237 460 182 q 518 404 518 292 q 517 556 518 485 q 514 697 517 626 q 504 847 511 767 q 519 906 501 881 q 567 947 538 932 q 629 961 597 961 q 691 947 661 961 q 739 906 721 932 q 754 847 757 881 q 744 697 747 767 q 741 556 742 626 q 740 404 740 485 q 701 169 740 269 q 584 17 663 69 q 383 -26 506 -35 q 124 93 215 -15 q 32 404 32 201 q 31 551 32 485 q 28 685 31 618 q 18 833 25 753 q 33 892 15 867 q 81 933 51 918 q 143 947 111 947 m 331 963 q 294 929 321 942 q 240 917 268 917 l 235 917 q 176 944 197 917 q 176 1015 156 972 q 227 1121 204 1069 q 265 1224 250 1172 q 290 1255 272 1243 q 332 1272 307 1267 q 385 1278 357 1278 l 394 1278 q 442 1263 424 1278 q 465 1224 461 1247 q 454 1176 469 1200 q 393 1069 424 1124 q 331 963 363 1015 m 571 963 q 535 929 561 942 q 481 917 508 917 l 475 917 q 417 944 438 917 q 417 1015 396 972 q 471 1123 444 1069 q 524 1231 497 1176 q 560 1265 533 1251 q 625 1278 586 1278 l 635 1278 q 689 1260 667 1278 q 717 1219 711 1243 q 706 1171 724 1194 q 634 1067 665 1119 q 571 963 603 1015 z "},"Ū":{"ha":803,"x_min":15,"x_max":757,"o":"m 143 947 q 223 916 192 947 q 254 836 254 885 q 254 688 254 756 q 254 552 254 619 q 254 404 254 485 q 283 237 254 292 q 386 182 313 182 q 489 237 460 182 q 518 404 518 292 q 517 556 518 485 q 514 697 517 626 q 504 847 511 767 q 519 906 501 881 q 567 947 538 932 q 629 961 597 961 q 691 947 661 961 q 739 906 721 932 q 754 847 757 881 q 744 697 747 767 q 741 556 742 626 q 740 404 740 485 q 701 169 740 269 q 584 17 663 69 q 383 -26 506 -35 q 124 93 215 -15 q 32 404 32 201 q 31 551 32 485 q 28 685 31 618 q 18 833 25 753 q 33 892 15 867 q 81 933 51 918 q 143 947 111 947 m 719 1100 q 704 1051 719 1075 q 666 1012 689 1026 q 617 1000 643 997 q 157 1000 386 1021 q 92 1028 118 996 q 67 1100 67 1060 l 67 1101 q 90 1164 67 1140 q 153 1188 114 1188 q 385 1190 269 1188 q 617 1201 501 1192 q 666 1190 643 1204 q 704 1151 689 1175 q 719 1101 719 1128 l 719 1100 z "},"Ų":{"ha":803,"x_min":15,"x_max":757,"o":"m 143 947 q 223 916 192 947 q 254 836 254 885 q 254 688 254 756 q 254 552 254 619 q 254 404 254 485 q 283 237 254 292 q 386 182 313 182 q 489 237 460 182 q 518 404 518 292 q 517 556 518 485 q 514 697 517 626 q 504 847 511 767 q 519 906 501 881 q 567 947 538 932 q 629 961 597 961 q 691 947 661 961 q 739 906 721 932 q 754 847 757 881 q 744 697 747 767 q 741 556 742 626 q 740 404 740 485 q 701 169 740 269 q 584 17 663 69 q 383 -26 506 -35 q 124 93 215 -15 q 32 404 32 201 q 31 551 32 485 q 28 685 31 618 q 18 833 25 753 q 33 892 15 867 q 81 933 51 918 q 143 947 111 947 m 543 -250 q 457 -226 496 -250 q 398 -160 418 -201 q 389 -68 378 -119 q 415 -13 396 -35 q 456 22 433 8 q 499 39 479 35 l 553 50 l 576 15 q 563 8 576 15 q 537 -12 550 1 q 524 -49 524 -25 q 533 -69 524 -62 q 556 -78 542 -76 q 583 -81 569 -81 q 634 -97 611 -81 q 657 -147 657 -114 q 621 -225 657 -200 q 543 -250 585 -250 z "},"Ů":{"ha":803,"x_min":15,"x_max":757,"o":"m 143 947 q 223 916 192 947 q 254 836 254 885 q 254 688 254 756 q 254 552 254 619 q 254 404 254 485 q 283 237 254 292 q 386 182 313 182 q 489 237 460 182 q 518 404 518 292 q 517 556 518 485 q 514 697 517 626 q 504 847 511 767 q 519 906 501 881 q 567 947 538 932 q 629 961 597 961 q 691 947 661 961 q 739 906 721 932 q 754 847 757 881 q 744 697 747 767 q 741 556 742 626 q 740 404 740 485 q 701 169 740 269 q 584 17 663 69 q 383 -26 506 -35 q 124 93 215 -15 q 32 404 32 201 q 31 551 32 485 q 28 685 31 618 q 18 833 25 753 q 33 892 15 867 q 81 933 51 918 q 143 947 111 947 m 208 1057 q 233 1147 208 1107 q 297 1210 257 1186 q 386 1233 338 1233 q 475 1210 435 1233 q 539 1147 515 1186 q 563 1057 563 1107 q 544 968 563 1011 q 486 898 525 925 q 386 871 447 871 q 297 897 338 871 q 233 967 257 924 q 208 1057 208 1010 m 338 1056 q 353 1022 338 1038 q 386 1007 368 1007 q 420 1022 406 1007 q 435 1056 435 1038 q 420 1090 435 1075 q 386 1104 406 1104 q 353 1090 368 1104 q 338 1056 338 1075 z "},"Ũ":{"ha":803,"x_min":15,"x_max":757,"o":"m 143 947 q 223 916 192 947 q 254 836 254 885 q 254 688 254 756 q 254 552 254 619 q 254 404 254 485 q 283 237 254 292 q 386 182 313 182 q 489 237 460 182 q 518 404 518 292 q 517 556 518 485 q 514 697 517 626 q 504 847 511 767 q 519 906 501 881 q 567 947 538 932 q 629 961 597 961 q 691 947 661 961 q 739 906 721 932 q 754 847 757 881 q 744 697 747 767 q 741 556 742 626 q 740 404 740 485 q 701 169 740 269 q 584 17 663 69 q 383 -26 506 -35 q 124 93 215 -15 q 32 404 32 201 q 31 551 32 485 q 28 685 31 618 q 18 833 25 753 q 33 892 15 867 q 81 933 51 918 q 143 947 111 947 m 132 1017 q 113 1067 113 1039 q 133 1118 113 1096 q 174 1153 150 1135 q 228 1187 197 1172 q 292 1201 258 1201 q 360 1187 335 1201 q 401 1153 385 1172 q 434 1122 417 1135 q 478 1111 451 1108 q 503 1126 490 1113 q 528 1147 515 1139 q 584 1165 551 1165 q 639 1144 617 1165 l 646 1139 q 670 1097 664 1124 q 672 1044 676 1071 q 651 1001 668 1018 q 572 954 622 975 q 478 933 522 933 q 406 947 433 933 q 361 978 379 961 q 329 1010 343 996 q 296 1024 315 1024 q 267 1016 281 1024 q 240 999 254 1008 q 187 983 215 981 q 138 1010 158 986 l 132 1017 z "},"V":{"ha":763,"x_min":-21,"x_max":782,"o":"m 372 321 q 381 315 375 315 q 389 321 386 315 q 444 483 421 401 q 488 656 468 565 q 521 851 507 747 q 544 905 525 881 q 590 945 563 929 q 646 961 618 961 q 729 936 697 961 q 772 873 761 911 q 769 792 782 835 q 693 549 733 671 q 609 307 653 426 q 514 68 565 188 q 461 3 496 28 q 382 -21 426 -21 q 301 3 336 -21 q 247 68 265 28 q 153 307 197 188 q 69 549 108 426 q -8 792 29 671 q -8 869 -21 833 q 35 926 6 904 q 99 947 64 947 q 188 917 154 947 q 229 836 222 886 q 271 647 250 735 q 317 479 292 558 q 372 321 342 400 z "},"W":{"ha":1065,"x_min":-21,"x_max":1085,"o":"m 304 -21 q 219 5 260 -21 q 167 74 178 31 q 99 334 132 206 q 38 585 65 463 q -11 826 10 708 q 8 913 -21 879 q 93 947 36 947 q 176 922 140 947 q 218 849 211 896 q 240 692 228 771 q 267 533 251 614 q 301 365 282 451 q 308 358 303 358 q 314 365 313 358 q 353 532 335 451 q 384 692 371 613 q 407 847 397 771 q 444 920 414 893 q 519 947 474 947 q 606 920 575 947 q 643 847 636 893 q 666 692 653 771 q 697 532 679 613 q 736 367 715 451 q 742 360 738 360 q 749 367 747 360 q 784 537 769 453 q 810 703 799 621 q 832 863 822 785 q 875 935 839 910 q 960 961 911 961 q 1025 946 996 961 q 1069 903 1054 931 q 1075 838 1085 875 q 1031 657 1054 750 q 985 467 1008 564 q 936 272 961 371 q 883 74 911 172 q 831 5 872 31 q 746 -21 790 -21 q 655 6 697 -21 q 606 78 613 32 q 583 187 596 129 q 558 307 571 244 q 531 433 544 369 q 525 442 529 442 q 519 433 521 442 q 493 307 507 369 q 467 187 479 244 q 444 78 456 129 q 395 6 438 32 q 304 -21 353 -21 z "},"Ẃ":{"ha":1065,"x_min":-21,"x_max":1085,"o":"m 304 -21 q 219 5 260 -21 q 167 74 178 31 q 99 334 132 206 q 38 585 65 463 q -11 826 10 708 q 8 913 -21 879 q 93 947 36 947 q 176 922 140 947 q 218 849 211 896 q 240 692 228 771 q 267 533 251 614 q 301 365 282 451 q 308 358 303 358 q 314 365 313 358 q 353 532 335 451 q 384 692 371 613 q 407 847 397 771 q 444 920 414 893 q 519 947 474 947 q 606 920 575 947 q 643 847 636 893 q 666 692 653 771 q 697 532 679 613 q 736 367 715 451 q 742 360 738 360 q 749 367 747 360 q 784 537 769 453 q 810 703 799 621 q 832 863 822 785 q 875 935 839 910 q 960 961 911 961 q 1025 946 996 961 q 1069 903 1054 931 q 1075 838 1085 875 q 1031 657 1054 750 q 985 467 1008 564 q 936 272 961 371 q 883 74 911 172 q 831 5 872 31 q 746 -21 790 -21 q 655 6 697 -21 q 606 78 613 32 q 583 187 596 129 q 558 307 571 244 q 531 433 544 369 q 525 442 529 442 q 519 433 521 442 q 493 307 507 369 q 467 187 479 244 q 444 78 456 129 q 395 6 438 32 q 304 -21 353 -21 m 483 965 q 419 951 453 943 q 365 994 385 960 l 364 997 q 353 1058 346 1028 q 389 1108 360 1089 q 469 1161 431 1135 q 547 1222 508 1188 q 592 1243 567 1240 q 641 1235 617 1246 q 681 1201 665 1225 l 686 1193 q 700 1135 703 1169 q 681 1072 697 1100 q 635 1036 664 1044 q 550 1006 588 1025 q 483 965 513 988 z "},"Ŵ":{"ha":1065,"x_min":-21,"x_max":1085,"o":"m 304 -21 q 219 5 260 -21 q 167 74 178 31 q 99 334 132 206 q 38 585 65 463 q -11 826 10 708 q 8 913 -21 879 q 93 947 36 947 q 176 922 140 947 q 218 849 211 896 q 240 692 228 771 q 267 533 251 614 q 301 365 282 451 q 308 358 303 358 q 314 365 313 358 q 353 532 335 451 q 384 692 371 613 q 407 847 397 771 q 444 920 414 893 q 519 947 474 947 q 606 920 575 947 q 643 847 636 893 q 666 692 653 771 q 697 532 679 613 q 736 367 715 451 q 742 360 738 360 q 749 367 747 360 q 784 537 769 453 q 810 703 799 621 q 832 863 822 785 q 875 935 839 910 q 960 961 911 961 q 1025 946 996 961 q 1069 903 1054 931 q 1075 838 1085 875 q 1031 657 1054 750 q 985 467 1008 564 q 936 272 961 371 q 883 74 911 172 q 831 5 872 31 q 746 -21 790 -21 q 655 6 697 -21 q 606 78 613 32 q 583 187 596 129 q 558 307 571 244 q 531 433 544 369 q 525 442 529 442 q 519 433 521 442 q 493 307 507 369 q 467 187 479 244 q 444 78 456 129 q 395 6 438 32 q 304 -21 353 -21 m 765 1086 q 797 1037 796 1069 q 782 972 799 1004 l 781 971 q 744 933 768 944 q 696 922 721 921 q 651 936 671 924 q 593 977 617 957 q 540 1017 569 997 q 510 1017 525 1028 q 457 977 481 997 q 399 936 433 957 q 337 923 372 918 q 279 951 301 928 l 278 954 q 250 1019 250 985 q 285 1072 250 1054 q 349 1109 314 1088 q 416 1154 383 1131 q 471 1199 449 1178 q 524 1221 494 1221 q 576 1201 553 1221 q 670 1140 619 1169 q 765 1086 721 1110 z "},"Ẅ":{"ha":1065,"x_min":-21,"x_max":1085,"o":"m 304 -21 q 219 5 260 -21 q 167 74 178 31 q 99 334 132 206 q 38 585 65 463 q -11 826 10 708 q 8 913 -21 879 q 93 947 36 947 q 176 922 140 947 q 218 849 211 896 q 240 692 228 771 q 267 533 251 614 q 301 365 282 451 q 308 358 303 358 q 314 365 313 358 q 353 532 335 451 q 384 692 371 613 q 407 847 397 771 q 444 920 414 893 q 519 947 474 947 q 606 920 575 947 q 643 847 636 893 q 666 692 653 771 q 697 532 679 613 q 736 367 715 451 q 742 360 738 360 q 749 367 747 360 q 784 537 769 453 q 810 703 799 621 q 832 863 822 785 q 875 935 839 910 q 960 961 911 961 q 1025 946 996 961 q 1069 903 1054 931 q 1075 838 1085 875 q 1031 657 1054 750 q 985 467 1008 564 q 936 272 961 371 q 883 74 911 172 q 831 5 872 31 q 746 -21 790 -21 q 655 6 697 -21 q 606 78 613 32 q 583 187 596 129 q 558 307 571 244 q 531 433 544 369 q 525 442 529 442 q 519 433 521 442 q 493 307 507 369 q 467 187 479 244 q 444 78 456 129 q 395 6 438 32 q 304 -21 353 -21 m 386 969 q 301 1003 335 969 q 267 1088 267 1036 q 301 1172 267 1138 q 386 1206 335 1206 q 469 1172 435 1206 q 503 1088 503 1138 q 469 1003 503 1036 q 386 969 435 969 m 665 983 q 580 1017 614 983 q 546 1101 546 1050 q 580 1185 546 1151 q 665 1219 614 1219 q 748 1185 714 1219 q 782 1101 782 1151 q 748 1017 782 1050 q 665 983 714 983 z "},"Ẁ":{"ha":1065,"x_min":-21,"x_max":1085,"o":"m 304 -21 q 219 5 260 -21 q 167 74 178 31 q 99 334 132 206 q 38 585 65 463 q -11 826 10 708 q 8 913 -21 879 q 93 947 36 947 q 176 922 140 947 q 218 849 211 896 q 240 692 228 771 q 267 533 251 614 q 301 365 282 451 q 308 358 303 358 q 314 365 313 358 q 353 532 335 451 q 384 692 371 613 q 407 847 397 771 q 444 920 414 893 q 519 947 474 947 q 606 920 575 947 q 643 847 636 893 q 666 692 653 771 q 697 532 679 613 q 736 367 715 451 q 742 360 738 360 q 749 367 747 360 q 784 537 769 453 q 810 703 799 621 q 832 863 822 785 q 875 935 839 910 q 960 961 911 961 q 1025 946 996 961 q 1069 903 1054 931 q 1075 838 1085 875 q 1031 657 1054 750 q 985 467 1008 564 q 936 272 961 371 q 883 74 911 172 q 831 5 872 31 q 746 -21 790 -21 q 655 6 697 -21 q 606 78 613 32 q 583 187 596 129 q 558 307 571 244 q 531 433 544 369 q 525 442 529 442 q 519 433 521 442 q 493 307 507 369 q 467 187 479 244 q 444 78 456 129 q 395 6 438 32 q 304 -21 353 -21 m 653 1110 q 700 1051 685 1090 q 696 981 715 1013 l 694 978 q 638 940 676 943 q 561 958 599 938 q 484 1002 522 982 q 407 1035 446 1022 q 367 1069 379 1046 q 355 1120 354 1092 q 368 1172 356 1149 l 375 1183 q 435 1235 399 1221 q 500 1221 471 1250 q 581 1157 549 1178 q 653 1110 614 1136 z "},"X":{"ha":794,"x_min":1,"x_max":783,"o":"m 106 -21 q 43 -2 69 -21 q 9 49 17 17 q 18 118 1 81 q 85 237 49 178 q 165 353 122 296 q 250 465 208 410 q 250 479 257 472 q 138 642 189 561 q 47 808 88 724 q 34 880 29 849 q 62 929 39 911 q 121 947 85 947 q 200 925 165 947 q 260 839 235 903 q 294 765 278 799 q 331 699 310 731 q 385 628 353 667 q 399 628 392 618 q 452 701 431 667 q 491 773 474 736 q 525 853 508 810 q 578 927 540 893 q 665 961 615 961 q 726 938 701 961 q 760 881 751 915 q 750 808 768 846 q 654 642 710 724 q 535 479 599 560 q 535 465 528 472 q 620 352 578 410 q 700 236 663 294 q 765 118 738 178 q 776 49 783 81 q 742 -2 768 17 q 681 -21 717 -21 q 595 3 636 -21 q 539 74 554 26 q 479 199 514 142 q 399 313 444 257 q 385 313 392 321 q 308 193 342 260 q 246 60 274 126 q 190 -1 231 19 q 106 -21 150 -21 z "},"Y":{"ha":738,"x_min":-18,"x_max":757,"o":"m 364 -21 q 298 -6 328 -21 q 251 35 268 8 q 238 94 233 61 q 249 218 247 161 q 251 340 251 275 q 242 374 251 357 q 151 515 196 443 q 68 663 107 588 q -3 810 29 738 q -12 879 -18 849 q 17 928 -7 910 q 79 947 42 947 q 163 926 125 947 q 214 864 201 904 q 275 705 243 779 q 357 551 307 631 q 371 551 364 542 q 436 649 408 603 q 485 744 464 696 q 524 846 507 792 q 576 929 540 897 q 656 961 613 961 q 719 938 694 961 q 751 881 744 915 q 739 807 757 846 q 665 661 707 735 q 576 515 622 588 q 483 374 531 443 q 474 340 474 357 q 476 218 474 275 q 488 94 479 161 q 475 35 492 61 q 428 -6 458 8 q 364 -21 399 -21 z "},"Ý":{"ha":738,"x_min":-18,"x_max":757,"o":"m 364 -21 q 298 -6 328 -21 q 251 35 268 8 q 238 94 233 61 q 249 218 247 161 q 251 340 251 275 q 242 374 251 357 q 151 515 196 443 q 68 663 107 588 q -3 810 29 738 q -12 879 -18 849 q 17 928 -7 910 q 79 947 42 947 q 163 926 125 947 q 214 864 201 904 q 275 705 243 779 q 357 551 307 631 q 371 551 364 542 q 436 649 408 603 q 485 744 464 696 q 524 846 507 792 q 576 929 540 897 q 656 961 613 961 q 719 938 694 961 q 751 881 744 915 q 739 807 757 846 q 665 661 707 735 q 576 515 622 588 q 483 374 531 443 q 474 340 474 357 q 476 218 474 275 q 488 94 479 161 q 475 35 492 61 q 428 -6 458 8 q 364 -21 399 -21 m 324 965 q 259 951 293 943 q 206 994 225 960 l 204 997 q 193 1058 186 1028 q 229 1108 200 1089 q 310 1161 271 1135 q 388 1222 349 1188 q 432 1243 407 1240 q 481 1235 457 1246 q 521 1201 506 1225 l 526 1193 q 540 1135 543 1169 q 521 1072 538 1100 q 475 1036 504 1044 q 390 1006 428 1025 q 324 965 353 988 z "},"Ŷ":{"ha":738,"x_min":-18,"x_max":757,"o":"m 364 -21 q 298 -6 328 -21 q 251 35 268 8 q 238 94 233 61 q 249 218 247 161 q 251 340 251 275 q 242 374 251 357 q 151 515 196 443 q 68 663 107 588 q -3 810 29 738 q -12 879 -18 849 q 17 928 -7 910 q 79 947 42 947 q 163 926 125 947 q 214 864 201 904 q 275 705 243 779 q 357 551 307 631 q 371 551 364 542 q 436 649 408 603 q 485 744 464 696 q 524 846 507 792 q 576 929 540 897 q 656 961 613 961 q 719 938 694 961 q 751 881 744 915 q 739 807 757 846 q 665 661 707 735 q 576 515 622 588 q 483 374 531 443 q 474 340 474 357 q 476 218 474 275 q 488 94 479 161 q 475 35 492 61 q 428 -6 458 8 q 364 -21 399 -21 m 606 1086 q 638 1037 636 1069 q 622 972 639 1004 l 621 971 q 585 933 608 944 q 536 922 561 921 q 492 936 511 924 q 433 977 457 957 q 381 1017 410 997 q 350 1017 365 1028 q 297 977 321 997 q 239 936 274 957 q 177 923 213 918 q 119 951 142 928 l 118 954 q 90 1019 90 985 q 125 1072 90 1054 q 189 1109 154 1088 q 256 1154 224 1131 q 311 1199 289 1178 q 364 1221 335 1221 q 417 1201 393 1221 q 510 1140 460 1169 q 606 1086 561 1110 z "},"Ÿ":{"ha":738,"x_min":-18,"x_max":757,"o":"m 364 -21 q 298 -6 328 -21 q 251 35 268 8 q 238 94 233 61 q 249 218 247 161 q 251 340 251 275 q 242 374 251 357 q 151 515 196 443 q 68 663 107 588 q -3 810 29 738 q -12 879 -18 849 q 17 928 -7 910 q 79 947 42 947 q 163 926 125 947 q 214 864 201 904 q 275 705 243 779 q 357 551 307 631 q 371 551 364 542 q 436 649 408 603 q 485 744 464 696 q 524 846 507 792 q 576 929 540 897 q 656 961 613 961 q 719 938 694 961 q 751 881 744 915 q 739 807 757 846 q 665 661 707 735 q 576 515 622 588 q 483 374 531 443 q 474 340 474 357 q 476 218 474 275 q 488 94 479 161 q 475 35 492 61 q 428 -6 458 8 q 364 -21 399 -21 m 226 969 q 141 1003 175 969 q 107 1088 107 1036 q 141 1172 107 1138 q 226 1206 175 1206 q 309 1172 275 1206 q 343 1088 343 1138 q 309 1003 343 1036 q 226 969 275 969 m 506 983 q 420 1017 454 983 q 386 1101 386 1050 q 420 1185 386 1151 q 506 1219 454 1219 q 588 1185 554 1219 q 622 1101 622 1151 q 588 1017 622 1050 q 506 983 554 983 z "},"Ỳ":{"ha":738,"x_min":-18,"x_max":757,"o":"m 364 -21 q 298 -6 328 -21 q 251 35 268 8 q 238 94 233 61 q 249 218 247 161 q 251 340 251 275 q 242 374 251 357 q 151 515 196 443 q 68 663 107 588 q -3 810 29 738 q -12 879 -18 849 q 17 928 -7 910 q 79 947 42 947 q 163 926 125 947 q 214 864 201 904 q 275 705 243 779 q 357 551 307 631 q 371 551 364 542 q 436 649 408 603 q 485 744 464 696 q 524 846 507 792 q 576 929 540 897 q 656 961 613 961 q 719 938 694 961 q 751 881 744 915 q 739 807 757 846 q 665 661 707 735 q 576 515 622 588 q 483 374 531 443 q 474 340 474 357 q 476 218 474 275 q 488 94 479 161 q 475 35 492 61 q 428 -6 458 8 q 364 -21 399 -21 m 493 1110 q 540 1051 525 1090 q 536 981 556 1013 l 535 978 q 478 940 517 943 q 401 958 439 938 q 324 1002 363 982 q 247 1035 286 1022 q 207 1069 219 1046 q 195 1120 194 1092 q 208 1172 196 1149 l 215 1183 q 275 1235 239 1221 q 340 1221 311 1250 q 422 1157 389 1178 q 493 1110 454 1136 z "},"Ỹ":{"ha":738,"x_min":-18,"x_max":757,"o":"m 364 -21 q 298 -6 328 -21 q 251 35 268 8 q 238 94 233 61 q 249 218 247 161 q 251 340 251 275 q 242 374 251 357 q 151 515 196 443 q 68 663 107 588 q -3 810 29 738 q -12 879 -18 849 q 17 928 -7 910 q 79 947 42 947 q 163 926 125 947 q 214 864 201 904 q 275 705 243 779 q 357 551 307 631 q 371 551 364 542 q 436 649 408 603 q 485 744 464 696 q 524 846 507 792 q 576 929 540 897 q 656 961 613 961 q 719 938 694 961 q 751 881 744 915 q 739 807 757 846 q 665 661 707 735 q 576 515 622 588 q 483 374 531 443 q 474 340 474 357 q 476 218 474 275 q 488 94 479 161 q 475 35 492 61 q 428 -6 458 8 q 364 -21 399 -21 m 111 1017 q 92 1067 92 1039 q 113 1118 92 1096 q 153 1153 129 1135 q 207 1187 176 1172 q 271 1201 238 1201 q 339 1187 314 1201 q 380 1153 364 1172 q 413 1122 396 1135 q 457 1111 431 1108 q 482 1126 469 1113 q 507 1147 494 1139 q 563 1165 531 1165 q 618 1144 596 1165 l 625 1139 q 649 1097 643 1124 q 651 1044 656 1071 q 631 1001 647 1018 q 551 954 601 975 q 457 933 501 933 q 385 947 413 933 q 340 978 358 961 q 308 1010 322 996 q 275 1024 294 1024 q 247 1016 260 1024 q 219 999 233 1008 q 166 983 194 981 q 117 1010 138 986 l 111 1017 z "},"Z":{"ha":767,"x_min":4,"x_max":754,"o":"m 39 828 q 51 888 39 858 q 85 938 63 918 q 135 953 107 957 q 399 940 267 940 q 661 938 531 939 q 713 921 692 938 q 742 879 733 904 q 748 826 751 854 q 726 778 744 799 l 304 225 q 302 214 300 219 q 313 208 304 208 q 469 213 393 210 q 628 222 546 215 q 686 212 657 225 q 735 169 715 199 q 754 96 754 140 q 738 38 754 67 q 697 -10 722 8 q 642 -26 672 -29 q 378 -13 506 -15 q 114 -11 250 -11 q 60 4 86 -11 q 19 46 35 19 q 4 106 4 72 q 19 168 4 138 q 54 224 35 199 l 429 714 q 431 726 433 721 q 419 732 429 732 q 288 728 354 731 q 154 718 222 726 q 99 731 125 715 q 56 772 72 746 q 39 828 39 799 z "},"Ź":{"ha":767,"x_min":4,"x_max":754,"o":"m 39 828 q 51 888 39 858 q 85 938 63 918 q 135 953 107 957 q 399 940 267 940 q 661 938 531 939 q 713 921 692 938 q 742 879 733 904 q 748 826 751 854 q 726 778 744 799 l 304 225 q 302 214 300 219 q 313 208 304 208 q 469 213 393 210 q 628 222 546 215 q 686 212 657 225 q 735 169 715 199 q 754 96 754 140 q 738 38 754 67 q 697 -10 722 8 q 642 -26 672 -29 q 378 -13 506 -15 q 114 -11 250 -11 q 60 4 86 -11 q 19 46 35 19 q 4 106 4 72 q 19 168 4 138 q 54 224 35 199 l 429 714 q 431 726 433 721 q 419 732 429 732 q 288 728 354 731 q 154 718 222 726 q 99 731 125 715 q 56 772 72 746 q 39 828 39 799 m 335 965 q 270 951 304 943 q 217 994 236 960 l 215 997 q 204 1058 197 1028 q 240 1108 211 1089 q 321 1161 282 1135 q 399 1222 360 1188 q 443 1243 418 1240 q 492 1235 468 1246 q 532 1201 517 1225 l 538 1193 q 551 1135 554 1169 q 532 1072 549 1100 q 486 1036 515 1044 q 401 1006 439 1025 q 335 965 364 988 z "},"Ž":{"ha":767,"x_min":4,"x_max":754,"o":"m 39 828 q 51 888 39 858 q 85 938 63 918 q 135 953 107 957 q 399 940 267 940 q 661 938 531 939 q 713 921 692 938 q 742 879 733 904 q 748 826 751 854 q 726 778 744 799 l 304 225 q 302 214 300 219 q 313 208 304 208 q 469 213 393 210 q 628 222 546 215 q 686 212 657 225 q 735 169 715 199 q 754 96 754 140 q 738 38 754 67 q 697 -10 722 8 q 642 -26 672 -29 q 378 -13 506 -15 q 114 -11 250 -11 q 60 4 86 -11 q 19 46 35 19 q 4 106 4 72 q 19 168 4 138 q 54 224 35 199 l 429 714 q 431 726 433 721 q 419 732 429 732 q 288 728 354 731 q 154 718 222 726 q 99 731 125 715 q 56 772 72 746 q 39 828 39 799 m 636 1186 q 647 1148 647 1169 q 635 1106 646 1126 q 606 1075 625 1086 q 510 1016 550 1042 q 428 958 471 990 q 325 958 376 918 q 235 1029 279 993 q 150 1088 192 1065 q 113 1131 121 1103 q 119 1186 106 1160 l 121 1189 q 174 1236 142 1229 q 236 1224 207 1243 q 301 1182 271 1203 q 365 1139 331 1161 q 374 1135 371 1136 q 383 1139 378 1135 q 440 1188 415 1160 q 503 1238 464 1215 q 569 1242 532 1257 q 633 1189 606 1228 l 636 1186 z "},"Ż":{"ha":767,"x_min":4,"x_max":754,"o":"m 39 828 q 51 888 39 858 q 85 938 63 918 q 135 953 107 957 q 399 940 267 940 q 661 938 531 939 q 713 921 692 938 q 742 879 733 904 q 748 826 751 854 q 726 778 744 799 l 304 225 q 302 214 300 219 q 313 208 304 208 q 469 213 393 210 q 628 222 546 215 q 686 212 657 225 q 735 169 715 199 q 754 96 754 140 q 738 38 754 67 q 697 -10 722 8 q 642 -26 672 -29 q 378 -13 506 -15 q 114 -11 250 -11 q 60 4 86 -11 q 19 46 35 19 q 4 106 4 72 q 19 168 4 138 q 54 224 35 199 l 429 714 q 431 726 433 721 q 419 732 429 732 q 288 728 354 731 q 154 718 222 726 q 99 731 125 715 q 56 772 72 746 q 39 828 39 799 m 260 1090 q 294 1174 260 1140 q 376 1207 329 1207 q 460 1174 426 1207 q 493 1090 493 1140 q 460 1008 493 1043 q 376 974 426 974 q 294 1008 329 974 q 260 1090 260 1043 z "},"Ꞌ":{"ha":244,"x_min":39,"x_max":249,"o":"m 40 913 q 53 969 39 946 q 92 1006 68 993 q 142 1019 117 1019 l 144 1019 q 194 1006 171 1019 q 233 969 218 993 q 246 913 249 946 l 235 746 q 204 679 231 703 q 144 656 178 656 l 142 656 q 80 679 104 656 q 51 746 56 703 l 40 913 z "},"a":{"ha":724,"x_min":36,"x_max":679,"o":"m 286 -26 q 94 60 151 -26 q 36 313 36 146 l 36 347 q 51 471 36 406 q 103 592 67 536 q 203 685 140 649 q 363 721 267 721 q 486 710 433 721 q 581 683 539 699 q 650 638 621 669 q 675 564 679 607 q 667 429 669 496 q 665 301 665 363 q 667 183 665 239 q 675 81 669 126 q 647 13 679 39 q 572 -12 614 -12 q 542 -3 554 -12 q 522 25 531 7 q 510 53 514 42 q 494 64 506 64 q 472 50 485 64 q 437 19 460 36 q 378 -12 414 1 q 286 -26 342 -26 m 321 175 q 374 189 347 175 q 420 226 401 203 q 439 278 439 249 q 440 348 439 317 q 444 410 442 379 q 447 479 446 442 q 428 528 451 526 q 399 532 417 531 q 363 533 382 533 q 308 514 329 533 q 276 465 288 494 q 262 403 265 435 q 258 347 258 372 l 258 313 q 269 210 258 246 q 321 175 279 175 z "},"á":{"ha":724,"x_min":36,"x_max":679,"o":"m 286 -26 q 94 60 151 -26 q 36 313 36 146 l 36 347 q 51 471 36 406 q 103 592 67 536 q 203 685 140 649 q 363 721 267 721 q 486 710 433 721 q 581 683 539 699 q 650 638 621 669 q 675 564 679 607 q 667 429 669 496 q 665 301 665 363 q 667 183 665 239 q 675 81 669 126 q 647 13 679 39 q 572 -12 614 -12 q 542 -3 554 -12 q 522 25 531 7 q 510 53 514 42 q 494 64 506 64 q 472 50 485 64 q 437 19 460 36 q 378 -12 414 1 q 286 -26 342 -26 m 321 175 q 374 189 347 175 q 420 226 401 203 q 439 278 439 249 q 440 348 439 317 q 444 410 442 379 q 447 479 446 442 q 428 528 451 526 q 399 532 417 531 q 363 533 382 533 q 308 514 329 533 q 276 465 288 494 q 262 403 265 435 q 258 347 258 372 l 258 313 q 269 210 258 246 q 321 175 279 175 m 321 792 q 256 778 290 769 q 203 821 222 786 l 201 824 q 190 885 183 854 q 226 935 197 915 q 307 988 268 961 q 385 1049 346 1014 q 429 1069 404 1067 q 478 1062 454 1072 q 518 1028 503 1051 l 524 1019 q 538 961 540 996 q 518 899 535 926 q 472 863 501 871 q 388 833 425 851 q 321 792 350 814 z "},"ă":{"ha":724,"x_min":36,"x_max":679,"o":"m 286 -26 q 94 60 151 -26 q 36 313 36 146 l 36 347 q 51 471 36 406 q 103 592 67 536 q 203 685 140 649 q 363 721 267 721 q 486 710 433 721 q 581 683 539 699 q 650 638 621 669 q 675 564 679 607 q 667 429 669 496 q 665 301 665 363 q 667 183 665 239 q 675 81 669 126 q 647 13 679 39 q 572 -12 614 -12 q 542 -3 554 -12 q 522 25 531 7 q 510 53 514 42 q 494 64 506 64 q 472 50 485 64 q 437 19 460 36 q 378 -12 414 1 q 286 -26 342 -26 m 321 175 q 374 189 347 175 q 420 226 401 203 q 439 278 439 249 q 440 348 439 317 q 444 410 442 379 q 447 479 446 442 q 428 528 451 526 q 399 532 417 531 q 363 533 382 533 q 308 514 329 533 q 276 465 288 494 q 262 403 265 435 q 258 347 258 372 l 258 313 q 269 210 258 246 q 321 175 279 175 m 179 1056 q 233 1038 210 1056 q 267 985 257 1021 q 300 938 276 956 q 356 921 324 921 q 398 927 378 921 q 431 945 418 933 q 444 975 444 957 q 471 1041 444 1013 q 533 1069 497 1069 l 535 1069 q 585 1054 563 1069 q 622 1015 608 1039 q 633 964 636 992 q 588 851 628 901 q 488 770 549 800 q 356 740 426 740 q 236 770 290 740 q 144 849 182 800 q 93 958 107 899 q 111 1028 86 1001 q 178 1056 136 1056 l 179 1056 z "},"ǎ":{"ha":724,"x_min":36,"x_max":679,"o":"m 286 -26 q 94 60 151 -26 q 36 313 36 146 l 36 347 q 51 471 36 406 q 103 592 67 536 q 203 685 140 649 q 363 721 267 721 q 486 710 433 721 q 581 683 539 699 q 650 638 621 669 q 675 564 679 607 q 667 429 669 496 q 665 301 665 363 q 667 183 665 239 q 675 81 669 126 q 647 13 679 39 q 572 -12 614 -12 q 542 -3 554 -12 q 522 25 531 7 q 510 53 514 42 q 494 64 506 64 q 472 50 485 64 q 437 19 460 36 q 378 -12 414 1 q 286 -26 342 -26 m 321 175 q 374 189 347 175 q 420 226 401 203 q 439 278 439 249 q 440 348 439 317 q 444 410 442 379 q 447 479 446 442 q 428 528 451 526 q 399 532 417 531 q 363 533 382 533 q 308 514 329 533 q 276 465 288 494 q 262 403 265 435 q 258 347 258 372 l 258 313 q 269 210 258 246 q 321 175 279 175 m 622 1013 q 633 974 633 996 q 622 933 632 953 q 592 901 611 913 q 497 842 536 868 q 414 785 457 817 q 311 785 363 744 q 222 856 265 819 q 136 914 178 892 q 99 958 107 929 q 106 1013 92 986 l 107 1015 q 160 1063 128 1056 q 222 1050 193 1069 q 287 1008 257 1029 q 351 965 317 988 q 360 962 357 963 q 369 965 364 961 q 426 1014 401 986 q 489 1064 450 1042 q 555 1069 518 1083 q 619 1015 592 1054 l 622 1013 z "},"â":{"ha":724,"x_min":36,"x_max":679,"o":"m 286 -26 q 94 60 151 -26 q 36 313 36 146 l 36 347 q 51 471 36 406 q 103 592 67 536 q 203 685 140 649 q 363 721 267 721 q 486 710 433 721 q 581 683 539 699 q 650 638 621 669 q 675 564 679 607 q 667 429 669 496 q 665 301 665 363 q 667 183 665 239 q 675 81 669 126 q 647 13 679 39 q 572 -12 614 -12 q 542 -3 554 -12 q 522 25 531 7 q 510 53 514 42 q 494 64 506 64 q 472 50 485 64 q 437 19 460 36 q 378 -12 414 1 q 286 -26 342 -26 m 321 175 q 374 189 347 175 q 420 226 401 203 q 439 278 439 249 q 440 348 439 317 q 444 410 442 379 q 447 479 446 442 q 428 528 451 526 q 399 532 417 531 q 363 533 382 533 q 308 514 329 533 q 276 465 288 494 q 262 403 265 435 q 258 347 258 372 l 258 313 q 269 210 258 246 q 321 175 279 175 m 603 913 q 635 863 633 896 q 619 799 636 831 l 618 797 q 582 759 606 771 q 533 749 558 747 q 489 763 508 750 q 431 803 454 783 q 378 843 407 824 q 347 843 363 854 q 294 803 318 824 q 236 763 271 783 q 174 749 210 744 q 117 778 139 754 l 115 781 q 88 846 88 811 q 122 899 88 881 q 186 935 151 914 q 253 981 221 957 q 308 1025 286 1004 q 361 1047 332 1047 q 414 1028 390 1047 q 508 966 457 996 q 603 913 558 936 z "},"ä":{"ha":724,"x_min":36,"x_max":679,"o":"m 286 -26 q 94 60 151 -26 q 36 313 36 146 l 36 347 q 51 471 36 406 q 103 592 67 536 q 203 685 140 649 q 363 721 267 721 q 486 710 433 721 q 581 683 539 699 q 650 638 621 669 q 675 564 679 607 q 667 429 669 496 q 665 301 665 363 q 667 183 665 239 q 675 81 669 126 q 647 13 679 39 q 572 -12 614 -12 q 542 -3 554 -12 q 522 25 531 7 q 510 53 514 42 q 494 64 506 64 q 472 50 485 64 q 437 19 460 36 q 378 -12 414 1 q 286 -26 342 -26 m 321 175 q 374 189 347 175 q 420 226 401 203 q 439 278 439 249 q 440 348 439 317 q 444 410 442 379 q 447 479 446 442 q 428 528 451 526 q 399 532 417 531 q 363 533 382 533 q 308 514 329 533 q 276 465 288 494 q 262 403 265 435 q 258 347 258 372 l 258 313 q 269 210 258 246 q 321 175 279 175 m 224 796 q 138 829 172 796 q 104 914 104 863 q 138 998 104 964 q 224 1032 172 1032 q 306 998 272 1032 q 340 914 340 964 q 306 829 340 863 q 224 796 272 796 m 503 810 q 417 843 451 810 q 383 928 383 876 q 417 1012 383 978 q 503 1046 451 1046 q 585 1012 551 1046 q 619 928 619 978 q 585 843 619 876 q 503 810 551 810 z "},"à":{"ha":724,"x_min":36,"x_max":679,"o":"m 286 -26 q 94 60 151 -26 q 36 313 36 146 l 36 347 q 51 471 36 406 q 103 592 67 536 q 203 685 140 649 q 363 721 267 721 q 486 710 433 721 q 581 683 539 699 q 650 638 621 669 q 675 564 679 607 q 667 429 669 496 q 665 301 665 363 q 667 183 665 239 q 675 81 669 126 q 647 13 679 39 q 572 -12 614 -12 q 542 -3 554 -12 q 522 25 531 7 q 510 53 514 42 q 494 64 506 64 q 472 50 485 64 q 437 19 460 36 q 378 -12 414 1 q 286 -26 342 -26 m 321 175 q 374 189 347 175 q 420 226 401 203 q 439 278 439 249 q 440 348 439 317 q 444 410 442 379 q 447 479 446 442 q 428 528 451 526 q 399 532 417 531 q 363 533 382 533 q 308 514 329 533 q 276 465 288 494 q 262 403 265 435 q 258 347 258 372 l 258 313 q 269 210 258 246 q 321 175 279 175 m 490 936 q 538 878 522 917 q 533 807 553 839 l 532 804 q 475 767 514 769 q 399 785 436 764 q 322 828 360 808 q 244 861 283 849 q 204 895 217 872 q 192 947 192 918 q 206 999 193 975 l 213 1010 q 272 1062 236 1047 q 338 1047 308 1076 q 419 983 386 1004 q 490 936 451 963 z "},"ā":{"ha":724,"x_min":36,"x_max":696,"o":"m 286 -26 q 94 60 151 -26 q 36 313 36 146 l 36 347 q 51 471 36 406 q 103 592 67 536 q 203 685 140 649 q 363 721 267 721 q 486 710 433 721 q 581 683 539 699 q 650 638 621 669 q 675 564 679 607 q 667 429 669 496 q 665 301 665 363 q 667 183 665 239 q 675 81 669 126 q 647 13 679 39 q 572 -12 614 -12 q 542 -3 554 -12 q 522 25 531 7 q 510 53 514 42 q 494 64 506 64 q 472 50 485 64 q 437 19 460 36 q 378 -12 414 1 q 286 -26 342 -26 m 321 175 q 374 189 347 175 q 420 226 401 203 q 439 278 439 249 q 440 348 439 317 q 444 410 442 379 q 447 479 446 442 q 428 528 451 526 q 399 532 417 531 q 363 533 382 533 q 308 514 329 533 q 276 465 288 494 q 262 403 265 435 q 258 347 258 372 l 258 313 q 269 210 258 246 q 321 175 279 175 m 696 926 q 681 877 696 901 q 642 838 665 853 q 593 826 619 824 q 133 826 363 847 q 69 854 94 822 q 43 926 43 886 l 43 928 q 67 990 43 967 q 129 1014 90 1014 q 362 1016 246 1014 q 593 1028 478 1018 q 642 1016 619 1031 q 681 978 665 1001 q 696 928 696 954 l 696 926 z "},"ą":{"ha":724,"x_min":36,"x_max":718,"o":"m 286 -26 q 94 60 151 -26 q 36 313 36 146 l 36 347 q 51 471 36 406 q 103 592 67 536 q 203 685 140 649 q 363 721 267 721 q 486 710 433 721 q 581 683 539 699 q 650 638 621 669 q 675 564 679 607 q 667 429 669 496 q 665 301 665 363 q 667 183 665 239 q 675 81 669 126 q 647 13 679 39 q 572 -12 614 -12 q 542 -3 554 -12 q 522 25 531 7 q 510 53 514 42 q 494 64 506 64 q 472 50 485 64 q 437 19 460 36 q 378 -12 414 1 q 286 -26 342 -26 m 321 175 q 374 189 347 175 q 420 226 401 203 q 439 278 439 249 q 440 348 439 317 q 444 410 442 379 q 447 479 446 442 q 428 528 451 526 q 399 532 417 531 q 363 533 382 533 q 308 514 329 533 q 276 465 288 494 q 262 403 265 435 q 258 347 258 372 l 258 313 q 269 210 258 246 q 321 175 279 175 m 604 -250 q 518 -226 557 -250 q 459 -160 479 -201 q 450 -68 439 -119 q 476 -13 457 -35 q 517 22 494 8 q 560 39 540 35 l 614 50 l 638 15 q 624 8 638 15 q 598 -12 611 1 q 585 -49 585 -25 q 594 -69 585 -62 q 617 -78 603 -76 q 644 -81 631 -81 q 695 -97 672 -81 q 718 -147 718 -114 q 682 -225 718 -200 q 604 -250 646 -250 z "},"å":{"ha":724,"x_min":36,"x_max":679,"o":"m 286 -26 q 94 60 151 -26 q 36 313 36 146 l 36 347 q 51 471 36 406 q 103 592 67 536 q 203 685 140 649 q 363 721 267 721 q 486 710 433 721 q 581 683 539 699 q 650 638 621 669 q 675 564 679 607 q 667 429 669 496 q 665 301 665 363 q 667 183 665 239 q 675 81 669 126 q 647 13 679 39 q 572 -12 614 -12 q 542 -3 554 -12 q 522 25 531 7 q 510 53 514 42 q 494 64 506 64 q 472 50 485 64 q 437 19 460 36 q 378 -12 414 1 q 286 -26 342 -26 m 321 175 q 374 189 347 175 q 420 226 401 203 q 439 278 439 249 q 440 348 439 317 q 444 410 442 379 q 447 479 446 442 q 428 528 451 526 q 399 532 417 531 q 363 533 382 533 q 308 514 329 533 q 276 465 288 494 q 262 403 265 435 q 258 347 258 372 l 258 313 q 269 210 258 246 q 321 175 279 175 m 185 883 q 209 973 185 933 q 274 1036 233 1013 q 363 1060 314 1060 q 451 1036 411 1060 q 515 973 492 1013 q 539 883 539 933 q 520 794 539 838 q 463 724 501 751 q 363 697 424 697 q 274 724 314 697 q 209 793 233 750 q 185 883 185 836 m 314 882 q 329 849 314 864 q 363 833 344 833 q 397 849 382 833 q 411 882 411 864 q 397 916 411 901 q 363 931 382 931 q 329 916 344 931 q 314 882 314 901 z "},"ã":{"ha":724,"x_min":36,"x_max":679,"o":"m 286 -26 q 94 60 151 -26 q 36 313 36 146 l 36 347 q 51 471 36 406 q 103 592 67 536 q 203 685 140 649 q 363 721 267 721 q 486 710 433 721 q 581 683 539 699 q 650 638 621 669 q 675 564 679 607 q 667 429 669 496 q 665 301 665 363 q 667 183 665 239 q 675 81 669 126 q 647 13 679 39 q 572 -12 614 -12 q 542 -3 554 -12 q 522 25 531 7 q 510 53 514 42 q 494 64 506 64 q 472 50 485 64 q 437 19 460 36 q 378 -12 414 1 q 286 -26 342 -26 m 321 175 q 374 189 347 175 q 420 226 401 203 q 439 278 439 249 q 440 348 439 317 q 444 410 442 379 q 447 479 446 442 q 428 528 451 526 q 399 532 417 531 q 363 533 382 533 q 308 514 329 533 q 276 465 288 494 q 262 403 265 435 q 258 347 258 372 l 258 313 q 269 210 258 246 q 321 175 279 175 m 108 843 q 89 894 89 865 q 110 944 89 922 q 150 980 126 961 q 204 1013 174 999 q 268 1028 235 1028 q 336 1013 311 1028 q 377 980 361 999 q 410 948 393 961 q 454 938 428 935 q 479 952 467 939 q 504 974 492 965 q 560 992 528 992 q 615 971 593 992 l 622 965 q 647 924 640 950 q 649 871 653 897 q 628 828 644 844 q 549 781 599 801 q 454 760 499 760 q 383 774 410 760 q 338 805 356 788 q 306 836 319 822 q 272 850 292 850 q 244 842 257 850 q 217 825 231 835 q 163 810 192 807 q 114 836 135 813 l 108 843 z "},"æ":{"ha":1064,"x_min":36,"x_max":1028,"o":"m 736 -26 q 577 8 640 -26 q 477 96 514 43 q 425 207 440 149 q 410 313 410 265 l 410 347 q 425 471 410 406 q 477 592 440 536 q 577 685 514 649 q 736 721 640 721 q 882 697 825 721 q 971 636 939 672 q 1015 560 1003 600 q 1028 489 1028 519 q 1006 399 1028 435 q 947 344 983 364 q 864 315 910 325 q 770 300 818 304 q 679 293 722 296 q 644 282 653 292 q 635 258 635 272 q 660 188 636 214 q 736 161 683 161 q 802 181 771 161 q 858 207 833 200 q 913 206 886 217 q 960 174 940 196 q 988 124 981 151 q 983 53 999 78 q 947 18 968 28 q 865 -10 922 7 q 736 -26 808 -26 m 671 443 q 778 459 751 444 q 803 501 804 474 q 785 551 803 532 q 736 569 768 569 q 682 556 704 569 q 648 520 660 543 q 636 465 636 497 q 648 447 636 453 q 671 443 660 442 m 251 -26 q 138 -6 181 -26 q 74 49 96 14 q 44 128 51 85 q 36 215 36 171 q 68 338 36 289 q 154 415 100 386 q 275 456 208 443 q 410 471 342 469 q 405 528 410 508 q 387 556 400 549 q 342 563 374 563 q 290 551 314 563 q 242 532 267 540 q 167 540 200 517 q 124 610 135 563 q 124 610 124 610 q 124 610 124 610 q 130 659 115 644 q 179 688 144 674 q 258 710 210 699 q 363 721 306 721 q 506 693 456 721 q 575 617 556 665 q 597 508 594 569 q 599 382 599 447 l 599 346 q 567 174 599 244 q 482 58 535 103 q 368 -6 429 14 q 251 -26 307 -26 m 293 153 q 348 169 321 153 q 393 213 375 185 q 411 278 411 242 l 411 303 q 353 297 383 301 q 299 283 324 293 q 259 257 274 274 q 244 215 244 240 q 254 169 244 185 q 293 153 264 153 z "},"b":{"ha":724,"x_min":46,"x_max":688,"o":"m 361 -26 q 251 -22 294 -26 q 168 -15 207 -18 q 80 21 114 -11 q 49 99 46 53 q 58 365 56 238 q 62 622 61 493 q 63 889 63 750 q 92 969 63 939 q 175 999 122 999 q 239 984 210 999 q 285 944 268 969 q 299 885 303 919 q 289 789 293 833 q 285 706 285 744 q 290 681 285 686 q 306 678 296 676 q 334 691 315 681 q 381 711 353 701 q 446 721 408 721 q 631 635 575 721 q 688 382 688 550 l 688 347 q 678 260 688 310 q 647 161 668 211 q 587 69 625 111 q 493 0 549 26 q 361 -26 438 -26 m 361 182 q 416 197 396 182 q 447 238 436 213 q 462 292 458 263 q 465 347 465 321 l 465 382 q 452 496 465 458 q 403 533 439 533 q 346 513 374 533 q 301 460 318 493 q 285 388 285 428 l 285 225 q 288 203 285 210 q 299 192 292 196 q 328 183 311 185 q 361 182 344 182 z "},"c":{"ha":606,"x_min":36,"x_max":603,"o":"m 363 -26 q 203 4 267 -26 q 103 85 140 35 q 51 194 67 135 q 36 313 36 254 l 36 347 q 51 471 36 406 q 103 592 67 536 q 203 685 140 649 q 363 721 267 721 q 453 713 411 721 q 526 689 494 704 q 567 651 556 675 q 573 601 579 628 q 542 553 567 575 l 525 538 q 475 513 503 515 q 414 524 447 510 q 363 533 393 533 q 309 517 329 533 q 278 475 289 501 q 263 415 267 449 q 258 347 258 382 l 258 313 q 263 263 258 289 q 278 213 267 236 q 309 176 289 190 q 363 161 329 161 q 413 180 386 161 q 461 206 440 199 q 515 206 489 215 q 562 174 542 196 q 592 125 582 153 q 585 53 603 82 q 546 13 568 24 q 467 -12 518 1 q 363 -26 417 -26 z "},"ć":{"ha":606,"x_min":36,"x_max":603,"o":"m 363 -26 q 203 4 267 -26 q 103 85 140 35 q 51 194 67 135 q 36 313 36 254 l 36 347 q 51 471 36 406 q 103 592 67 536 q 203 685 140 649 q 363 721 267 721 q 453 713 411 721 q 526 689 494 704 q 567 651 556 675 q 573 601 579 628 q 542 553 567 575 l 525 538 q 475 513 503 515 q 414 524 447 510 q 363 533 393 533 q 309 517 329 533 q 278 475 289 501 q 263 415 267 449 q 258 347 258 382 l 258 313 q 263 263 258 289 q 278 213 267 236 q 309 176 289 190 q 363 161 329 161 q 413 180 386 161 q 461 206 440 199 q 515 206 489 215 q 562 174 542 196 q 592 125 582 153 q 585 53 603 82 q 546 13 568 24 q 467 -12 518 1 q 363 -26 417 -26 m 321 792 q 256 778 290 769 q 203 821 222 786 l 201 824 q 190 885 183 854 q 226 935 197 915 q 307 988 268 961 q 385 1049 346 1014 q 429 1069 404 1067 q 478 1062 454 1072 q 518 1028 503 1051 l 524 1019 q 538 961 540 996 q 518 899 535 926 q 472 863 501 871 q 388 833 425 851 q 321 792 350 814 z "},"č":{"ha":606,"x_min":36,"x_max":633,"o":"m 363 -26 q 203 4 267 -26 q 103 85 140 35 q 51 194 67 135 q 36 313 36 254 l 36 347 q 51 471 36 406 q 103 592 67 536 q 203 685 140 649 q 363 721 267 721 q 453 713 411 721 q 526 689 494 704 q 567 651 556 675 q 573 601 579 628 q 542 553 567 575 l 525 538 q 475 513 503 515 q 414 524 447 510 q 363 533 393 533 q 309 517 329 533 q 278 475 289 501 q 263 415 267 449 q 258 347 258 382 l 258 313 q 263 263 258 289 q 278 213 267 236 q 309 176 289 190 q 363 161 329 161 q 413 180 386 161 q 461 206 440 199 q 515 206 489 215 q 562 174 542 196 q 592 125 582 153 q 585 53 603 82 q 546 13 568 24 q 467 -12 518 1 q 363 -26 417 -26 m 622 1013 q 633 974 633 996 q 622 933 632 953 q 592 901 611 913 q 497 842 536 868 q 414 785 457 817 q 311 785 363 744 q 222 856 265 819 q 136 914 178 892 q 99 958 107 929 q 106 1013 92 986 l 107 1015 q 160 1063 128 1056 q 222 1050 193 1069 q 287 1008 257 1029 q 351 965 317 988 q 360 962 357 963 q 369 965 364 961 q 426 1014 401 986 q 489 1064 450 1042 q 555 1069 518 1083 q 619 1015 592 1054 l 622 1013 z "},"ç":{"ha":606,"x_min":36,"x_max":603,"o":"m 363 -26 q 203 4 267 -26 q 103 85 140 35 q 51 194 67 135 q 36 313 36 254 l 36 347 q 51 471 36 406 q 103 592 67 536 q 203 685 140 649 q 363 721 267 721 q 453 713 411 721 q 526 689 494 704 q 567 651 556 675 q 573 601 579 628 q 542 553 567 575 l 525 538 q 475 513 503 515 q 414 524 447 510 q 363 533 393 533 q 309 517 329 533 q 278 475 289 501 q 263 415 267 449 q 258 347 258 382 l 258 313 q 263 263 258 289 q 278 213 267 236 q 309 176 289 190 q 363 161 329 161 q 413 180 386 161 q 461 206 440 199 q 515 206 489 215 q 562 174 542 196 q 592 125 582 153 q 585 53 603 82 q 546 13 568 24 q 467 -12 518 1 q 363 -26 417 -26 m 356 -294 q 322 -292 339 -294 q 288 -283 304 -289 q 249 -250 258 -271 q 242 -203 239 -229 l 242 -201 q 297 -156 246 -153 q 324 -160 313 -157 q 350 -162 336 -162 q 383 -140 383 -162 q 372 -123 383 -126 q 335 -119 361 -119 q 297 -115 315 -119 q 269 -99 279 -111 q 261 -67 258 -87 l 278 28 l 433 28 l 418 -43 q 462 -53 442 -44 q 494 -81 482 -62 q 506 -125 506 -99 q 488 -207 506 -168 q 436 -270 469 -246 q 356 -294 403 -294 z "},"ċ":{"ha":606,"x_min":36,"x_max":603,"o":"m 363 -26 q 203 4 267 -26 q 103 85 140 35 q 51 194 67 135 q 36 313 36 254 l 36 347 q 51 471 36 406 q 103 592 67 536 q 203 685 140 649 q 363 721 267 721 q 453 713 411 721 q 526 689 494 704 q 567 651 556 675 q 573 601 579 628 q 542 553 567 575 l 525 538 q 475 513 503 515 q 414 524 447 510 q 363 533 393 533 q 309 517 329 533 q 278 475 289 501 q 263 415 267 449 q 258 347 258 382 l 258 313 q 263 263 258 289 q 278 213 267 236 q 309 176 289 190 q 363 161 329 161 q 413 180 386 161 q 461 206 440 199 q 515 206 489 215 q 562 174 542 196 q 592 125 582 153 q 585 53 603 82 q 546 13 568 24 q 467 -12 518 1 q 363 -26 417 -26 m 246 917 q 281 1000 246 967 q 363 1033 315 1033 q 446 1000 413 1033 q 479 917 479 967 q 446 835 479 869 q 363 800 413 800 q 281 835 315 800 q 246 917 246 869 z "},"d":{"ha":739,"x_min":36,"x_max":699,"o":"m 286 -26 q 94 60 151 -26 q 36 313 36 146 l 36 347 q 51 471 36 406 q 103 592 67 536 q 203 685 140 649 q 363 721 267 721 q 391 719 378 721 q 411 717 404 718 q 439 742 439 714 l 439 889 q 469 969 439 939 q 549 999 499 999 q 613 985 583 999 q 660 946 643 971 q 675 886 678 921 q 658 481 661 644 q 663 221 656 318 q 686 76 669 124 q 674 11 699 42 q 590 -19 649 -19 q 532 -8 547 -19 q 511 22 517 4 q 496 42 507 38 q 474 40 485 46 q 450 25 465 36 q 411 2 435 14 q 356 -18 388 -10 q 286 -26 325 -26 m 321 175 q 379 192 353 175 q 422 239 406 208 q 439 307 439 269 l 439 510 q 419 536 439 536 q 396 540 411 539 q 363 542 381 542 q 308 526 329 542 q 276 482 288 510 q 262 419 265 454 q 258 347 258 383 l 258 313 q 272 205 258 235 q 321 175 285 175 z "},"ď":{"ha":844,"x_min":36,"x_max":924,"o":"m 286 -26 q 94 60 151 -26 q 36 313 36 146 l 36 347 q 51 471 36 406 q 103 592 67 536 q 203 685 140 649 q 363 721 267 721 q 391 719 378 721 q 411 717 404 718 q 439 742 439 714 l 439 889 q 469 969 439 939 q 549 999 499 999 q 613 985 583 999 q 660 946 643 971 q 675 886 678 921 q 658 481 661 644 q 663 221 656 318 q 686 76 669 124 q 674 11 699 42 q 590 -19 649 -19 q 532 -8 547 -19 q 511 22 517 4 q 496 42 507 38 q 474 40 485 46 q 450 25 465 36 q 411 2 435 14 q 356 -18 388 -10 q 286 -26 325 -26 m 321 175 q 379 192 353 175 q 422 239 406 208 q 439 307 439 269 l 439 510 q 419 536 439 536 q 396 540 411 539 q 363 542 381 542 q 308 526 329 542 q 276 482 288 510 q 262 419 265 454 q 258 347 258 383 l 258 313 q 272 205 258 235 q 321 175 285 175 m 715 913 q 728 969 714 946 q 767 1006 743 993 q 817 1019 792 1019 l 819 1019 q 869 1006 846 1019 q 908 969 893 993 q 921 913 924 946 l 910 746 q 879 679 906 703 q 819 656 853 656 l 817 656 q 755 679 779 656 q 726 746 731 703 l 715 913 z "},"đ":{"ha":793,"x_min":36,"x_max":793,"o":"m 793 850 q 767 794 793 819 q 713 771 742 768 q 249 771 481 792 q 200 794 218 768 q 182 850 182 821 l 182 851 q 200 899 182 882 q 247 917 218 917 q 480 919 364 917 q 713 931 596 921 q 767 908 742 933 q 793 851 793 882 l 793 850 m 286 -26 q 94 60 151 -26 q 36 313 36 146 l 36 347 q 51 471 36 406 q 103 592 67 536 q 203 685 140 649 q 363 721 267 721 q 391 719 378 721 q 411 717 404 718 q 439 742 439 714 l 439 889 q 469 969 439 939 q 549 999 499 999 q 613 985 583 999 q 660 946 643 971 q 675 886 678 921 q 658 481 661 644 q 663 221 656 318 q 686 76 669 124 q 674 11 699 42 q 590 -19 649 -19 q 532 -8 547 -19 q 511 22 517 4 q 496 42 507 38 q 474 40 485 46 q 450 25 465 36 q 411 2 435 14 q 356 -18 388 -10 q 286 -26 325 -26 m 321 175 q 379 192 353 175 q 422 239 406 208 q 439 307 439 269 l 439 510 q 419 536 439 536 q 396 540 411 539 q 363 542 381 542 q 308 526 329 542 q 276 482 288 510 q 262 419 265 454 q 258 347 258 383 l 258 313 q 272 205 258 235 q 321 175 285 175 z "},"ð":{"ha":767,"x_min":31,"x_max":749,"o":"m 557 963 q 574 919 579 942 q 549 876 568 897 q 507 833 529 854 q 460 783 481 804 q 422 744 439 763 q 387 703 406 725 q 344 649 368 681 q 276 608 317 614 q 204 635 236 603 l 197 642 q 173 679 176 663 q 181 712 169 696 q 214 749 193 728 q 316 860 269 804 q 411 979 363 917 q 478 1008 438 1015 q 550 969 519 1001 l 557 963 m 749 349 q 706 149 749 236 q 581 14 663 61 q 383 -25 500 -33 q 199 22 279 -18 q 75 127 119 61 q 31 279 31 193 q 75 450 31 379 q 201 556 119 521 q 389 583 282 590 q 424 577 406 581 q 460 567 442 574 q 466 576 467 564 q 453 604 465 589 q 370 711 424 671 q 243 763 317 751 q 169 792 197 768 q 142 861 142 817 q 174 930 142 904 q 258 950 206 956 q 462 886 371 936 q 617 756 553 836 q 715 573 681 676 q 749 349 749 469 m 521 285 q 527 343 528 315 q 513 389 526 371 q 485 406 504 399 q 441 419 467 414 q 386 425 415 425 q 286 392 319 425 q 253 304 253 358 q 285 217 253 253 q 389 176 318 181 q 481 203 451 172 q 521 285 510 233 z "},"e":{"ha":689,"x_min":36,"x_max":653,"o":"m 363 -26 q 203 8 267 -26 q 103 96 140 43 q 51 207 67 149 q 36 313 36 265 l 36 347 q 51 471 36 406 q 103 592 67 536 q 203 685 140 649 q 363 721 267 721 q 508 697 451 721 q 597 636 565 672 q 640 560 628 600 q 653 489 653 519 q 631 399 653 435 q 572 344 608 364 q 489 315 535 325 q 395 300 443 304 q 306 293 347 296 q 270 282 279 292 q 261 258 261 272 q 272 207 261 229 q 305 173 282 185 q 363 161 328 161 q 428 181 397 161 q 483 207 460 200 q 539 206 511 217 q 587 174 567 196 q 613 124 607 151 q 609 53 625 78 q 574 18 593 28 q 490 -10 547 7 q 363 -26 433 -26 m 297 443 q 403 459 376 444 q 429 501 429 474 q 421 538 429 522 q 398 561 413 553 q 363 569 383 569 q 308 556 331 569 q 274 520 286 543 q 263 465 263 497 q 274 447 263 453 q 297 443 285 442 z "},"é":{"ha":689,"x_min":36,"x_max":653,"o":"m 363 -26 q 203 8 267 -26 q 103 96 140 43 q 51 207 67 149 q 36 313 36 265 l 36 347 q 51 471 36 406 q 103 592 67 536 q 203 685 140 649 q 363 721 267 721 q 508 697 451 721 q 597 636 565 672 q 640 560 628 600 q 653 489 653 519 q 631 399 653 435 q 572 344 608 364 q 489 315 535 325 q 395 300 443 304 q 306 293 347 296 q 270 282 279 292 q 261 258 261 272 q 272 207 261 229 q 305 173 282 185 q 363 161 328 161 q 428 181 397 161 q 483 207 460 200 q 539 206 511 217 q 587 174 567 196 q 613 124 607 151 q 609 53 625 78 q 574 18 593 28 q 490 -10 547 7 q 363 -26 433 -26 m 297 443 q 403 459 376 444 q 429 501 429 474 q 421 538 429 522 q 398 561 413 553 q 363 569 383 569 q 308 556 331 569 q 274 520 286 543 q 263 465 263 497 q 274 447 263 453 q 297 443 285 442 m 321 792 q 256 778 290 769 q 203 821 222 786 l 201 824 q 190 885 183 854 q 226 935 197 915 q 307 988 268 961 q 385 1049 346 1014 q 429 1069 404 1067 q 478 1062 454 1072 q 518 1028 503 1051 l 524 1019 q 538 961 540 996 q 518 899 535 926 q 472 863 501 871 q 388 833 425 851 q 321 792 350 814 z "},"ě":{"ha":689,"x_min":36,"x_max":653,"o":"m 363 -26 q 203 8 267 -26 q 103 96 140 43 q 51 207 67 149 q 36 313 36 265 l 36 347 q 51 471 36 406 q 103 592 67 536 q 203 685 140 649 q 363 721 267 721 q 508 697 451 721 q 597 636 565 672 q 640 560 628 600 q 653 489 653 519 q 631 399 653 435 q 572 344 608 364 q 489 315 535 325 q 395 300 443 304 q 306 293 347 296 q 270 282 279 292 q 261 258 261 272 q 272 207 261 229 q 305 173 282 185 q 363 161 328 161 q 428 181 397 161 q 483 207 460 200 q 539 206 511 217 q 587 174 567 196 q 613 124 607 151 q 609 53 625 78 q 574 18 593 28 q 490 -10 547 7 q 363 -26 433 -26 m 297 443 q 403 459 376 444 q 429 501 429 474 q 421 538 429 522 q 398 561 413 553 q 363 569 383 569 q 308 556 331 569 q 274 520 286 543 q 263 465 263 497 q 274 447 263 453 q 297 443 285 442 m 622 1013 q 633 974 633 996 q 622 933 632 953 q 592 901 611 913 q 497 842 536 868 q 414 785 457 817 q 311 785 363 744 q 222 856 265 819 q 136 914 178 892 q 99 958 107 929 q 106 1013 92 986 l 107 1015 q 160 1063 128 1056 q 222 1050 193 1069 q 287 1008 257 1029 q 351 965 317 988 q 360 962 357 963 q 369 965 364 961 q 426 1014 401 986 q 489 1064 450 1042 q 555 1069 518 1083 q 619 1015 592 1054 l 622 1013 z "},"ê":{"ha":689,"x_min":36,"x_max":653,"o":"m 363 -26 q 203 8 267 -26 q 103 96 140 43 q 51 207 67 149 q 36 313 36 265 l 36 347 q 51 471 36 406 q 103 592 67 536 q 203 685 140 649 q 363 721 267 721 q 508 697 451 721 q 597 636 565 672 q 640 560 628 600 q 653 489 653 519 q 631 399 653 435 q 572 344 608 364 q 489 315 535 325 q 395 300 443 304 q 306 293 347 296 q 270 282 279 292 q 261 258 261 272 q 272 207 261 229 q 305 173 282 185 q 363 161 328 161 q 428 181 397 161 q 483 207 460 200 q 539 206 511 217 q 587 174 567 196 q 613 124 607 151 q 609 53 625 78 q 574 18 593 28 q 490 -10 547 7 q 363 -26 433 -26 m 297 443 q 403 459 376 444 q 429 501 429 474 q 421 538 429 522 q 398 561 413 553 q 363 569 383 569 q 308 556 331 569 q 274 520 286 543 q 263 465 263 497 q 274 447 263 453 q 297 443 285 442 m 603 913 q 635 863 633 896 q 619 799 636 831 l 618 797 q 582 759 606 771 q 533 749 558 747 q 489 763 508 750 q 431 803 454 783 q 378 843 407 824 q 347 843 363 854 q 294 803 318 824 q 236 763 271 783 q 174 749 210 744 q 117 778 139 754 l 115 781 q 88 846 88 811 q 122 899 88 881 q 186 935 151 914 q 253 981 221 957 q 308 1025 286 1004 q 361 1047 332 1047 q 414 1028 390 1047 q 508 966 457 996 q 603 913 558 936 z "},"ë":{"ha":689,"x_min":36,"x_max":653,"o":"m 363 -26 q 203 8 267 -26 q 103 96 140 43 q 51 207 67 149 q 36 313 36 265 l 36 347 q 51 471 36 406 q 103 592 67 536 q 203 685 140 649 q 363 721 267 721 q 508 697 451 721 q 597 636 565 672 q 640 560 628 600 q 653 489 653 519 q 631 399 653 435 q 572 344 608 364 q 489 315 535 325 q 395 300 443 304 q 306 293 347 296 q 270 282 279 292 q 261 258 261 272 q 272 207 261 229 q 305 173 282 185 q 363 161 328 161 q 428 181 397 161 q 483 207 460 200 q 539 206 511 217 q 587 174 567 196 q 613 124 607 151 q 609 53 625 78 q 574 18 593 28 q 490 -10 547 7 q 363 -26 433 -26 m 297 443 q 403 459 376 444 q 429 501 429 474 q 421 538 429 522 q 398 561 413 553 q 363 569 383 569 q 308 556 331 569 q 274 520 286 543 q 263 465 263 497 q 274 447 263 453 q 297 443 285 442 m 224 796 q 138 829 172 796 q 104 914 104 863 q 138 998 104 964 q 224 1032 172 1032 q 306 998 272 1032 q 340 914 340 964 q 306 829 340 863 q 224 796 272 796 m 503 810 q 417 843 451 810 q 383 928 383 876 q 417 1012 383 978 q 503 1046 451 1046 q 585 1012 551 1046 q 619 928 619 978 q 585 843 619 876 q 503 810 551 810 z "},"ė":{"ha":689,"x_min":36,"x_max":653,"o":"m 363 -26 q 203 8 267 -26 q 103 96 140 43 q 51 207 67 149 q 36 313 36 265 l 36 347 q 51 471 36 406 q 103 592 67 536 q 203 685 140 649 q 363 721 267 721 q 508 697 451 721 q 597 636 565 672 q 640 560 628 600 q 653 489 653 519 q 631 399 653 435 q 572 344 608 364 q 489 315 535 325 q 395 300 443 304 q 306 293 347 296 q 270 282 279 292 q 261 258 261 272 q 272 207 261 229 q 305 173 282 185 q 363 161 328 161 q 428 181 397 161 q 483 207 460 200 q 539 206 511 217 q 587 174 567 196 q 613 124 607 151 q 609 53 625 78 q 574 18 593 28 q 490 -10 547 7 q 363 -26 433 -26 m 297 443 q 403 459 376 444 q 429 501 429 474 q 421 538 429 522 q 398 561 413 553 q 363 569 383 569 q 308 556 331 569 q 274 520 286 543 q 263 465 263 497 q 274 447 263 453 q 297 443 285 442 m 246 917 q 281 1000 246 967 q 363 1033 315 1033 q 446 1000 413 1033 q 479 917 479 967 q 446 835 479 869 q 363 800 413 800 q 281 835 315 800 q 246 917 246 869 z "},"è":{"ha":689,"x_min":36,"x_max":653,"o":"m 363 -26 q 203 8 267 -26 q 103 96 140 43 q 51 207 67 149 q 36 313 36 265 l 36 347 q 51 471 36 406 q 103 592 67 536 q 203 685 140 649 q 363 721 267 721 q 508 697 451 721 q 597 636 565 672 q 640 560 628 600 q 653 489 653 519 q 631 399 653 435 q 572 344 608 364 q 489 315 535 325 q 395 300 443 304 q 306 293 347 296 q 270 282 279 292 q 261 258 261 272 q 272 207 261 229 q 305 173 282 185 q 363 161 328 161 q 428 181 397 161 q 483 207 460 200 q 539 206 511 217 q 587 174 567 196 q 613 124 607 151 q 609 53 625 78 q 574 18 593 28 q 490 -10 547 7 q 363 -26 433 -26 m 297 443 q 403 459 376 444 q 429 501 429 474 q 421 538 429 522 q 398 561 413 553 q 363 569 383 569 q 308 556 331 569 q 274 520 286 543 q 263 465 263 497 q 274 447 263 453 q 297 443 285 442 m 490 936 q 538 878 522 917 q 533 807 553 839 l 532 804 q 475 767 514 769 q 399 785 436 764 q 322 828 360 808 q 244 861 283 849 q 204 895 217 872 q 192 947 192 918 q 206 999 193 975 l 213 1010 q 272 1062 236 1047 q 338 1047 308 1076 q 419 983 386 1004 q 490 936 451 963 z "},"ē":{"ha":689,"x_min":36,"x_max":696,"o":"m 363 -26 q 203 8 267 -26 q 103 96 140 43 q 51 207 67 149 q 36 313 36 265 l 36 347 q 51 471 36 406 q 103 592 67 536 q 203 685 140 649 q 363 721 267 721 q 508 697 451 721 q 597 636 565 672 q 640 560 628 600 q 653 489 653 519 q 631 399 653 435 q 572 344 608 364 q 489 315 535 325 q 395 300 443 304 q 306 293 347 296 q 270 282 279 292 q 261 258 261 272 q 272 207 261 229 q 305 173 282 185 q 363 161 328 161 q 428 181 397 161 q 483 207 460 200 q 539 206 511 217 q 587 174 567 196 q 613 124 607 151 q 609 53 625 78 q 574 18 593 28 q 490 -10 547 7 q 363 -26 433 -26 m 297 443 q 403 459 376 444 q 429 501 429 474 q 421 538 429 522 q 398 561 413 553 q 363 569 383 569 q 308 556 331 569 q 274 520 286 543 q 263 465 263 497 q 274 447 263 453 q 297 443 285 442 m 696 926 q 681 877 696 901 q 642 838 665 853 q 593 826 619 824 q 133 826 363 847 q 69 854 94 822 q 43 926 43 886 l 43 928 q 67 990 43 967 q 129 1014 90 1014 q 362 1016 246 1014 q 593 1028 478 1018 q 642 1016 619 1031 q 681 978 665 1001 q 696 928 696 954 l 696 926 z "},"ę":{"ha":689,"x_min":36,"x_max":653,"o":"m 363 -26 q 203 8 267 -26 q 103 96 140 43 q 51 207 67 149 q 36 313 36 265 l 36 347 q 51 471 36 406 q 103 592 67 536 q 203 685 140 649 q 363 721 267 721 q 508 697 451 721 q 597 636 565 672 q 640 560 628 600 q 653 489 653 519 q 631 399 653 435 q 572 344 608 364 q 489 315 535 325 q 395 300 443 304 q 306 293 347 296 q 270 282 279 292 q 261 258 261 272 q 272 207 261 229 q 305 173 282 185 q 363 161 328 161 q 428 181 397 161 q 483 207 460 200 q 539 206 511 217 q 587 174 567 196 q 613 124 607 151 q 609 53 625 78 q 574 18 593 28 q 490 -10 547 7 q 363 -26 433 -26 m 297 443 q 403 459 376 444 q 429 501 429 474 q 421 538 429 522 q 398 561 413 553 q 363 569 383 569 q 308 556 331 569 q 274 520 286 543 q 263 465 263 497 q 274 447 263 453 q 297 443 285 442 m 540 -246 q 454 -222 493 -246 q 395 -156 415 -197 q 386 -64 375 -115 q 412 -9 393 -31 q 453 26 431 13 q 496 43 476 39 l 550 54 l 574 19 q 560 13 574 19 q 534 -8 547 6 q 521 -44 521 -21 q 530 -65 521 -58 q 553 -74 539 -72 q 581 -76 567 -76 q 631 -93 608 -76 q 654 -143 654 -110 q 618 -221 654 -196 q 540 -246 582 -246 z "},"ẽ":{"ha":689,"x_min":36,"x_max":653,"o":"m 363 -26 q 203 8 267 -26 q 103 96 140 43 q 51 207 67 149 q 36 313 36 265 l 36 347 q 51 471 36 406 q 103 592 67 536 q 203 685 140 649 q 363 721 267 721 q 508 697 451 721 q 597 636 565 672 q 640 560 628 600 q 653 489 653 519 q 631 399 653 435 q 572 344 608 364 q 489 315 535 325 q 395 300 443 304 q 306 293 347 296 q 270 282 279 292 q 261 258 261 272 q 272 207 261 229 q 305 173 282 185 q 363 161 328 161 q 428 181 397 161 q 483 207 460 200 q 539 206 511 217 q 587 174 567 196 q 613 124 607 151 q 609 53 625 78 q 574 18 593 28 q 490 -10 547 7 q 363 -26 433 -26 m 297 443 q 403 459 376 444 q 429 501 429 474 q 421 538 429 522 q 398 561 413 553 q 363 569 383 569 q 308 556 331 569 q 274 520 286 543 q 263 465 263 497 q 274 447 263 453 q 297 443 285 442 m 108 843 q 89 894 89 865 q 110 944 89 922 q 150 980 126 961 q 204 1013 174 999 q 268 1028 235 1028 q 336 1013 311 1028 q 377 980 361 999 q 410 948 393 961 q 454 938 428 935 q 479 952 467 939 q 504 974 492 965 q 560 992 528 992 q 615 971 593 992 l 622 965 q 647 924 640 950 q 649 871 653 897 q 628 828 644 844 q 549 781 599 801 q 454 760 499 760 q 383 774 410 760 q 338 805 356 788 q 306 836 319 822 q 272 850 292 850 q 244 842 257 850 q 217 825 231 835 q 163 810 192 807 q 114 836 135 813 l 108 843 z "},"ə":{"ha":690,"x_min":36,"x_max":654,"o":"m 328 721 q 526 678 454 721 q 626 566 597 635 q 654 417 654 497 l 654 278 q 626 129 654 199 q 526 17 597 60 q 328 -26 454 -26 q 182 -1 239 -26 q 93 67 125 25 q 49 165 61 110 q 36 278 36 219 l 36 340 q 61 388 36 371 q 129 404 86 404 l 410 404 q 426 409 419 404 q 432 426 432 414 q 424 482 432 458 q 395 519 417 506 q 328 533 374 533 q 262 514 293 533 q 207 488 231 494 q 151 488 179 478 q 103 521 124 499 q 78 571 83 543 q 81 642 65 618 q 117 676 97 667 q 200 704 143 688 q 328 721 257 721 m 432 274 q 410 282 432 282 l 281 282 q 265 280 271 282 q 258 268 258 278 l 258 265 q 263 212 258 238 q 283 170 268 186 q 328 154 299 154 q 396 171 374 154 q 425 213 418 188 q 432 265 432 239 l 432 274 z "},"f":{"ha":489,"x_min":11,"x_max":510,"o":"m 207 -26 q 143 -12 174 -26 q 95 27 113 1 q 81 86 78 53 q 89 199 86 151 q 93 291 92 247 q 94 383 94 335 q 94 496 94 432 q 92 514 94 504 q 81 526 89 524 q 50 540 67 529 q 22 570 33 551 q 11 615 11 589 q 33 679 11 657 q 81 707 56 701 q 92 719 90 710 q 94 738 94 728 q 97 799 94 764 q 111 868 100 833 q 146 933 122 903 q 211 981 169 963 q 317 999 253 999 q 426 985 378 999 q 488 942 465 974 q 496 872 510 910 q 449 817 485 836 q 378 801 414 799 q 360 801 367 801 q 344 799 353 801 q 324 790 331 799 q 317 764 318 781 q 317 722 317 747 q 321 712 317 715 q 329 707 325 708 q 358 708 343 707 q 381 708 372 708 q 445 683 421 708 q 469 615 469 658 q 446 547 469 575 q 381 519 422 519 q 356 521 367 519 q 329 524 344 522 q 319 515 322 524 q 317 496 317 506 q 317 383 317 432 q 318 291 317 335 q 322 199 319 247 q 331 86 325 151 q 316 27 333 53 q 269 -12 299 1 q 207 -26 240 -26 z "},"g":{"ha":724,"x_min":36,"x_max":679,"o":"m 335 -304 q 228 -293 278 -304 q 150 -271 179 -282 q 102 -228 115 -257 q 97 -162 89 -199 q 140 -92 107 -114 q 214 -85 174 -69 q 269 -105 240 -93 q 335 -117 297 -117 q 392 -104 372 -117 q 421 -69 411 -92 q 433 -14 431 -46 q 432 6 436 1 q 421 10 428 11 q 394 -2 411 7 q 351 -19 376 -11 q 286 -26 325 -26 q 142 18 197 -26 q 61 139 86 63 q 36 313 36 215 l 36 347 q 51 471 36 406 q 103 592 67 536 q 203 685 140 649 q 363 721 267 721 q 486 710 433 721 q 581 683 539 699 q 650 638 621 669 q 675 564 679 607 q 667 424 669 489 q 663 297 664 358 q 661 169 661 235 q 661 29 661 104 q 645 -90 661 -31 q 592 -197 629 -149 q 492 -275 556 -246 q 335 -304 429 -304 m 321 175 q 380 192 353 175 q 425 239 407 208 q 443 307 443 269 q 446 404 443 358 q 450 492 449 450 q 448 509 451 504 q 436 521 444 514 q 407 530 426 526 q 363 533 388 533 q 308 518 329 533 q 276 477 288 503 q 262 417 265 451 q 258 347 258 383 l 258 313 q 272 205 258 235 q 321 175 285 175 z "},"ğ":{"ha":724,"x_min":36,"x_max":679,"o":"m 335 -304 q 228 -293 278 -304 q 150 -271 179 -282 q 102 -228 115 -257 q 97 -162 89 -199 q 140 -92 107 -114 q 214 -85 174 -69 q 269 -105 240 -93 q 335 -117 297 -117 q 392 -104 372 -117 q 421 -69 411 -92 q 433 -14 431 -46 q 432 6 436 1 q 421 10 428 11 q 394 -2 411 7 q 351 -19 376 -11 q 286 -26 325 -26 q 142 18 197 -26 q 61 139 86 63 q 36 313 36 215 l 36 347 q 51 471 36 406 q 103 592 67 536 q 203 685 140 649 q 363 721 267 721 q 486 710 433 721 q 581 683 539 699 q 650 638 621 669 q 675 564 679 607 q 667 424 669 489 q 663 297 664 358 q 661 169 661 235 q 661 29 661 104 q 645 -90 661 -31 q 592 -197 629 -149 q 492 -275 556 -246 q 335 -304 429 -304 m 321 175 q 380 192 353 175 q 425 239 407 208 q 443 307 443 269 q 446 404 443 358 q 450 492 449 450 q 448 509 451 504 q 436 521 444 514 q 407 530 426 526 q 363 533 388 533 q 308 518 329 533 q 276 477 288 503 q 262 417 265 451 q 258 347 258 383 l 258 313 q 272 205 258 235 q 321 175 285 175 m 179 1056 q 233 1038 210 1056 q 267 985 257 1021 q 300 938 276 956 q 356 921 324 921 q 398 927 378 921 q 431 945 418 933 q 444 975 444 957 q 471 1041 444 1013 q 533 1069 497 1069 l 535 1069 q 585 1054 563 1069 q 622 1015 608 1039 q 633 964 636 992 q 588 851 628 901 q 488 770 549 800 q 356 740 426 740 q 236 770 290 740 q 144 849 182 800 q 93 958 107 899 q 111 1028 86 1001 q 178 1056 136 1056 l 179 1056 z "},"ģ":{"ha":724,"x_min":36,"x_max":679,"o":"m 335 -304 q 228 -293 278 -304 q 150 -271 179 -282 q 102 -228 115 -257 q 97 -162 89 -199 q 140 -92 107 -114 q 214 -85 174 -69 q 269 -105 240 -93 q 335 -117 297 -117 q 392 -104 372 -117 q 421 -69 411 -92 q 433 -14 431 -46 q 432 6 436 1 q 421 10 428 11 q 394 -2 411 7 q 351 -19 376 -11 q 286 -26 325 -26 q 142 18 197 -26 q 61 139 86 63 q 36 313 36 215 l 36 347 q 51 471 36 406 q 103 592 67 536 q 203 685 140 649 q 363 721 267 721 q 486 710 433 721 q 581 683 539 699 q 650 638 621 669 q 675 564 679 607 q 667 424 669 489 q 663 297 664 358 q 661 169 661 235 q 661 29 661 104 q 645 -90 661 -31 q 592 -197 629 -149 q 492 -275 556 -246 q 335 -304 429 -304 m 321 175 q 380 192 353 175 q 425 239 407 208 q 443 307 443 269 q 446 404 443 358 q 450 492 449 450 q 448 509 451 504 q 436 521 444 514 q 407 530 426 526 q 363 533 388 533 q 308 518 329 533 q 276 477 288 503 q 262 417 265 451 q 258 347 258 383 l 258 313 q 272 205 258 235 q 321 175 285 175 m 379 743 q 292 776 328 743 q 238 860 257 808 q 219 969 219 911 q 263 1121 219 1067 q 388 1188 307 1175 q 433 1174 417 1192 q 449 1128 449 1157 l 449 1124 q 396 1063 449 1071 q 351 1021 351 1056 q 379 996 351 996 l 379 743 m 379 996 q 469 960 433 996 q 506 869 506 924 q 469 780 506 817 q 379 743 433 743 q 290 780 326 743 q 253 869 253 817 q 290 960 253 924 q 379 996 326 996 z "},"ġ":{"ha":724,"x_min":36,"x_max":679,"o":"m 335 -304 q 228 -293 278 -304 q 150 -271 179 -282 q 102 -228 115 -257 q 97 -162 89 -199 q 140 -92 107 -114 q 214 -85 174 -69 q 269 -105 240 -93 q 335 -117 297 -117 q 392 -104 372 -117 q 421 -69 411 -92 q 433 -14 431 -46 q 432 6 436 1 q 421 10 428 11 q 394 -2 411 7 q 351 -19 376 -11 q 286 -26 325 -26 q 142 18 197 -26 q 61 139 86 63 q 36 313 36 215 l 36 347 q 51 471 36 406 q 103 592 67 536 q 203 685 140 649 q 363 721 267 721 q 486 710 433 721 q 581 683 539 699 q 650 638 621 669 q 675 564 679 607 q 667 424 669 489 q 663 297 664 358 q 661 169 661 235 q 661 29 661 104 q 645 -90 661 -31 q 592 -197 629 -149 q 492 -275 556 -246 q 335 -304 429 -304 m 321 175 q 380 192 353 175 q 425 239 407 208 q 443 307 443 269 q 446 404 443 358 q 450 492 449 450 q 448 509 451 504 q 436 521 444 514 q 407 530 426 526 q 363 533 388 533 q 308 518 329 533 q 276 477 288 503 q 262 417 265 451 q 258 347 258 383 l 258 313 q 272 205 258 235 q 321 175 285 175 m 246 917 q 281 1000 246 967 q 363 1033 315 1033 q 446 1000 413 1033 q 479 917 479 967 q 446 835 479 869 q 363 800 413 800 q 281 835 315 800 q 246 917 246 869 z "},"ḡ":{"ha":724,"x_min":36,"x_max":696,"o":"m 335 -304 q 228 -293 278 -304 q 150 -271 179 -282 q 102 -228 115 -257 q 97 -162 89 -199 q 140 -92 107 -114 q 214 -85 174 -69 q 269 -105 240 -93 q 335 -117 297 -117 q 392 -104 372 -117 q 421 -69 411 -92 q 433 -14 431 -46 q 432 6 436 1 q 421 10 428 11 q 394 -2 411 7 q 351 -19 376 -11 q 286 -26 325 -26 q 142 18 197 -26 q 61 139 86 63 q 36 313 36 215 l 36 347 q 51 471 36 406 q 103 592 67 536 q 203 685 140 649 q 363 721 267 721 q 486 710 433 721 q 581 683 539 699 q 650 638 621 669 q 675 564 679 607 q 667 424 669 489 q 663 297 664 358 q 661 169 661 235 q 661 29 661 104 q 645 -90 661 -31 q 592 -197 629 -149 q 492 -275 556 -246 q 335 -304 429 -304 m 321 175 q 380 192 353 175 q 425 239 407 208 q 443 307 443 269 q 446 404 443 358 q 450 492 449 450 q 448 509 451 504 q 436 521 444 514 q 407 530 426 526 q 363 533 388 533 q 308 518 329 533 q 276 477 288 503 q 262 417 265 451 q 258 347 258 383 l 258 313 q 272 205 258 235 q 321 175 285 175 m 696 926 q 681 877 696 901 q 642 838 665 853 q 593 826 619 824 q 133 826 363 847 q 69 854 94 822 q 43 926 43 886 l 43 928 q 67 990 43 967 q 129 1014 90 1014 q 362 1016 246 1014 q 593 1028 478 1018 q 642 1016 619 1031 q 681 978 665 1001 q 696 928 696 954 l 696 926 z "},"h":{"ha":750,"x_min":46,"x_max":706,"o":"m 175 -26 q 111 -12 142 -26 q 63 27 81 1 q 49 86 46 53 q 58 356 56 225 q 62 619 61 488 q 63 889 63 750 q 92 969 63 939 q 175 999 122 999 q 239 984 210 999 q 285 944 268 969 q 299 885 303 919 q 289 794 293 833 q 285 718 285 754 q 288 691 285 699 q 299 685 290 683 q 326 697 308 688 q 371 713 343 706 q 438 721 399 721 q 628 640 568 721 q 688 388 688 560 q 688 283 688 329 q 692 191 689 236 q 701 89 694 146 q 689 29 706 56 q 642 -12 672 3 q 578 -26 613 -26 q 512 -12 542 -26 q 465 29 482 3 q 451 89 447 56 q 461 191 458 146 q 465 283 464 236 q 465 388 465 329 q 460 480 465 449 q 442 522 456 511 q 403 533 429 533 q 346 513 374 533 q 301 460 318 493 q 285 388 285 428 q 285 283 285 329 q 289 191 286 236 q 299 89 292 146 q 286 29 303 56 q 240 -12 269 3 q 175 -26 210 -26 z "},"ħ":{"ha":750,"x_min":-36,"x_max":706,"o":"m 175 -26 q 111 -12 142 -26 q 63 27 81 1 q 49 86 46 53 q 58 356 56 225 q 62 619 61 488 q 63 889 63 750 q 92 969 63 939 q 175 999 122 999 q 239 984 210 999 q 285 944 268 969 q 299 885 303 919 q 289 794 293 833 q 285 718 285 754 q 288 691 285 699 q 299 685 290 683 q 326 697 308 688 q 371 713 343 706 q 438 721 399 721 q 628 640 568 721 q 688 388 688 560 q 688 283 688 329 q 692 191 689 236 q 701 89 694 146 q 689 29 706 56 q 642 -12 672 3 q 578 -26 613 -26 q 512 -12 542 -26 q 465 29 482 3 q 451 89 447 56 q 461 191 458 146 q 465 283 464 236 q 465 388 465 329 q 460 480 465 449 q 442 522 456 511 q 403 533 429 533 q 346 513 374 533 q 301 460 318 493 q 285 388 285 428 q 285 283 285 329 q 289 191 286 236 q 299 89 292 146 q 286 29 303 56 q 240 -12 269 3 q 175 -26 210 -26 m 617 842 q 601 792 617 817 q 563 753 586 768 q 514 742 540 739 q 54 742 283 763 q -10 769 15 738 q -36 842 -36 801 l -36 843 q -12 906 -36 882 q 50 929 11 929 q 283 931 167 929 q 514 943 399 933 q 563 931 540 946 q 601 893 586 917 q 617 843 617 869 l 617 842 z "},"i":{"ha":375,"x_min":49,"x_max":326,"o":"m 189 -26 q 125 -12 156 -26 q 77 27 94 1 q 63 86 60 53 q 72 263 69 179 q 72 432 74 347 q 63 608 69 517 q 77 668 60 643 q 125 707 94 693 q 189 721 156 721 q 269 691 239 721 q 299 611 299 661 q 299 433 299 518 q 303 264 300 349 q 313 86 306 179 q 298 27 315 53 q 251 -12 281 1 q 189 -26 222 -26 m 188 764 q 118 783 150 764 q 67 833 86 801 q 49 903 49 865 q 67 973 49 942 q 118 1023 86 1004 q 188 1042 150 1042 q 258 1023 226 1042 q 308 973 289 1004 q 326 903 326 942 q 290 805 326 846 q 188 764 253 764 z "},"ı":{"ha":347,"x_min":46,"x_max":301,"o":"m 175 -26 q 111 -12 142 -26 q 63 27 81 1 q 49 86 46 53 q 58 263 56 179 q 58 432 60 347 q 49 608 56 517 q 63 668 46 643 q 111 707 81 693 q 175 721 142 721 q 255 691 225 721 q 285 611 285 661 q 285 433 285 518 q 289 264 286 349 q 299 86 292 179 q 284 27 301 53 q 238 -12 267 1 q 175 -26 208 -26 z "},"í":{"ha":347,"x_min":-6,"x_max":351,"o":"m 175 -26 q 111 -12 142 -26 q 63 27 81 1 q 49 86 46 53 q 58 263 56 179 q 58 432 60 347 q 49 608 56 517 q 63 668 46 643 q 111 707 81 693 q 175 721 142 721 q 255 691 225 721 q 285 611 285 661 q 285 433 285 518 q 289 264 286 349 q 299 86 292 179 q 284 27 301 53 q 238 -12 267 1 q 175 -26 208 -26 m 132 792 q 67 778 101 769 q 14 821 33 786 l 13 824 q 1 885 -6 854 q 38 935 8 915 q 118 988 79 961 q 196 1049 157 1014 q 240 1069 215 1067 q 290 1062 265 1072 q 329 1028 314 1051 l 335 1019 q 349 961 351 996 q 329 899 346 926 q 283 863 313 871 q 199 833 236 851 q 132 792 161 814 z "},"î":{"ha":347,"x_min":-101,"x_max":447,"o":"m 175 -26 q 111 -12 142 -26 q 63 27 81 1 q 49 86 46 53 q 58 263 56 179 q 58 432 60 347 q 49 608 56 517 q 63 668 46 643 q 111 707 81 693 q 175 721 142 721 q 255 691 225 721 q 285 611 285 661 q 285 433 285 518 q 289 264 286 349 q 299 86 292 179 q 284 27 301 53 q 238 -12 267 1 q 175 -26 208 -26 m 414 913 q 446 863 444 896 q 431 799 447 831 l 429 797 q 393 759 417 771 q 344 749 369 747 q 300 763 319 750 q 242 803 265 783 q 189 843 218 824 q 158 843 174 854 q 106 803 129 824 q 47 763 82 783 q -15 749 21 744 q -72 778 -50 754 l -74 781 q -101 846 -101 811 q -67 899 -101 881 q -3 935 -37 914 q 65 981 32 957 q 119 1025 97 1004 q 172 1047 143 1047 q 225 1028 201 1047 q 319 966 268 996 q 414 913 369 936 z "},"ï":{"ha":347,"x_min":-85,"x_max":431,"o":"m 175 -26 q 111 -12 142 -26 q 63 27 81 1 q 49 86 46 53 q 58 263 56 179 q 58 432 60 347 q 49 608 56 517 q 63 668 46 643 q 111 707 81 693 q 175 721 142 721 q 255 691 225 721 q 285 611 285 661 q 285 433 285 518 q 289 264 286 349 q 299 86 292 179 q 284 27 301 53 q 238 -12 267 1 q 175 -26 208 -26 m 35 796 q -51 829 -17 796 q -85 914 -85 863 q -51 998 -85 964 q 35 1032 -17 1032 q 117 998 83 1032 q 151 914 151 964 q 117 829 151 863 q 35 796 83 796 m 314 810 q 228 843 263 810 q 194 928 194 876 q 228 1012 194 978 q 314 1046 263 1046 q 397 1012 363 1046 q 431 928 431 978 q 397 843 431 876 q 314 810 363 810 z "},"ì":{"ha":347,"x_min":3,"x_max":364,"o":"m 175 -26 q 111 -12 142 -26 q 63 27 81 1 q 49 86 46 53 q 58 263 56 179 q 58 432 60 347 q 49 608 56 517 q 63 668 46 643 q 111 707 81 693 q 175 721 142 721 q 255 691 225 721 q 285 611 285 661 q 285 433 285 518 q 289 264 286 349 q 299 86 292 179 q 284 27 301 53 q 238 -12 267 1 q 175 -26 208 -26 m 301 936 q 349 878 333 917 q 344 807 364 839 l 343 804 q 286 767 325 769 q 210 785 247 764 q 133 828 171 808 q 56 861 94 849 q 15 895 28 872 q 3 947 3 918 q 17 999 4 975 l 24 1010 q 83 1062 47 1047 q 149 1047 119 1076 q 230 983 197 1004 q 301 936 263 963 z "},"ī":{"ha":347,"x_min":-146,"x_max":507,"o":"m 175 -26 q 111 -12 142 -26 q 63 27 81 1 q 49 86 46 53 q 58 263 56 179 q 58 432 60 347 q 49 608 56 517 q 63 668 46 643 q 111 707 81 693 q 175 721 142 721 q 255 691 225 721 q 285 611 285 661 q 285 433 285 518 q 289 264 286 349 q 299 86 292 179 q 284 27 301 53 q 238 -12 267 1 q 175 -26 208 -26 m 507 926 q 492 877 507 901 q 453 838 476 853 q 404 826 431 824 q -56 826 174 847 q -120 854 -94 822 q -146 926 -146 886 l -146 928 q -122 990 -146 967 q -60 1014 -99 1014 q 173 1016 57 1014 q 404 1028 289 1018 q 453 1016 431 1031 q 492 978 476 1001 q 507 928 507 954 l 507 926 z "},"į":{"ha":375,"x_min":49,"x_max":351,"o":"m 189 -26 q 125 -12 156 -26 q 77 27 94 1 q 63 86 60 53 q 72 263 69 179 q 72 432 74 347 q 63 608 69 517 q 77 668 60 643 q 125 707 94 693 q 189 721 156 721 q 269 691 239 721 q 299 611 299 661 q 299 433 299 518 q 303 264 300 349 q 313 86 306 179 q 298 27 315 53 q 251 -12 281 1 q 189 -26 222 -26 m 188 764 q 118 783 150 764 q 67 833 86 801 q 49 903 49 865 q 67 973 49 942 q 118 1023 86 1004 q 188 1042 150 1042 q 258 1023 226 1042 q 308 973 289 1004 q 326 903 326 942 q 290 805 326 846 q 188 764 253 764 m 239 -264 q 153 -240 192 -264 q 94 -174 114 -215 q 85 -82 74 -133 q 110 -27 92 -49 q 152 8 129 -6 q 194 25 175 21 l 249 36 l 272 1 q 259 -6 272 1 q 233 -26 246 -12 q 219 -62 219 -39 q 228 -83 219 -76 q 251 -92 238 -90 q 279 -94 265 -94 q 330 -111 307 -94 q 353 -161 353 -128 q 317 -239 353 -214 q 239 -264 281 -264 z "},"ĩ":{"ha":347,"x_min":-100,"x_max":464,"o":"m 175 -26 q 111 -12 142 -26 q 63 27 81 1 q 49 86 46 53 q 58 263 56 179 q 58 432 60 347 q 49 608 56 517 q 63 668 46 643 q 111 707 81 693 q 175 721 142 721 q 255 691 225 721 q 285 611 285 661 q 285 433 285 518 q 289 264 286 349 q 299 86 292 179 q 284 27 301 53 q 238 -12 267 1 q 175 -26 208 -26 m -81 843 q -100 894 -100 865 q -79 944 -100 922 q -39 980 -62 961 q 15 1013 -15 999 q 79 1028 46 1028 q 147 1013 122 1028 q 188 980 172 999 q 222 948 204 961 q 265 938 239 935 q 290 952 278 939 q 315 974 303 965 q 372 992 339 992 q 426 971 404 992 l 433 965 q 458 924 451 950 q 460 871 464 897 q 439 828 456 844 q 360 781 410 801 q 265 760 310 760 q 194 774 221 760 q 149 805 167 788 q 117 836 131 822 q 83 850 103 850 q 55 842 68 850 q 28 825 42 835 q -26 810 3 807 q -75 836 -54 813 l -81 843 z "},"ĳ":{"ha":733,"x_min":49,"x_max":685,"o":"m 189 -26 q 125 -12 156 -26 q 77 27 94 1 q 63 86 60 53 q 72 263 69 179 q 72 432 74 347 q 63 608 69 517 q 77 668 60 643 q 125 707 94 693 q 189 721 156 721 q 269 691 239 721 q 299 611 299 661 q 299 433 299 518 q 303 264 300 349 q 313 86 306 179 q 298 27 315 53 q 251 -12 281 1 q 189 -26 222 -26 m 188 764 q 118 783 150 764 q 67 833 86 801 q 49 903 49 865 q 67 973 49 942 q 118 1023 86 1004 q 188 1042 150 1042 q 258 1023 226 1042 q 308 973 289 1004 q 326 903 326 942 q 290 805 326 846 q 188 764 253 764 m 400 -304 q 331 -276 357 -301 q 304 -212 304 -250 q 328 -133 304 -167 q 392 -107 351 -100 q 423 -98 414 -110 q 434 -55 432 -86 q 436 29 436 -24 q 435 226 436 133 q 431 413 435 319 q 421 608 428 506 q 435 668 418 643 q 483 707 453 693 q 547 721 514 721 q 627 691 597 721 q 657 611 657 661 q 657 414 657 507 q 657 227 657 321 q 657 29 657 133 q 650 -94 657 -33 q 618 -204 643 -156 q 542 -281 593 -253 q 400 -304 490 -308 m 546 764 q 476 783 508 764 q 426 833 444 801 q 407 903 407 865 q 426 973 407 942 q 476 1023 444 1004 q 546 1042 508 1042 q 616 1023 585 1042 q 666 973 647 1004 q 685 903 685 942 q 666 833 685 865 q 616 783 647 801 q 546 764 585 764 z "},"j":{"ha":360,"x_min":-69,"x_max":311,"o":"m 26 -304 q -43 -276 -17 -301 q -69 -212 -69 -250 q -46 -133 -69 -167 q 18 -107 -22 -100 q 49 -98 40 -110 q 60 -55 58 -86 q 63 29 63 -24 q 62 226 63 133 q 58 413 61 319 q 47 608 54 506 q 62 668 44 643 q 110 707 79 693 q 174 721 140 721 q 253 691 224 721 q 283 611 283 661 q 283 414 283 507 q 283 227 283 321 q 283 29 283 133 q 276 -94 283 -33 q 244 -204 269 -156 q 168 -281 219 -253 q 26 -304 117 -308 m 172 764 q 103 783 135 764 q 52 833 71 801 q 33 903 33 865 q 52 973 33 942 q 103 1023 71 1004 q 172 1042 135 1042 q 242 1023 211 1042 q 292 973 274 1004 q 311 903 311 942 q 292 833 311 865 q 242 783 274 801 q 172 764 211 764 z "},"ȷ":{"ha":332,"x_min":-69,"x_max":283,"o":"m 26 -304 q -43 -276 -17 -301 q -69 -212 -69 -250 q -56 -156 -69 -182 q -22 -116 -43 -131 q 26 -107 0 -101 q 52 -98 44 -110 q 61 -55 60 -86 q 63 29 63 -24 q 62 226 63 133 q 58 413 61 319 q 47 608 54 506 q 62 668 44 643 q 110 707 79 693 q 174 721 140 721 q 253 691 224 721 q 283 611 283 661 q 283 414 283 507 q 283 227 283 321 q 283 29 283 133 q 276 -94 283 -33 q 244 -204 269 -156 q 168 -281 219 -253 q 26 -304 117 -308 z "},"k":{"ha":718,"x_min":46,"x_max":704,"o":"m 175 -26 q 111 -12 142 -26 q 63 27 81 1 q 49 86 46 53 q 58 356 56 225 q 58 617 60 486 q 49 886 56 749 q 63 946 46 921 q 111 985 81 971 q 175 999 142 999 q 256 968 225 999 q 285 888 286 938 q 275 701 278 796 q 272 513 272 606 q 282 488 271 493 q 303 499 293 483 q 359 572 333 535 q 403 644 385 608 q 454 701 422 681 q 551 721 486 721 q 605 703 583 721 q 635 660 626 686 q 636 606 643 635 q 603 556 629 576 l 499 447 q 499 411 476 429 q 588 328 550 378 q 653 219 626 278 q 694 96 681 160 q 688 32 704 60 q 642 -11 672 4 q 576 -26 613 -26 q 497 1 526 -26 q 461 76 468 28 q 444 154 457 119 q 414 217 432 189 q 372 260 396 244 q 336 257 354 279 l 296 208 q 285 175 285 194 l 285 83 q 255 3 285 33 q 175 -26 225 -26 z "},"ķ":{"ha":718,"x_min":46,"x_max":704,"o":"m 175 -26 q 111 -12 142 -26 q 63 27 81 1 q 49 86 46 53 q 58 356 56 225 q 58 617 60 486 q 49 886 56 749 q 63 946 46 921 q 111 985 81 971 q 175 999 142 999 q 256 968 225 999 q 285 888 286 938 q 275 701 278 796 q 272 513 272 606 q 282 488 271 493 q 303 499 293 483 q 359 572 333 535 q 403 644 385 608 q 454 701 422 681 q 551 721 486 721 q 605 703 583 721 q 635 660 626 686 q 636 606 643 635 q 603 556 629 576 l 499 447 q 499 411 476 429 q 588 328 550 378 q 653 219 626 278 q 694 96 681 160 q 688 32 704 60 q 642 -11 672 4 q 576 -26 613 -26 q 497 1 526 -26 q 461 76 468 28 q 444 154 457 119 q 414 217 432 189 q 372 260 396 244 q 336 257 354 279 l 296 208 q 285 175 285 194 l 285 83 q 255 3 285 33 q 175 -26 225 -26 m 368 -344 q 334 -375 358 -362 q 282 -387 310 -387 l 276 -387 q 233 -376 254 -387 q 203 -344 211 -365 q 208 -294 194 -324 q 252 -203 236 -240 q 283 -114 268 -165 q 308 -85 288 -96 q 356 -68 328 -74 q 413 -62 385 -62 l 422 -62 q 467 -76 450 -62 q 488 -112 485 -90 q 478 -158 492 -135 q 424 -253 447 -212 q 368 -344 400 -293 z "},"l":{"ha":417,"x_min":46,"x_max":381,"o":"m 286 -24 q 155 -2 204 -29 q 82 74 106 25 q 52 184 58 124 q 50 306 46 244 q 60 503 57 410 q 63 692 63 597 q 64 890 64 786 q 94 969 64 939 q 176 1000 124 1000 q 241 985 211 1000 q 288 944 271 971 q 300 883 304 918 q 278 689 286 782 q 267 501 271 596 q 264 303 264 407 q 268 229 264 256 q 281 194 272 203 q 303 186 290 186 q 363 157 344 186 q 381 71 381 128 q 351 3 381 28 q 286 -24 322 -21 z "},"ĺ":{"ha":417,"x_min":31,"x_max":386,"o":"m 286 -24 q 155 -2 204 -29 q 82 74 106 25 q 52 184 58 124 q 50 306 46 244 q 60 503 57 410 q 63 692 63 597 q 64 890 64 786 q 94 969 64 939 q 176 1000 124 1000 q 241 985 211 1000 q 288 944 271 971 q 300 883 304 918 q 278 689 286 782 q 267 501 271 596 q 264 303 264 407 q 268 229 264 256 q 281 194 272 203 q 303 186 290 186 q 363 157 344 186 q 381 71 381 128 q 351 3 381 28 q 286 -24 322 -21 m 167 1069 q 102 1056 136 1047 q 49 1099 68 1064 l 47 1101 q 36 1163 29 1132 q 72 1213 43 1193 q 153 1265 114 1239 q 231 1326 192 1292 q 275 1347 250 1344 q 324 1340 300 1350 q 364 1306 349 1329 l 369 1297 q 383 1239 386 1274 q 364 1176 381 1204 q 318 1140 347 1149 q 233 1110 271 1129 q 167 1069 196 1092 z "},"ľ":{"ha":499,"x_min":46,"x_max":551,"o":"m 286 -24 q 155 -2 204 -29 q 82 74 106 25 q 52 184 58 124 q 50 306 46 244 q 60 503 57 410 q 63 692 63 597 q 64 890 64 786 q 94 969 64 939 q 176 1000 124 1000 q 241 985 211 1000 q 288 944 271 971 q 300 883 304 918 q 278 689 286 782 q 267 501 271 596 q 264 303 264 407 q 268 229 264 256 q 281 194 272 203 q 303 186 290 186 q 363 157 344 186 q 381 71 381 128 q 351 3 381 28 q 286 -24 322 -21 m 343 913 q 356 969 342 946 q 395 1006 371 993 q 444 1019 419 1019 l 447 1019 q 497 1006 474 1019 q 536 969 521 993 q 549 913 551 946 l 538 746 q 507 679 533 703 q 447 656 481 656 l 444 656 q 383 679 407 656 q 354 746 358 703 l 343 913 z "},"ļ":{"ha":417,"x_min":46,"x_max":381,"o":"m 286 -24 q 155 -2 204 -29 q 82 74 106 25 q 52 184 58 124 q 50 306 46 244 q 60 503 57 410 q 63 692 63 597 q 64 890 64 786 q 94 969 64 939 q 176 1000 124 1000 q 241 985 211 1000 q 288 944 271 971 q 300 883 304 918 q 278 689 286 782 q 267 501 271 596 q 264 303 264 407 q 268 229 264 256 q 281 194 272 203 q 303 186 290 186 q 363 157 344 186 q 381 71 381 128 q 351 3 381 28 q 286 -24 322 -21 m 222 -344 q 188 -375 213 -362 q 136 -387 164 -387 l 131 -387 q 87 -376 108 -387 q 57 -344 65 -365 q 63 -294 49 -324 q 106 -203 90 -240 q 138 -114 122 -165 q 162 -85 142 -96 q 210 -68 182 -74 q 267 -62 239 -62 l 276 -62 q 322 -76 304 -62 q 342 -112 339 -90 q 332 -158 346 -135 q 278 -253 301 -212 q 222 -344 254 -293 z "},"ŀ":{"ha":603,"x_min":46,"x_max":589,"o":"m 463 300 q 373 337 410 300 q 336 426 336 374 q 373 516 336 479 q 463 553 410 553 q 552 516 515 553 q 589 426 589 479 q 552 337 589 374 q 463 300 515 300 m 286 -24 q 155 -2 204 -29 q 82 74 106 25 q 52 184 58 124 q 50 306 46 244 q 60 503 57 410 q 63 692 63 597 q 64 890 64 786 q 94 969 64 939 q 176 1000 124 1000 q 241 985 211 1000 q 288 944 271 971 q 300 883 304 918 q 278 689 286 782 q 267 501 271 596 q 264 303 264 407 q 268 229 264 256 q 281 194 272 203 q 303 186 290 186 q 363 157 344 186 q 381 71 381 128 q 351 3 381 28 q 286 -24 322 -21 z "},"ł":{"ha":469,"x_min":0,"x_max":428,"o":"m 21 301 q 1 357 0 324 q 22 410 1 390 q 162 538 92 469 q 301 675 232 606 q 349 696 322 696 q 396 675 375 696 l 400 671 q 421 615 421 649 q 399 563 421 582 q 260 434 329 503 q 121 296 190 365 q 74 275 100 275 q 26 296 47 275 l 21 301 m 333 -24 q 202 -2 251 -29 q 129 74 153 25 q 99 184 106 124 q 97 306 93 244 q 107 503 104 410 q 110 692 110 597 q 111 890 111 786 q 141 969 111 939 q 224 1000 171 1000 q 288 985 258 1000 q 335 944 318 971 q 347 883 351 918 q 326 689 333 782 q 315 501 318 596 q 311 303 311 407 q 315 229 311 256 q 328 194 319 203 q 350 186 338 186 q 410 157 392 186 q 428 71 428 128 q 399 3 428 28 q 333 -24 369 -21 z "},"m":{"ha":1153,"x_min":44,"x_max":1108,"o":"m 175 -26 q 111 -12 142 -26 q 63 27 81 1 q 49 86 46 53 q 58 267 56 182 q 58 436 60 351 q 49 617 56 521 q 78 683 44 658 q 156 708 111 708 q 188 697 176 708 q 204 669 199 686 q 216 644 210 658 q 233 629 222 629 q 259 643 243 629 q 299 675 275 657 q 358 707 324 693 q 438 721 393 721 q 538 701 499 721 q 599 653 578 681 q 619 638 607 642 q 644 642 632 633 q 674 660 656 647 q 716 687 692 674 q 772 710 740 700 q 840 721 804 721 q 1031 640 971 721 q 1090 388 1090 560 q 1091 283 1090 329 q 1094 191 1092 236 q 1104 89 1097 146 q 1092 29 1108 56 q 1045 -12 1075 3 q 981 -26 1015 -26 q 915 -12 944 -26 q 867 29 885 3 q 854 89 850 56 q 864 191 861 146 q 867 283 867 236 q 868 388 868 329 q 854 501 868 469 q 806 533 840 533 q 749 513 776 533 q 704 460 721 493 q 688 388 688 428 q 688 283 688 329 q 692 191 689 236 q 701 89 694 146 q 689 29 706 56 q 642 -12 672 3 q 578 -26 613 -26 q 512 -12 542 -26 q 465 29 482 3 q 451 89 447 56 q 461 191 458 146 q 465 283 464 236 q 465 388 465 329 q 451 501 465 469 q 403 533 438 533 q 346 513 374 533 q 301 460 318 493 q 285 388 285 428 q 285 283 285 329 q 289 191 286 236 q 299 89 292 146 q 286 29 303 56 q 240 -12 269 3 q 175 -26 210 -26 z "},"n":{"ha":750,"x_min":44,"x_max":707,"o":"m 49 615 q 77 683 44 657 q 151 708 110 708 q 194 699 176 708 q 219 668 213 690 q 232 648 224 654 q 256 647 240 642 q 278 662 264 650 q 316 687 293 674 q 369 710 339 700 q 438 719 399 719 q 628 639 568 719 q 688 386 688 558 q 688 282 688 328 q 692 190 689 236 q 701 88 694 144 q 670 6 707 38 q 579 -26 633 -26 q 483 6 521 -26 q 451 88 446 38 q 461 190 458 144 q 465 282 464 236 q 465 386 465 328 q 451 501 465 469 q 403 532 438 532 q 346 513 374 532 q 301 460 318 493 q 285 386 285 426 q 285 282 285 328 q 289 190 286 236 q 299 88 292 144 q 267 6 304 38 q 176 -26 231 -26 q 83 4 121 -26 q 49 85 46 35 q 58 265 56 181 q 58 435 60 350 q 49 615 56 521 z "},"ń":{"ha":750,"x_min":44,"x_max":707,"o":"m 49 615 q 77 683 44 657 q 151 708 110 708 q 194 699 176 708 q 219 668 213 690 q 232 648 224 654 q 256 647 240 642 q 278 662 264 650 q 316 687 293 674 q 369 710 339 700 q 438 719 399 719 q 628 639 568 719 q 688 386 688 558 q 688 282 688 328 q 692 190 689 236 q 701 88 694 144 q 670 6 707 38 q 579 -26 633 -26 q 483 6 521 -26 q 451 88 446 38 q 461 190 458 144 q 465 282 464 236 q 465 386 465 328 q 451 501 465 469 q 403 532 438 532 q 346 513 374 532 q 301 460 318 493 q 285 386 285 426 q 285 282 285 328 q 289 190 286 236 q 299 88 292 144 q 267 6 304 38 q 176 -26 231 -26 q 83 4 121 -26 q 49 85 46 35 q 58 265 56 181 q 58 435 60 350 q 49 615 56 521 m 333 792 q 269 778 303 769 q 215 821 235 786 l 214 824 q 203 885 196 854 q 239 935 210 915 q 319 988 281 961 q 397 1049 358 1014 q 442 1069 417 1067 q 491 1062 467 1072 q 531 1028 515 1051 l 536 1019 q 550 961 553 996 q 531 899 547 926 q 485 863 514 871 q 400 833 438 851 q 333 792 363 814 z "},"ň":{"ha":750,"x_min":44,"x_max":707,"o":"m 49 615 q 77 683 44 657 q 151 708 110 708 q 194 699 176 708 q 219 668 213 690 q 232 648 224 654 q 256 647 240 642 q 278 662 264 650 q 316 687 293 674 q 369 710 339 700 q 438 719 399 719 q 628 639 568 719 q 688 386 688 558 q 688 282 688 328 q 692 190 689 236 q 701 88 694 144 q 670 6 707 38 q 579 -26 633 -26 q 483 6 521 -26 q 451 88 446 38 q 461 190 458 144 q 465 282 464 236 q 465 386 465 328 q 451 501 465 469 q 403 532 438 532 q 346 513 374 532 q 301 460 318 493 q 285 386 285 426 q 285 282 285 328 q 289 190 286 236 q 299 88 292 144 q 267 6 304 38 q 176 -26 231 -26 q 83 4 121 -26 q 49 85 46 35 q 58 265 56 181 q 58 435 60 350 q 49 615 56 521 m 635 1013 q 645 974 646 996 q 634 933 644 953 q 604 901 624 913 q 509 842 549 868 q 426 785 469 817 q 324 785 375 744 q 234 856 278 819 q 149 914 190 892 q 112 958 119 929 q 118 1013 104 986 l 119 1015 q 173 1063 140 1056 q 235 1050 206 1069 q 299 1008 269 1029 q 364 965 329 988 q 373 962 369 963 q 382 965 376 961 q 438 1014 414 986 q 501 1064 463 1042 q 567 1069 531 1083 q 632 1015 604 1054 l 635 1013 z "},"ņ":{"ha":750,"x_min":44,"x_max":707,"o":"m 49 615 q 77 683 44 657 q 151 708 110 708 q 194 699 176 708 q 219 668 213 690 q 232 648 224 654 q 256 647 240 642 q 278 662 264 650 q 316 687 293 674 q 369 710 339 700 q 438 719 399 719 q 628 639 568 719 q 688 386 688 558 q 688 282 688 328 q 692 190 689 236 q 701 88 694 144 q 670 6 707 38 q 579 -26 633 -26 q 483 6 521 -26 q 451 88 446 38 q 461 190 458 144 q 465 282 464 236 q 465 386 465 328 q 451 501 465 469 q 403 532 438 532 q 346 513 374 532 q 301 460 318 493 q 285 386 285 426 q 285 282 285 328 q 289 190 286 236 q 299 88 292 144 q 267 6 304 38 q 176 -26 231 -26 q 83 4 121 -26 q 49 85 46 35 q 58 265 56 181 q 58 435 60 350 q 49 615 56 521 m 389 -344 q 355 -375 379 -362 q 303 -387 331 -387 l 297 -387 q 253 -376 275 -387 q 224 -344 232 -365 q 229 -294 215 -324 q 273 -203 257 -240 q 304 -114 289 -165 q 328 -85 308 -96 q 377 -68 349 -74 q 433 -62 406 -62 l 443 -62 q 488 -76 471 -62 q 509 -112 506 -90 q 499 -158 513 -135 q 444 -253 468 -212 q 389 -344 421 -293 z "},"ñ":{"ha":750,"x_min":44,"x_max":707,"o":"m 49 615 q 77 683 44 657 q 151 708 110 708 q 194 699 176 708 q 219 668 213 690 q 232 648 224 654 q 256 647 240 642 q 278 662 264 650 q 316 687 293 674 q 369 710 339 700 q 438 719 399 719 q 628 639 568 719 q 688 386 688 558 q 688 282 688 328 q 692 190 689 236 q 701 88 694 144 q 670 6 707 38 q 579 -26 633 -26 q 483 6 521 -26 q 451 88 446 38 q 461 190 458 144 q 465 282 464 236 q 465 386 465 328 q 451 501 465 469 q 403 532 438 532 q 346 513 374 532 q 301 460 318 493 q 285 386 285 426 q 285 282 285 328 q 289 190 286 236 q 299 88 292 144 q 267 6 304 38 q 176 -26 231 -26 q 83 4 121 -26 q 49 85 46 35 q 58 265 56 181 q 58 435 60 350 q 49 615 56 521 m 121 843 q 101 894 101 865 q 122 944 101 922 q 163 980 139 961 q 217 1013 186 999 q 281 1028 247 1028 q 349 1013 324 1028 q 390 980 374 999 q 423 948 406 961 q 467 938 440 935 q 492 952 479 939 q 517 974 504 965 q 573 992 540 992 q 628 971 606 992 l 635 965 q 659 924 653 950 q 661 871 665 897 q 640 828 657 844 q 561 781 611 801 q 467 760 511 760 q 395 774 422 760 q 350 805 368 788 q 318 836 332 822 q 285 850 304 850 q 256 842 269 850 q 229 825 243 835 q 176 810 204 807 q 126 836 147 813 l 121 843 z "},"o":{"ha":725,"x_min":36,"x_max":689,"o":"m 689 313 q 674 207 689 265 q 622 96 658 149 q 522 8 585 43 q 363 -26 458 -26 q 203 8 267 -26 q 103 96 140 43 q 51 207 67 149 q 36 313 36 265 l 36 347 q 51 471 36 406 q 103 592 67 536 q 203 685 140 649 q 363 721 267 721 q 522 685 458 721 q 622 592 585 649 q 674 471 658 536 q 689 347 689 406 l 689 313 m 467 347 q 462 415 467 382 q 444 474 457 447 q 412 517 432 501 q 363 533 392 533 q 313 517 333 533 q 281 474 293 501 q 263 415 268 447 q 258 347 258 382 l 258 313 q 264 263 258 288 q 281 219 269 239 q 313 187 293 199 q 363 175 333 175 q 412 187 392 175 q 444 219 432 199 q 461 263 456 239 q 467 313 467 288 l 467 347 z "},"ó":{"ha":725,"x_min":36,"x_max":689,"o":"m 689 313 q 674 207 689 265 q 622 96 658 149 q 522 8 585 43 q 363 -26 458 -26 q 203 8 267 -26 q 103 96 140 43 q 51 207 67 149 q 36 313 36 265 l 36 347 q 51 471 36 406 q 103 592 67 536 q 203 685 140 649 q 363 721 267 721 q 522 685 458 721 q 622 592 585 649 q 674 471 658 536 q 689 347 689 406 l 689 313 m 467 347 q 462 415 467 382 q 444 474 457 447 q 412 517 432 501 q 363 533 392 533 q 313 517 333 533 q 281 474 293 501 q 263 415 268 447 q 258 347 258 382 l 258 313 q 264 263 258 288 q 281 219 269 239 q 313 187 293 199 q 363 175 333 175 q 412 187 392 175 q 444 219 432 199 q 461 263 456 239 q 467 313 467 288 l 467 347 m 321 792 q 256 778 290 769 q 203 821 222 786 l 201 824 q 190 885 183 854 q 226 935 197 915 q 307 988 268 961 q 385 1049 346 1014 q 429 1069 404 1067 q 478 1062 454 1072 q 518 1028 503 1051 l 524 1019 q 538 961 540 996 q 518 899 535 926 q 472 863 501 871 q 388 833 425 851 q 321 792 350 814 z "},"ô":{"ha":725,"x_min":36,"x_max":689,"o":"m 689 313 q 674 207 689 265 q 622 96 658 149 q 522 8 585 43 q 363 -26 458 -26 q 203 8 267 -26 q 103 96 140 43 q 51 207 67 149 q 36 313 36 265 l 36 347 q 51 471 36 406 q 103 592 67 536 q 203 685 140 649 q 363 721 267 721 q 522 685 458 721 q 622 592 585 649 q 674 471 658 536 q 689 347 689 406 l 689 313 m 467 347 q 462 415 467 382 q 444 474 457 447 q 412 517 432 501 q 363 533 392 533 q 313 517 333 533 q 281 474 293 501 q 263 415 268 447 q 258 347 258 382 l 258 313 q 264 263 258 288 q 281 219 269 239 q 313 187 293 199 q 363 175 333 175 q 412 187 392 175 q 444 219 432 199 q 461 263 456 239 q 467 313 467 288 l 467 347 m 603 913 q 635 863 633 896 q 619 799 636 831 l 618 797 q 582 759 606 771 q 533 749 558 747 q 489 763 508 750 q 431 803 454 783 q 378 843 407 824 q 347 843 363 854 q 294 803 318 824 q 236 763 271 783 q 174 749 210 744 q 117 778 139 754 l 115 781 q 88 846 88 811 q 122 899 88 881 q 186 935 151 914 q 253 981 221 957 q 308 1025 286 1004 q 361 1047 332 1047 q 414 1028 390 1047 q 508 966 457 996 q 603 913 558 936 z "},"ö":{"ha":725,"x_min":36,"x_max":689,"o":"m 689 313 q 674 207 689 265 q 622 96 658 149 q 522 8 585 43 q 363 -26 458 -26 q 203 8 267 -26 q 103 96 140 43 q 51 207 67 149 q 36 313 36 265 l 36 347 q 51 471 36 406 q 103 592 67 536 q 203 685 140 649 q 363 721 267 721 q 522 685 458 721 q 622 592 585 649 q 674 471 658 536 q 689 347 689 406 l 689 313 m 467 347 q 462 415 467 382 q 444 474 457 447 q 412 517 432 501 q 363 533 392 533 q 313 517 333 533 q 281 474 293 501 q 263 415 268 447 q 258 347 258 382 l 258 313 q 264 263 258 288 q 281 219 269 239 q 313 187 293 199 q 363 175 333 175 q 412 187 392 175 q 444 219 432 199 q 461 263 456 239 q 467 313 467 288 l 467 347 m 224 796 q 138 829 172 796 q 104 914 104 863 q 138 998 104 964 q 224 1032 172 1032 q 306 998 272 1032 q 340 914 340 964 q 306 829 340 863 q 224 796 272 796 m 503 810 q 417 843 451 810 q 383 928 383 876 q 417 1012 383 978 q 503 1046 451 1046 q 585 1012 551 1046 q 619 928 619 978 q 585 843 619 876 q 503 810 551 810 z "},"ò":{"ha":725,"x_min":36,"x_max":689,"o":"m 689 313 q 674 207 689 265 q 622 96 658 149 q 522 8 585 43 q 363 -26 458 -26 q 203 8 267 -26 q 103 96 140 43 q 51 207 67 149 q 36 313 36 265 l 36 347 q 51 471 36 406 q 103 592 67 536 q 203 685 140 649 q 363 721 267 721 q 522 685 458 721 q 622 592 585 649 q 674 471 658 536 q 689 347 689 406 l 689 313 m 467 347 q 462 415 467 382 q 444 474 457 447 q 412 517 432 501 q 363 533 392 533 q 313 517 333 533 q 281 474 293 501 q 263 415 268 447 q 258 347 258 382 l 258 313 q 264 263 258 288 q 281 219 269 239 q 313 187 293 199 q 363 175 333 175 q 412 187 392 175 q 444 219 432 199 q 461 263 456 239 q 467 313 467 288 l 467 347 m 490 936 q 538 878 522 917 q 533 807 553 839 l 532 804 q 475 767 514 769 q 399 785 436 764 q 322 828 360 808 q 244 861 283 849 q 204 895 217 872 q 192 947 192 918 q 206 999 193 975 l 213 1010 q 272 1062 236 1047 q 338 1047 308 1076 q 419 983 386 1004 q 490 936 451 963 z "},"ő":{"ha":725,"x_min":36,"x_max":700,"o":"m 689 313 q 674 207 689 265 q 622 96 658 149 q 522 8 585 43 q 363 -26 458 -26 q 203 8 267 -26 q 103 96 140 43 q 51 207 67 149 q 36 313 36 265 l 36 347 q 51 471 36 406 q 103 592 67 536 q 203 685 140 649 q 363 721 267 721 q 522 685 458 721 q 622 592 585 649 q 674 471 658 536 q 689 347 689 406 l 689 313 m 467 347 q 462 415 467 382 q 444 474 457 447 q 412 517 432 501 q 363 533 392 533 q 313 517 333 533 q 281 474 293 501 q 263 415 268 447 q 258 347 258 382 l 258 313 q 264 263 258 288 q 281 219 269 239 q 313 187 293 199 q 363 175 333 175 q 412 187 392 175 q 444 219 432 199 q 461 263 456 239 q 467 313 467 288 l 467 347 m 307 789 q 271 756 297 768 q 217 743 244 743 l 211 743 q 153 771 174 743 q 153 842 132 799 q 203 947 181 896 q 242 1050 226 999 q 266 1081 249 1069 q 308 1099 283 1093 q 361 1104 333 1104 l 371 1104 q 419 1089 400 1104 q 442 1050 438 1074 q 431 1003 446 1026 q 369 896 400 950 q 307 789 339 842 m 547 789 q 511 756 538 768 q 457 743 485 743 l 451 743 q 393 771 414 743 q 393 842 372 799 q 447 949 421 896 q 500 1057 474 1003 q 536 1091 510 1078 q 601 1104 563 1104 l 611 1104 q 665 1087 643 1104 q 694 1045 688 1069 q 682 997 700 1021 q 610 894 642 946 q 547 789 579 842 z "},"ō":{"ha":725,"x_min":36,"x_max":696,"o":"m 689 313 q 674 207 689 265 q 622 96 658 149 q 522 8 585 43 q 363 -26 458 -26 q 203 8 267 -26 q 103 96 140 43 q 51 207 67 149 q 36 313 36 265 l 36 347 q 51 471 36 406 q 103 592 67 536 q 203 685 140 649 q 363 721 267 721 q 522 685 458 721 q 622 592 585 649 q 674 471 658 536 q 689 347 689 406 l 689 313 m 467 347 q 462 415 467 382 q 444 474 457 447 q 412 517 432 501 q 363 533 392 533 q 313 517 333 533 q 281 474 293 501 q 263 415 268 447 q 258 347 258 382 l 258 313 q 264 263 258 288 q 281 219 269 239 q 313 187 293 199 q 363 175 333 175 q 412 187 392 175 q 444 219 432 199 q 461 263 456 239 q 467 313 467 288 l 467 347 m 696 926 q 681 877 696 901 q 642 838 665 853 q 593 826 619 824 q 133 826 363 847 q 69 854 94 822 q 43 926 43 886 l 43 928 q 67 990 43 967 q 129 1014 90 1014 q 362 1016 246 1014 q 593 1028 478 1018 q 642 1016 619 1031 q 681 978 665 1001 q 696 928 696 954 l 696 926 z "},"ø":{"ha":714,"x_min":-8,"x_max":697,"o":"m 22 26 q 0 61 8 40 q -7 103 -8 82 q 10 135 -6 124 q 219 313 117 222 q 413 492 321 404 q 578 660 504 581 q 626 694 601 685 q 672 682 651 703 l 676 678 q 697 624 697 656 q 658 561 696 592 q 467 385 557 474 q 293 208 378 297 q 121 24 208 118 q 75 1 101 1 q 26 22 49 1 l 22 26 m 689 313 q 674 207 689 265 q 622 96 658 149 q 522 8 585 43 q 363 -26 458 -26 q 203 8 267 -26 q 103 96 140 43 q 51 207 67 149 q 36 313 36 265 l 36 347 q 51 471 36 406 q 103 592 67 536 q 203 685 140 649 q 363 721 267 721 q 522 685 458 721 q 622 592 585 649 q 674 471 658 536 q 689 347 689 406 l 689 313 m 467 347 q 462 415 467 382 q 444 474 457 447 q 412 517 432 501 q 363 533 392 533 q 313 517 333 533 q 281 474 293 501 q 263 415 268 447 q 258 347 258 382 l 258 313 q 264 263 258 288 q 281 219 269 239 q 313 187 293 199 q 363 175 333 175 q 412 187 392 175 q 444 219 432 199 q 461 263 456 239 q 467 313 467 288 l 467 347 z "}}}
